linja-pona.ufo
<glyph name="three" format="1">
  <advance width="1074"/>
  <unicode hex="0033"/>
  <outline>
    <contour>
      <point x="941" y="406" type="curve" smooth="yes"/>
      <point x="941" y="120.501"/>
      <point x="743.774" y="-20"/>
      <point x="450" y="-20" type="curve" smooth="yes"/>
      <point x="316.922" y="-20"/>
      <point x="178.547" y="40.0919"/>
      <point x="109" y="104" type="curve"/>
      <point x="205" y="258" type="line"/>
      <point x="270" y="186"/>
      <point x="353" y="150"/>
      <point x="453" y="150" type="curve" smooth="yes"/>
      <point x="638" y="150"/>
      <point x="731" y="241"/>
      <point x="731" y="422" type="curve" smooth="yes"/>
      <point x="731" y="591.832"/>
      <point x="606.84" y="701"/>
      <point x="435" y="701" type="curve" smooth="yes"/>
      <point x="419" y="701" type="line"/>
      <point x="419" y="863" type="line"/>
      <point x="428" y="863" type="line" smooth="yes"/>
      <point x="597" y="863"/>
      <point x="682" y="938"/>
      <point x="682" y="1087" type="curve" smooth="yes"/>
      <point x="682" y="1243"/>
      <point x="602" y="1321"/>
      <point x="443" y="1321" type="curve" smooth="yes"/>
      <point x="356" y="1321"/>
      <point x="287" y="1292"/>
      <point x="236" y="1234" type="curve"/>
      <point x="147" y="1370" type="line"/>
      <point x="209" y="1451"/>
      <point x="313" y="1491"/>
      <point x="458" y="1491" type="curve" smooth="yes"/>
      <point x="693.857" y="1491"/>
      <point x="892" y="1353.73"/>
      <point x="892" y="1126" type="curve" smooth="yes"/>
      <point x="892" y="965.719"/>
      <point x="784.974" y="824.958"/>
      <point x="666" y="784" type="curve"/>
      <point x="821.027" y="734.17"/>
      <point x="941" y="603.61"/>
    </contour>
  </outline>
</glyph>
<glyph name="eight" format="1">
  <advance width="1074"/>
  <unicode hex="0038"/>
  <outline>
    <contour>
      <point x="89" y="406" type="curve" smooth="yes"/>
      <point x="89" y="585.953"/>
      <point x="221.236" y="758.781"/>
      <point x="353" y="815" type="curve"/>
      <point x="249.424" y="870.129"/>
      <point x="142" y="991.542"/>
      <point x="142" y="1138" type="curve" smooth="yes"/>
      <point x="142" y="1361.28"/>
      <point x="312.366" y="1491"/>
      <point x="538" y="1491" type="curve" smooth="yes"/>
      <point x="776.008" y="1491"/>
      <point x="935" y="1367.28"/>
      <point x="935" y="1137" type="curve" smooth="yes"/>
      <point x="935" y="995.68"/>
      <point x="820.726" y="848.391"/>
      <point x="726" y="795" type="curve"/>
      <point x="902" y="696"/>
      <point x="990" y="567"/>
      <point x="990" y="406" type="curve" smooth="yes"/>
      <point x="990" y="131.06"/>
      <point x="811.445" y="-20"/>
      <point x="533" y="-20" type="curve" smooth="yes"/>
      <point x="237" y="-20"/>
      <point x="89" y="122"/>
    </contour>
    <contour>
      <point x="598" y="877" type="curve"/>
      <point x="689" y="962"/>
      <point x="734" y="1051"/>
      <point x="734" y="1142" type="curve" smooth="yes"/>
      <point x="734" y="1251"/>
      <point x="654" y="1321"/>
      <point x="538" y="1321" type="curve" smooth="yes"/>
      <point x="407" y="1321"/>
      <point x="342" y="1261"/>
      <point x="342" y="1140" type="curve" smooth="yes"/>
      <point x="342" y="1051"/>
      <point x="427" y="963"/>
    </contour>
    <contour>
      <point x="533" y="150" type="curve" smooth="yes"/>
      <point x="681.599" y="150"/>
      <point x="790" y="257.868"/>
      <point x="790" y="406" type="curve" smooth="yes"/>
      <point x="790" y="460"/>
      <point x="773" y="511"/>
      <point x="740" y="558" type="curve" smooth="yes"/>
      <point x="707" y="606"/>
      <point x="630" y="663"/>
      <point x="509" y="728" type="curve"/>
      <point x="362" y="649"/>
      <point x="289" y="541"/>
      <point x="289" y="406" type="curve" smooth="yes"/>
      <point x="289" y="261.624"/>
      <point x="388.599" y="150"/>
    </contour>
  </outline>
</glyph>
<glyph name="O" format="1">
  <advance width="1380"/>
  <unicode hex="004F"/>
  <outline>
    <contour>
      <point x="1300" y="745" type="curve" smooth="yes"/>
      <point x="1300" y="297.214"/>
      <point x="1101.96" y="-25"/>
      <point x="670" y="-25" type="curve" smooth="yes"/>
      <point x="485" y="-25"/>
      <point x="341" y="47"/>
      <point x="236" y="191" type="curve" smooth="yes"/>
      <point x="132" y="335"/>
      <point x="80" y="520"/>
      <point x="80" y="745" type="curve" smooth="yes"/>
      <point x="80" y="957"/>
      <point x="133" y="1134"/>
      <point x="239" y="1277" type="curve" smooth="yes"/>
      <point x="346" y="1420"/>
      <point x="489" y="1491"/>
      <point x="670" y="1491" type="curve" smooth="yes"/>
      <point x="1098.16" y="1491"/>
      <point x="1300" y="1186.55"/>
    </contour>
    <contour>
      <point x="670" y="1311" type="curve" smooth="yes"/>
      <point x="390.416" y="1311"/>
      <point x="290" y="1046.71"/>
      <point x="290" y="745" type="curve" smooth="yes"/>
      <point x="290" y="456.01"/>
      <point x="399.533" y="155"/>
      <point x="670" y="155" type="curve" smooth="yes"/>
      <point x="975.702" y="155"/>
      <point x="1090" y="417.608"/>
      <point x="1090" y="745" type="curve" smooth="yes"/>
      <point x="1090" y="1122"/>
      <point x="950" y="1311"/>
    </contour>
  </outline>
</glyph>
<glyph name="p" format="1">
  <advance width="1141"/>
  <unicode hex="0070"/>
  <outline>
    <contour>
      <point x="570" y="-20" type="curve" smooth="yes"/>
      <point x="491.573" y="-20"/>
      <point x="356.575" y="14.7953"/>
      <point x="325" y="59" type="curve"/>
      <point x="325" y="-420" type="line"/>
      <point x="135" y="-420" type="line"/>
      <point x="135" y="1071" type="line"/>
      <point x="325" y="1071" type="line"/>
      <point x="325" y="983" type="line"/>
      <point x="397" y="1055"/>
      <point x="484" y="1091"/>
      <point x="586" y="1091" type="curve" smooth="yes"/>
      <point x="911.427" y="1091"/>
      <point x="1068" y="872.818"/>
      <point x="1068" y="533" type="curve" smooth="yes"/>
      <point x="1068" y="370"/>
      <point x="1025" y="237"/>
      <point x="940" y="134" type="curve" smooth="yes"/>
      <point x="855" y="31"/>
      <point x="731" y="-20"/>
    </contour>
    <contour>
      <point x="515" y="931" type="curve" smooth="yes"/>
      <point x="450.328" y="931"/>
      <point x="359.776" y="874.776"/>
      <point x="325" y="840" type="curve"/>
      <point x="325" y="216" type="line"/>
      <point x="350.192" y="178.212"/>
      <point x="447.487" y="140"/>
      <point x="514" y="140" type="curve" smooth="yes"/>
      <point x="750" y="140"/>
      <point x="868" y="273"/>
      <point x="868" y="540" type="curve" smooth="yes"/>
      <point x="868" y="811"/>
      <point x="762" y="931"/>
    </contour>
  </outline>
</glyph>
<glyph name="currency" format="1">
  <advance width="1074"/>
  <unicode hex="00A4"/>
  <outline>
    <contour>
      <point x="1017" y="334" type="line"/>
      <point x="932" y="246" type="line"/>
      <point x="789" y="390" type="line"/>
      <point x="708" y="334"/>
      <point x="624" y="306"/>
      <point x="536" y="306" type="curve" smooth="yes"/>
      <point x="449" y="306"/>
      <point x="364" y="334"/>
      <point x="283" y="390" type="curve"/>
      <point x="140" y="246" type="line"/>
      <point x="56" y="334" type="line"/>
      <point x="199" y="474" type="line"/>
      <point x="144" y="559"/>
      <point x="117" y="643"/>
      <point x="117" y="726" type="curve" smooth="yes"/>
      <point x="117" y="809"/>
      <point x="144" y="892"/>
      <point x="199" y="977" type="curve"/>
      <point x="56" y="1117" type="line"/>
      <point x="140" y="1205" type="line"/>
      <point x="283" y="1062" type="line"/>
      <point x="364" y="1117"/>
      <point x="449" y="1145"/>
      <point x="536" y="1145" type="curve" smooth="yes"/>
      <point x="624" y="1145"/>
      <point x="708" y="1117"/>
      <point x="789" y="1062" type="curve"/>
      <point x="932" y="1205" type="line"/>
      <point x="1017" y="1117" type="line"/>
      <point x="874" y="977" type="line"/>
      <point x="929" y="892"/>
      <point x="956" y="809"/>
      <point x="956" y="726" type="curve" smooth="yes"/>
      <point x="956" y="643"/>
      <point x="929" y="559"/>
      <point x="874" y="474" type="curve"/>
    </contour>
    <contour>
      <point x="535" y="1025" type="curve" smooth="yes"/>
      <point x="369.777" y="1025"/>
      <point x="236" y="891.224"/>
      <point x="236" y="726" type="curve" smooth="yes"/>
      <point x="236" y="560.871"/>
      <point x="369.244" y="426"/>
      <point x="535" y="426" type="curve" smooth="yes"/>
      <point x="699.134" y="426"/>
      <point x="834" y="562.504"/>
      <point x="834" y="726" type="curve" smooth="yes"/>
      <point x="834" y="891.223"/>
      <point x="700.224" y="1025"/>
    </contour>
  </outline>
</glyph>
<glyph name="degree" format="1">
  <advance width="1074"/>
  <unicode hex="00B0"/>
  <outline>
    <contour>
      <point x="719" y="1282" type="curve" smooth="yes"/>
      <point x="719" y="1166.52"/>
      <point x="623.673" y="1072"/>
      <point x="508" y="1072" type="curve" smooth="yes"/>
      <point x="391.334" y="1072"/>
      <point x="296" y="1165.98"/>
      <point x="296" y="1282" type="curve" smooth="yes"/>
      <point x="296" y="1397.51"/>
      <point x="391.878" y="1491"/>
      <point x="508" y="1491" type="curve" smooth="yes"/>
      <point x="623.64" y="1491"/>
      <point x="719" y="1396.98"/>
    </contour>
    <contour>
      <point x="647" y="1282" type="curve" smooth="yes"/>
      <point x="647" y="1357.45"/>
      <point x="583.451" y="1421"/>
      <point x="508" y="1421" type="curve" smooth="yes"/>
      <point x="432.547" y="1421"/>
      <point x="369" y="1357.45"/>
      <point x="369" y="1282" type="curve" smooth="yes"/>
      <point x="369" y="1206.55"/>
      <point x="432.549" y="1143"/>
      <point x="508" y="1143" type="curve" smooth="yes"/>
      <point x="583.453" y="1143"/>
      <point x="647" y="1206.55"/>
    </contour>
  </outline>
</glyph>
<glyph name="middot.001" format="1">
  <advance width="752"/>
  <unicode hex="00B7"/>
  <outline>
    <contour>
      <point x="205" y="651" type="curve" smooth="yes"/>
      <point x="205" y="732.927"/>
      <point x="273.07" y="801"/>
      <point x="355" y="801" type="curve" smooth="yes"/>
      <point x="436.927" y="801"/>
      <point x="505" y="732.93"/>
      <point x="505" y="651" type="curve" smooth="yes"/>
      <point x="505" y="569.17"/>
      <point x="437.462" y="500"/>
      <point x="355" y="500" type="curve" smooth="yes"/>
      <point x="272.543" y="500"/>
      <point x="205" y="569.164"/>
    </contour>
  </outline>
</glyph>
<glyph name="bullet" format="1">
  <advance width="1074"/>
  <unicode hex="2022"/>
  <outline>
    <contour>
      <point x="253" y="574" type="curve" smooth="yes"/>
      <point x="253" y="733.218"/>
      <point x="383.88" y="863"/>
      <point x="542" y="863" type="curve" smooth="yes"/>
      <point x="700.155" y="863"/>
      <point x="831" y="732.145"/>
      <point x="831" y="574" type="curve" smooth="yes"/>
      <point x="831" y="415.875"/>
      <point x="701.213" y="285"/>
      <point x="542" y="285" type="curve" smooth="yes"/>
      <point x="382.813" y="285"/>
      <point x="253" y="414.812"/>
    </contour>
  </outline>
</glyph>
<glyph name="ellipsis" format="1">
  <advance width="1504"/>
  <unicode hex="2026"/>
  <outline>
    <contour>
      <point x="250" y="281" type="curve" smooth="yes"/>
      <point x="331.927" y="281"/>
      <point x="400" y="212.93"/>
      <point x="400" y="131" type="curve" smooth="yes"/>
      <point x="400" y="49.1697"/>
      <point x="332.462" y="-20"/>
      <point x="250" y="-20" type="curve" smooth="yes"/>
      <point x="167.543" y="-20"/>
      <point x="100" y="49.1644"/>
      <point x="100" y="131" type="curve" smooth="yes"/>
      <point x="100" y="212.927"/>
      <point x="168.07" y="281"/>
    </contour>
    <contour>
      <point x="752" y="281" type="curve" smooth="yes"/>
      <point x="833.927" y="281"/>
      <point x="902" y="212.93"/>
      <point x="902" y="131" type="curve" smooth="yes"/>
      <point x="902" y="49.1697"/>
      <point x="834.462" y="-20"/>
      <point x="752" y="-20" type="curve" smooth="yes"/>
      <point x="669.543" y="-20"/>
      <point x="602" y="49.1644"/>
      <point x="602" y="131" type="curve" smooth="yes"/>
      <point x="602" y="212.927"/>
      <point x="670.07" y="281"/>
    </contour>
    <contour>
      <point x="1254" y="281" type="curve" smooth="yes"/>
      <point x="1335.93" y="281"/>
      <point x="1404" y="212.93"/>
      <point x="1404" y="131" type="curve" smooth="yes"/>
      <point x="1404" y="49.1697"/>
      <point x="1336.46" y="-20"/>
      <point x="1254" y="-20" type="curve" smooth="yes"/>
      <point x="1171.54" y="-20"/>
      <point x="1104" y="49.1644"/>
      <point x="1104" y="131" type="curve" smooth="yes"/>
      <point x="1104" y="212.927"/>
      <point x="1172.07" y="281"/>
    </contour>
  </outline>
</glyph>
<glyph name="Euro" format="1">
  <advance width="1074"/>
  <unicode hex="20AC"/>
  <outline>
    <contour>
      <point x="146" y="928" type="line"/>
      <point x="192.646" y="1217.21"/>
      <point x="386.371" y="1490"/>
      <point x="699" y="1490" type="curve" smooth="yes"/>
      <point x="866" y="1490"/>
      <point x="983" y="1459"/>
      <point x="1052" y="1397" type="curve"/>
      <point x="963" y="1233" type="line"/>
      <point x="896" y="1284"/>
      <point x="809" y="1310"/>
      <point x="704" y="1310" type="curve" smooth="yes"/>
      <point x="491.809" y="1310"/>
      <point x="375.96" y="1128.36"/>
      <point x="346" y="928" type="curve"/>
      <point x="805" y="928" type="line"/>
      <point x="747" y="787" type="line"/>
      <point x="333" y="787" type="line"/>
      <point x="331" y="762"/>
      <point x="330" y="739"/>
      <point x="330" y="716" type="curve" smooth="yes"/>
      <point x="330" y="697"/>
      <point x="331" y="677"/>
      <point x="332" y="656" type="curve"/>
      <point x="679" y="656" type="line"/>
      <point x="630" y="515" type="line"/>
      <point x="347" y="515" type="line"/>
      <point x="356" y="426"/>
      <point x="393" y="346"/>
      <point x="456" y="273" type="curve" smooth="yes"/>
      <point x="525" y="194"/>
      <point x="602" y="155"/>
      <point x="687" y="155" type="curve" smooth="yes"/>
      <point x="819.208" y="155"/>
      <point x="963.991" y="225.836"/>
      <point x="1031" y="298" type="curve"/>
      <point x="1031" y="81" type="line"/>
      <point x="938" y="10"/>
      <point x="816" y="-25"/>
      <point x="666" y="-25" type="curve" smooth="yes"/>
      <point x="364.645" y="-25"/>
      <point x="191.625" y="232.373"/>
      <point x="147" y="515" type="curve"/>
      <point x="31" y="515" type="line"/>
      <point x="31" y="656" type="line"/>
      <point x="129" y="656" type="line"/>
      <point x="127.257" y="682.151"/>
      <point x="126.189" y="707.965"/>
      <point x="126.189" y="733.244" type="curve" smooth="yes"/>
      <point x="126.189" y="751.465"/>
      <point x="126.743" y="769.408"/>
      <point x="128" y="787" type="curve"/>
      <point x="31" y="787" type="line"/>
      <point x="31" y="928" type="line"/>
    </contour>
  </outline>
</glyph>
<glyph name="aa" format="1">
  <advance width="1741"/>
  <unicode hex="E600"/>
  <outline>
    <contour>
      <point x="874" y="717" type="line"/>
      <point x="751" y="717" type="line"/>
      <point x="751" y="1638" type="line"/>
      <point x="874" y="1638" type="line"/>
    </contour>
    <contour>
      <point x="1177" y="-27" type="line"/>
      <point x="1125" y="77"/>
      <point x="1080" y="157"/>
      <point x="1040" y="216" type="curve"/>
      <point x="1005" y="143"/>
      <point x="959" y="86"/>
      <point x="902" y="45" type="curve" smooth="yes"/>
      <point x="827.315" y="-9.57756"/>
      <point x="751.713" y="-21.0651"/>
      <point x="700.652" y="-21.0651" type="curve" smooth="yes"/>
      <point x="698.385" y="-21.0651"/>
      <point x="696.167" y="-21.0425"/>
      <point x="694" y="-21" type="curve" smooth="yes"/>
      <point x="623" y="-19"/>
      <point x="566" y="-1"/>
      <point x="524" y="34" type="curve" smooth="yes"/>
      <point x="491.816" y="61.3072"/>
      <point x="453.926" y="111.442"/>
      <point x="453.926" y="197.389" type="curve" smooth="yes"/>
      <point x="453.926" y="199.57"/>
      <point x="453.951" y="201.773"/>
      <point x="454" y="204" type="curve" smooth="yes"/>
      <point x="456" y="280"/>
      <point x="482" y="350"/>
      <point x="527" y="401" type="curve" smooth="yes"/>
      <point x="565.892" y="444.753"/>
      <point x="635.98" y="495.124"/>
      <point x="756.568" y="495.124" type="curve" smooth="yes"/>
      <point x="760.004" y="495.124"/>
      <point x="763.481" y="495.083"/>
      <point x="767" y="495" type="curve" smooth="yes"/>
      <point x="864" y="493"/>
      <point x="945" y="485"/>
      <point x="1029" y="416" type="curve" smooth="yes"/>
      <point x="1106" y="352"/>
      <point x="1181" y="239"/>
      <point x="1287" y="27" type="curve"/>
    </contour>
    <contour>
      <point x="756" y="372" type="curve" smooth="yes"/>
      <point x="696" y="372"/>
      <point x="650" y="355"/>
      <point x="620" y="320" type="curve" smooth="yes"/>
      <point x="604" y="302"/>
      <point x="578" y="264"/>
      <point x="577" y="201" type="curve" smooth="yes"/>
      <point x="576.976" y="199.81"/>
      <point x="576.964" y="198.638"/>
      <point x="576.964" y="197.484" type="curve" smooth="yes"/>
      <point x="576.964" y="151.133"/>
      <point x="596.17" y="133.879"/>
      <point x="603" y="129" type="curve" smooth="yes"/>
      <point x="623" y="112"/>
      <point x="655" y="103"/>
      <point x="697" y="102" type="curve" smooth="yes"/>
      <point x="698.24" y="101.976"/>
      <point x="699.524" y="101.963"/>
      <point x="700.851" y="101.963" type="curve" smooth="yes"/>
      <point x="755.167" y="101.963"/>
      <point x="880.717" y="123.817"/>
      <point x="951" y="321" type="curve"/>
      <point x="951" y="321"/>
      <point x="950" y="321"/>
      <point x="950" y="321" type="curve"/>
      <point x="898" y="364"/>
      <point x="851" y="370"/>
      <point x="763" y="372" type="curve" smooth="yes"/>
      <point x="761" y="372"/>
      <point x="758" y="372"/>
    </contour>
  </outline>
</glyph>
<glyph name="esun" format="1">
  <advance width="2048"/>
  <unicode hex="E60B"/>
  <outline>
    <contour>
      <point x="1106" y="861" type="curve"/>
      <point x="1089.74" y="795.948"/>
      <point x="1075.71" y="720.559"/>
      <point x="1064" y="655" type="curve"/>
      <point x="1463.91" y="555.677"/>
      <point x="1752.2" y="320.228"/>
      <point x="1908" y="-26" type="curve"/>
      <point x="1796" y="-77" type="line"/>
      <point x="1690" y="158"/>
      <point x="1474" y="428"/>
      <point x="1038" y="534" type="curve"/>
      <point x="1002" y="374"/>
      <point x="965" y="241"/>
      <point x="906" y="136" type="curve" smooth="yes"/>
      <point x="811" y="-34"/>
      <point x="670" y="-113"/>
      <point x="461" y="-113" type="curve" smooth="yes"/>
      <point x="240.341" y="-113"/>
      <point x="92" y="52.9828"/>
      <point x="92" y="263" type="curve" smooth="yes"/>
      <point x="92" y="394.75"/>
      <point x="150.246" y="497.275"/>
      <point x="224" y="566" type="curve" smooth="yes"/>
      <point x="320" y="656"/>
      <point x="458" y="703"/>
      <point x="623" y="703" type="curve" smooth="yes"/>
      <point x="736" y="703"/>
      <point x="842" y="695"/>
      <point x="943" y="679" type="curve"/>
      <point x="957.556" y="746.93"/>
      <point x="969.832" y="820.095"/>
      <point x="986" y="888" type="curve"/>
      <point x="835" y="929"/>
      <point x="697" y="991"/>
      <point x="573" y="1075" type="curve" smooth="yes"/>
      <point x="347" y="1229"/>
      <point x="218" y="1424"/>
      <point x="150" y="1560" type="curve"/>
      <point x="260" y="1615" type="line"/>
      <point x="321" y="1492"/>
      <point x="438" y="1315"/>
      <point x="642" y="1176" type="curve" smooth="yes"/>
      <point x="752" y="1101"/>
      <point x="876" y="1046"/>
      <point x="1011" y="1009" type="curve"/>
      <point x="1046" y="1171"/>
      <point x="1084" y="1304"/>
      <point x="1144" y="1409" type="curve" smooth="yes"/>
      <point x="1237" y="1573"/>
      <point x="1378" y="1649"/>
      <point x="1587" y="1649" type="curve" smooth="yes"/>
      <point x="1796.83" y="1649"/>
      <point x="1955" y="1478.53"/>
      <point x="1955" y="1266" type="curve" smooth="yes"/>
      <point x="1955" y="1151"/>
      <point x="1909" y="1045"/>
      <point x="1826" y="967" type="curve" smooth="yes"/>
      <point x="1733" y="879"/>
      <point x="1597" y="833"/>
      <point x="1434" y="833" type="curve" smooth="yes"/>
      <point x="1319" y="833"/>
      <point x="1209" y="842"/>
    </contour>
    <contour>
      <point x="215" y="263" type="curve" smooth="yes"/>
      <point x="215" y="118.161"/>
      <point x="316.784" y="10"/>
      <point x="461" y="10" type="curve" smooth="yes"/>
      <point x="625" y="10"/>
      <point x="726" y="66"/>
      <point x="799" y="196" type="curve" smooth="yes"/>
      <point x="850" y="287"/>
      <point x="884" y="409"/>
      <point x="918" y="558" type="curve"/>
      <point x="828" y="573"/>
      <point x="730" y="581"/>
      <point x="623" y="581" type="curve" smooth="yes"/>
      <point x="404.804" y="581"/>
      <point x="215" y="472.071"/>
    </contour>
    <contour>
      <point x="1832" y="1266" type="curve" smooth="yes"/>
      <point x="1832" y="1409.67"/>
      <point x="1730.91" y="1526"/>
      <point x="1587" y="1526" type="curve" smooth="yes"/>
      <point x="1422" y="1526"/>
      <point x="1322" y="1473"/>
      <point x="1250" y="1348" type="curve" smooth="yes"/>
      <point x="1198" y="1257"/>
      <point x="1164" y="1133"/>
      <point x="1131" y="982" type="curve"/>
      <point x="1226" y="964"/>
      <point x="1328" y="955"/>
      <point x="1434" y="955" type="curve" smooth="yes"/>
      <point x="1649.81" y="955"/>
      <point x="1832" y="1059.51"/>
    </contour>
  </outline>
</glyph>
<glyph name="jaki" format="1">
  <advance width="2048"/>
  <unicode hex="E610"/>
  <outline>
    <contour>
      <point x="1121" y="1700" type="curve" smooth="yes"/>
      <point x="1323.4" y="1700"/>
      <point x="1439.43" y="1587.59"/>
      <point x="1439.43" y="1384.92" type="curve" smooth="yes"/>
      <point x="1439.43" y="1377.73"/>
      <point x="1439.29" y="1370.43"/>
      <point x="1439" y="1363" type="curve"/>
      <point x="1481" y="1353"/>
      <point x="1521" y="1341"/>
      <point x="1558" y="1328" type="curve" smooth="yes"/>
      <point x="1800" y="1241"/>
      <point x="1855" y="1113"/>
      <point x="1858" y="1018" type="curve" smooth="yes"/>
      <point x="1859.56" y="1009.26"/>
      <point x="1861.51" y="995.173"/>
      <point x="1861.51" y="977.307" type="curve" smooth="yes"/>
      <point x="1861.51" y="937.914"/>
      <point x="1852.03" y="880.167"/>
      <point x="1808" y="821" type="curve" smooth="yes"/>
      <point x="1795" y="803"/>
      <point x="1780" y="787"/>
      <point x="1763" y="772" type="curve" smooth="yes"/>
      <point x="1765" y="769"/>
      <point x="1768" y="765"/>
      <point x="1771" y="761" type="curve" smooth="yes"/>
      <point x="1829" y="678"/>
      <point x="1858" y="584"/>
      <point x="1858" y="480" type="curve" smooth="yes"/>
      <point x="1858" y="169.381"/>
      <point x="1574.75" y="58.63"/>
      <point x="1241.72" y="58.63" type="curve" smooth="yes"/>
      <point x="1118.82" y="58.63"/>
      <point x="1018.64" y="70.4711"/>
      <point x="956" y="83" type="curve" smooth="yes"/>
      <point x="889" y="94"/>
      <point x="806" y="108"/>
      <point x="719" y="130" type="curve"/>
      <point x="624" y="40"/>
      <point x="528" y="-37"/>
      <point x="431" y="-102" type="curve"/>
      <point x="362" y="0" type="line"/>
      <point x="437" y="49"/>
      <point x="511" y="107"/>
      <point x="584" y="173" type="curve"/>
      <point x="449.706" y="223.869"/>
      <point x="333.373" y="303.366"/>
      <point x="277" y="420" type="curve" smooth="yes"/>
      <point x="251.071" y="473.429"/>
      <point x="238.107" y="532.413"/>
      <point x="238.107" y="596.469" type="curve" smooth="yes"/>
      <point x="238.107" y="613.939"/>
      <point x="239.071" y="631.786"/>
      <point x="241" y="650" type="curve" smooth="yes"/>
      <point x="260.931" y="827.39"/>
      <point x="399.567" y="1054.84"/>
      <point x="484" y="1187" type="curve"/>
      <point x="425.139" y="1164.18"/>
      <point x="344.324" y="1130.88"/>
      <point x="276" y="1099" type="curve"/>
      <point x="228" y="1212" type="line"/>
      <point x="242" y="1219"/>
      <point x="257" y="1225"/>
      <point x="271" y="1231" type="curve" smooth="yes"/>
      <point x="407" y="1289"/>
      <point x="505" y="1331"/>
      <point x="601" y="1360" type="curve"/>
      <point x="724.878" y="1521.84"/>
      <point x="891.357" y="1700"/>
    </contour>
    <contour>
      <point x="822" y="232" type="curve"/>
      <point x="882.12" y="220.191"/>
      <point x="935.005" y="208.099"/>
      <point x="986" y="203" type="curve" smooth="yes"/>
      <point x="1038.8" y="193.948"/>
      <point x="1131.43" y="181.483"/>
      <point x="1236.85" y="181.483" type="curve" smooth="yes"/>
      <point x="1411.61" y="181.483"/>
      <point x="1569.13" y="218.944"/>
      <point x="1652" y="288" type="curve" smooth="yes"/>
      <point x="1708" y="335"/>
      <point x="1735" y="398"/>
      <point x="1735" y="480" type="curve" smooth="yes"/>
      <point x="1735" y="564.012"/>
      <point x="1707.5" y="644.371"/>
      <point x="1659" y="705" type="curve"/>
      <point x="1536" y="645"/>
      <point x="1358" y="614"/>
      <point x="1127" y="612" type="curve"/>
      <point x="1043" y="488"/>
      <point x="947" y="367"/>
      <point x="846" y="258" type="curve" smooth="yes"/>
      <point x="838" y="249"/>
      <point x="830" y="241"/>
    </contour>
    <contour>
      <point x="721" y="826" type="curve" smooth="yes"/>
      <point x="721" y="970.94"/>
      <point x="894.215" y="1072"/>
      <point x="1049" y="1072" type="curve" smooth="yes"/>
      <point x="1110" y="1072"/>
      <point x="1173" y="1067"/>
      <point x="1234" y="1056" type="curve"/>
      <point x="1266" y="1132"/>
      <point x="1289" y="1202"/>
      <point x="1303" y="1265" type="curve"/>
      <point x="1215" y="1280"/>
      <point x="1120" y="1287"/>
      <point x="1024" y="1287" type="curve" smooth="yes"/>
      <point x="872" y="1287"/>
      <point x="773" y="1278"/>
      <point x="675" y="1253" type="curve"/>
      <point x="604" y="1154"/>
      <point x="530" y="1032"/>
      <point x="451" y="885" type="curve" smooth="yes"/>
      <point x="391.394" y="774.859"/>
      <point x="361.592" y="677.731"/>
      <point x="361.592" y="595.247" type="curve" smooth="yes"/>
      <point x="361.592" y="550.418"/>
      <point x="370.394" y="509.915"/>
      <point x="388" y="474" type="curve" smooth="yes"/>
      <point x="430.855" y="384.907"/>
      <point x="545.141" y="311.706"/>
      <point x="685" y="268" type="curve"/>
      <point x="791.812" y="374.812"/>
      <point x="892.818" y="493.921"/>
      <point x="982" y="618" type="curve"/>
      <point x="850.82" y="636.74"/>
      <point x="721" y="699.951"/>
    </contour>
    <contour>
      <point x="1049" y="949" type="curve" smooth="yes"/>
      <point x="991" y="949"/>
      <point x="936" y="933"/>
      <point x="895" y="903" type="curve" smooth="yes"/>
      <point x="864" y="880"/>
      <point x="844" y="850"/>
      <point x="844" y="826" type="curve" smooth="yes"/>
      <point x="844" y="807"/>
      <point x="858" y="789"/>
      <point x="885" y="774" type="curve" smooth="yes"/>
      <point x="914" y="758"/>
      <point x="966" y="739"/>
      <point x="1062" y="735" type="curve"/>
      <point x="1105.77" y="800.649"/>
      <point x="1147.02" y="874.034"/>
      <point x="1180" y="940" type="curve"/>
      <point x="1136" y="946"/>
      <point x="1091" y="949"/>
    </contour>
    <contour>
      <point x="1305" y="915" type="curve"/>
      <point x="1276" y="856"/>
      <point x="1244" y="797"/>
      <point x="1208" y="737" type="curve"/>
      <point x="1353.4" y="743.609"/>
      <point x="1468.39" y="761.522"/>
      <point x="1563" y="797" type="curve"/>
      <point x="1491.35" y="849.793"/>
      <point x="1404.01" y="887.497"/>
    </contour>
    <contour>
      <point x="1423" y="1241" type="curve"/>
      <point x="1407.79" y="1167.12"/>
      <point x="1383.39" y="1095.57"/>
      <point x="1356" y="1028" type="curve"/>
      <point x="1481.38" y="992.42"/>
      <point x="1592.69" y="935.983"/>
      <point x="1679" y="862" type="curve"/>
      <point x="1690" y="872"/>
      <point x="1699" y="881"/>
      <point x="1707" y="891" type="curve" smooth="yes"/>
      <point x="1733.67" y="925"/>
      <point x="1739" y="956.778"/>
      <point x="1739" y="975.963" type="curve" smooth="yes"/>
      <point x="1739" y="992.522"/>
      <point x="1737.17" y="993.494"/>
      <point x="1734" y="1003" type="curve"/>
      <point x="1735" y="1011" type="line"/>
      <point x="1735" y="1067"/>
      <point x="1697" y="1147"/>
      <point x="1516" y="1212" type="curve" smooth="yes"/>
      <point x="1487" y="1223"/>
      <point x="1456" y="1232"/>
    </contour>
    <contour>
      <point x="1317" y="1388" type="curve"/>
      <point x="1312.54" y="1517.42"/>
      <point x="1255.03" y="1577"/>
      <point x="1121" y="1577" type="curve" smooth="yes"/>
      <point x="1059" y="1577"/>
      <point x="973" y="1564"/>
      <point x="861" y="1466" type="curve" smooth="yes"/>
      <point x="838" y="1446"/>
      <point x="816" y="1424"/>
      <point x="793" y="1399" type="curve"/>
      <point x="859" y="1407"/>
      <point x="933" y="1410"/>
      <point x="1024" y="1410" type="curve" smooth="yes"/>
      <point x="1124" y="1410"/>
      <point x="1224" y="1402"/>
    </contour>
  </outline>
</glyph>
<glyph name="kala" format="1">
  <advance width="2048"/>
  <unicode hex="E614"/>
  <outline>
    <contour>
      <point x="432" y="852" type="curve"/>
      <point x="619.362" y="1122.82"/>
      <point x="907.698" y="1453"/>
      <point x="1275" y="1453" type="curve" smooth="yes"/>
      <point x="1650.42" y="1453"/>
      <point x="1886.27" y="1260.57"/>
      <point x="1974" y="967" type="curve" smooth="yes"/>
      <point x="1996" y="896"/>
      <point x="2007" y="819"/>
      <point x="2007" y="747" type="curve" smooth="yes"/>
      <point x="2007" y="669"/>
      <point x="1992" y="470"/>
      <point x="1858" y="297" type="curve" smooth="yes"/>
      <point x="1736.25" y="139.318"/>
      <point x="1543.32" y="41"/>
      <point x="1275" y="41" type="curve" smooth="yes"/>
      <point x="824.477" y="41"/>
      <point x="594.543" y="310.132"/>
      <point x="422" y="609" type="curve"/>
      <point x="258" y="334"/>
      <point x="160" y="83"/>
      <point x="159" y="80" type="curve"/>
      <point x="44" y="125" type="line"/>
      <point x="49" y="137"/>
      <point x="162" y="427"/>
      <point x="355" y="734" type="curve"/>
      <point x="247.556" y="938.145"/>
      <point x="156.296" y="1153.83"/>
      <point x="47" y="1363" type="curve"/>
      <point x="156" y="1420" type="line"/>
      <point x="255.247" y="1229.92"/>
      <point x="336.866" y="1039.76"/>
    </contour>
    <contour>
      <point x="497" y="728" type="curve"/>
      <point x="607.707" y="522.92"/>
      <point x="744.365" y="332.818"/>
      <point x="942" y="234" type="curve" smooth="yes"/>
      <point x="1041" y="187"/>
      <point x="1150" y="164"/>
      <point x="1275" y="164" type="curve" smooth="yes"/>
      <point x="1581.09" y="164"/>
      <point x="1780.74" y="312.435"/>
      <point x="1857" y="562" type="curve" smooth="yes"/>
      <point x="1879" y="638"/>
      <point x="1884" y="705"/>
      <point x="1884" y="747" type="curve" smooth="yes"/>
      <point x="1884" y="789"/>
      <point x="1879" y="855"/>
      <point x="1856" y="932" type="curve" smooth="yes"/>
      <point x="1784.39" y="1177.5"/>
      <point x="1588.81" y="1330"/>
      <point x="1275" y="1330" type="curve" smooth="yes"/>
      <point x="1137" y="1330"/>
      <point x="993" y="1268"/>
      <point x="848" y="1144" type="curve" smooth="yes"/>
      <point x="731" y="1044"/>
      <point x="612" y="904"/>
    </contour>
    <contour>
      <point x="1275" y="750" type="move" name="Anchor"/>
    </contour>
  </outline>
</glyph>
<glyph name="kasi" format="1">
  <advance width="2048"/>
  <unicode hex="E617"/>
  <outline>
    <contour>
      <point x="1609" y="1356" type="curve" smooth="yes"/>
      <point x="1558.86" y="1356"/>
      <point x="1516.81" y="1340.88"/>
      <point x="1476" y="1330" type="curve" smooth="yes"/>
      <point x="1324.06" y="1275.73"/>
      <point x="1226.47" y="1167.17"/>
      <point x="1163" y="1025" type="curve" smooth="yes"/>
      <point x="1158" y="1012"/>
      <point x="1153" y="999"/>
      <point x="1148" y="986" type="curve"/>
      <point x="1238.32" y="960.194"/>
      <point x="1351.2" y="935.641"/>
      <point x="1462.9" y="935.641" type="curve" smooth="yes"/>
      <point x="1510.77" y="935.641"/>
      <point x="1558.43" y="940.149"/>
      <point x="1604" y="951" type="curve" smooth="yes"/>
      <point x="1614" y="954"/>
      <point x="1624" y="957"/>
      <point x="1634" y="960" type="curve" smooth="yes"/>
      <point x="1784.3" y="1005.09"/>
      <point x="1869.16" y="1140.17"/>
      <point x="1886" y="1317" type="curve" smooth="yes"/>
      <point x="1886" y="1323"/>
      <point x="1886" y="1328"/>
      <point x="1887" y="1334" type="curve"/>
      <point x="1804.27" y="1351.99"/>
      <point x="1707.21" y="1356"/>
    </contour>
    <contour>
      <point x="573" y="935" type="curve" smooth="yes"/>
      <point x="697.159" y="935"/>
      <point x="800.256" y="957.886"/>
      <point x="901" y="986" type="curve"/>
      <point x="821.448" y="1192.83"/>
      <point x="698.016" y="1356"/>
      <point x="447" y="1356" type="curve" smooth="yes"/>
      <point x="342.528" y="1356"/>
      <point x="253.925" y="1353.55"/>
      <point x="164" y="1334" type="curve"/>
      <point x="164" y="1088.56"/>
      <point x="326.352" y="935"/>
    </contour>
    <contour>
      <point x="371.128" y="1474.17" type="curve" smooth="yes"/>
      <point x="748.407" y="1474.17"/>
      <point x="942.773" y="1253.42"/>
      <point x="1024" y="961" type="curve"/>
      <point x="1086.32" y="1164.97"/>
      <point x="1199.09" y="1341.21"/>
      <point x="1388" y="1419" type="curve" smooth="yes"/>
      <point x="1419.89" y="1434.94"/>
      <point x="1455.21" y="1444.07"/>
      <point x="1491" y="1456" type="curve" smooth="yes"/>
      <point x="1500" y="1458"/>
      <point x="1509" y="1460"/>
      <point x="1518" y="1462" type="curve" smooth="yes"/>
      <point x="1567.43" y="1474.36"/>
      <point x="1620.96" y="1479.38"/>
      <point x="1675.16" y="1479.38" type="curve" smooth="yes"/>
      <point x="1776.2" y="1479.38"/>
      <point x="1879.55" y="1461.93"/>
      <point x="1963" y="1442" type="curve" smooth="yes"/>
      <point x="2007" y="1431" type="line"/>
      <point x="2010" y="1386" type="line" smooth="yes"/>
      <point x="2010" y="1379.54"/>
      <point x="2011.58" y="1369.75"/>
      <point x="2010" y="1365" type="curve" smooth="yes"/>
      <point x="2010" y="1345" type="line" smooth="yes"/>
      <point x="2009" y="1332"/>
      <point x="2008" y="1319"/>
      <point x="2007" y="1306" type="curve" smooth="yes"/>
      <point x="1983.68" y="1002.83"/>
      <point x="1794.59" y="819"/>
      <point x="1477" y="819" type="curve" smooth="yes"/>
      <point x="1339.23" y="819"/>
      <point x="1222.85" y="845.871"/>
      <point x="1114" y="879" type="curve"/>
      <point x="1098.05" y="820.533"/>
      <point x="1080.99" y="754.093"/>
      <point x="1080.99" y="689.946" type="curve" smooth="yes"/>
      <point x="1080.99" y="689.297"/>
      <point x="1081" y="688.648"/>
      <point x="1081" y="688" type="curve" smooth="yes"/>
      <point x="1085" y="-51" type="line"/>
      <point x="963" y="-51" type="line"/>
      <point x="967" y="687" type="line"/>
      <point x="960.938" y="751.26"/>
      <point x="950.288" y="819.276"/>
      <point x="934" y="879" type="curve"/>
      <point x="818.604" y="843.099"/>
      <point x="682.909" y="821"/>
      <point x="533" y="821" type="curve" smooth="yes"/>
      <point x="230.712" y="821"/>
      <point x="74.1347" y="1036.17"/>
      <point x="43" y="1306" type="curve" smooth="yes"/>
      <point x="42" y="1319"/>
      <point x="41" y="1332"/>
      <point x="41" y="1345" type="curve" smooth="yes"/>
      <point x="41" y="1386" type="line"/>
      <point x="44" y="1431" type="line"/>
      <point x="87" y="1442" type="line" smooth="yes"/>
      <point x="169.082" y="1461.31"/>
      <point x="271.744" y="1474.17"/>
    </contour>
  </outline>
</glyph>
<glyph name="ken" format="1">
  <advance width="2048"/>
  <unicode hex="E618"/>
  <outline>
    <contour>
      <point x="1124" y="768" type="curve"/>
      <point x="1366.3" y="687.235"/>
      <point x="1566.89" y="504.374"/>
      <point x="1673" y="288" type="curve" smooth="yes"/>
      <point x="1725" y="179"/>
      <point x="1751" y="65"/>
      <point x="1751" y="-51" type="curve"/>
      <point x="1628" y="-51" type="line"/>
      <point x="1628" y="179.12"/>
      <point x="1511.55" y="356.347"/>
      <point x="1379" y="477" type="curve" smooth="yes"/>
      <point x="1234.2" y="605.509"/>
      <point x="1023.95" y="707"/>
      <point x="768" y="707" type="curve" smooth="yes"/>
      <point x="471" y="707" type="line"/>
      <point x="471" y="-51" type="line"/>
      <point x="348" y="-51" type="line"/>
      <point x="348" y="1587" type="line"/>
      <point x="471" y="1587" type="line"/>
      <point x="471" y="829" type="line"/>
      <point x="768" y="829" type="line" smooth="yes"/>
      <point x="1023.7" y="829"/>
      <point x="1234.37" y="930.641"/>
      <point x="1379" y="1059" type="curve" smooth="yes"/>
      <point x="1511.75" y="1179.83"/>
      <point x="1628" y="1356.61"/>
      <point x="1628" y="1587" type="curve"/>
      <point x="1751" y="1587" type="line"/>
      <point x="1751" y="1318.76"/>
      <point x="1615.79" y="1107.32"/>
      <point x="1461" y="968" type="curve" smooth="yes"/>
      <point x="1364.61" y="881.139"/>
      <point x="1252.04" y="810.679"/>
    </contour>
    <contour>
      <point x="960" y="1300" type="move" name="Anchor"/>
    </contour>
  </outline>
</glyph>
<glyph name="kili" format="1">
  <advance width="2048"/>
  <unicode hex="E61A"/>
  <outline>
    <contour>
      <point x="1915.72" y="1027.36" type="curve" smooth="yes"/>
      <point x="1920.02" y="1014.45"/>
      <point x="1924.01" y="999.355"/>
      <point x="1928.65" y="985.167" type="curve" smooth="yes"/>
      <point x="1931.9" y="969.096"/>
      <point x="1935.39" y="953.311"/>
      <point x="1938.22" y="940.591" type="curve" smooth="yes"/>
      <point x="1940.36" y="922.804"/>
      <point x="1943.4" y="909.177"/>
      <point x="1944.8" y="896.55" type="curve" smooth="yes"/>
      <point x="1946.43" y="881.966"/>
      <point x="1948.19" y="865.954"/>
      <point x="1949.7" y="850.974" type="curve" smooth="yes"/>
      <point x="1949.7" y="842.45" type="line"/>
      <point x="1949.7" y="830.55" type="line"/>
      <point x="1949.7" y="823.75" type="line"/>
      <point x="1949.7" y="818.65" type="line"/>
      <point x="1949.7" y="808.45" type="line"/>
      <point x="1949.7" y="801.65" type="line"/>
      <point x="1949.7" y="798.878" type="line"/>
      <point x="1950.16" y="796.143" type="line"/>
      <point x="1951.4" y="788.677" type="line"/>
      <point x="1951.4" y="774.45" type="line" smooth="yes"/>
      <point x="1951.4" y="766.572"/>
      <point x="1949.8" y="752.156"/>
      <point x="1949.71" y="740.015" type="curve" smooth="yes"/>
      <point x="1947.93" y="715.233"/>
      <point x="1946.34" y="694.585"/>
      <point x="1944.73" y="672.099" type="curve" smooth="yes"/>
      <point x="1939.71" y="627.326"/>
      <point x="1931.65" y="583.862"/>
      <point x="1921.63" y="540.45" type="curve" smooth="yes"/>
      <point x="1911.67" y="495.632"/>
      <point x="1898.98" y="454.314"/>
      <point x="1882.03" y="410.245" type="curve" smooth="yes"/>
      <point x="1866.99" y="366.811"/>
      <point x="1848.13" y="325.966"/>
      <point x="1824.91" y="286.175" type="curve" smooth="yes"/>
      <point x="1801.82" y="244.939"/>
      <point x="1776.11" y="207.983"/>
      <point x="1746.47" y="171.764" type="curve" smooth="yes"/>
      <point x="1717.36" y="136.182"/>
      <point x="1684.5" y="103.289"/>
      <point x="1648.67" y="72.3472" type="curve" smooth="yes"/>
      <point x="1577.64" y="12.6217"/>
      <point x="1496.12" y="-31.5526"/>
      <point x="1409.1" y="-62.7496" type="curve" smooth="yes"/>
      <point x="1323.84" y="-93.9011"/>
      <point x="1232.85" y="-112.071"/>
      <point x="1143.98" y="-120.368" type="curve" smooth="yes"/>
      <point x="1121.07" y="-122.127"/>
      <point x="1098.98" y="-123.706"/>
      <point x="1077.52" y="-125.35" type="curve" smooth="yes"/>
      <point x="1060.1" y="-125.35" type="line"/>
      <point x="1043.1" y="-125.35" type="line"/>
      <point x="1027.8" y="-125.35" type="line"/>
      <point x="1009.1" y="-125.35" type="line" smooth="yes"/>
      <point x="964.666" y="-125.35"/>
      <point x="920.576" y="-122.108"/>
      <point x="874.795" y="-117.021" type="curve" smooth="yes"/>
      <point x="785.049" y="-108.711"/>
      <point x="695.438" y="-89.0928"/>
      <point x="610.143" y="-54.6462" type="curve" smooth="yes"/>
      <point x="523.286" y="-20.2314"/>
      <point x="441.747" y="28.8027"/>
      <point x="373.735" y="90.3379" type="curve" smooth="yes"/>
      <point x="355.782" y="106.658"/>
      <point x="339.608" y="122.832"/>
      <point x="323.288" y="140.784" type="curve" smooth="yes"/>
      <point x="322.752" y="141.374" type="line"/>
      <point x="322.188" y="141.938" type="line" smooth="yes"/>
      <point x="306.714" y="157.412"/>
      <point x="292.601" y="174.583"/>
      <point x="277.556" y="194.643" type="curve" smooth="yes"/>
      <point x="250.173" y="230.079"/>
      <point x="225.171" y="271.656"/>
      <point x="202.183" y="312.665" type="curve" smooth="yes"/>
      <point x="159.369" y="395.213"/>
      <point x="130.155" y="481.747"/>
      <point x="112.086" y="570.041" type="curve" smooth="yes"/>
      <point x="103.515" y="616.456"/>
      <point x="97.2148" y="659.243"/>
      <point x="93.9083" y="705.528" type="curve" smooth="yes"/>
      <point x="92.2022" y="727.705"/>
      <point x="90.5996" y="750.467"/>
      <point x="90.5996" y="772.75" type="curve" smooth="yes"/>
      <point x="90.5996" y="791.45" type="line"/>
      <point x="90.5996" y="801.65" type="line"/>
      <point x="90.5996" y="805.05" type="line"/>
      <point x="90.5996" y="810.15" type="line"/>
      <point x="90.5996" y="815.25" type="line"/>
      <point x="90.5996" y="823.75" type="line" smooth="yes"/>
      <point x="90.5996" y="828.216"/>
      <point x="90.7472" y="831.773"/>
      <point x="90.834" y="832.617" type="curve" smooth="yes"/>
      <point x="92.1129" y="836.453" type="line"/>
      <point x="92.2799" y="841.296" type="line" smooth="yes"/>
      <point x="93.9103" y="888.572"/>
      <point x="100.191" y="934.307"/>
      <point x="113.338" y="981.963" type="curve" smooth="yes"/>
      <point x="124.78" y="1029.37"/>
      <point x="141.732" y="1070.99"/>
      <point x="166.391" y="1115.37" type="curve" smooth="yes"/>
      <point x="188.622" y="1156.66"/>
      <point x="219.332" y="1197.01"/>
      <point x="252.763" y="1232.14" type="curve" smooth="yes"/>
      <point x="289.308" y="1268.58"/>
      <point x="325.336" y="1296.96"/>
      <point x="370.232" y="1319.41" type="curve" smooth="yes"/>
      <point x="414.754" y="1344.15"/>
      <point x="459.594" y="1361.05"/>
      <point x="507.369" y="1370.6" type="curve" smooth="yes"/>
      <point x="531.112" y="1375.35"/>
      <point x="555.014" y="1378.51"/>
      <point x="578.424" y="1380.15" type="curve" smooth="yes"/>
      <point x="587.5" y="1380.15" type="line"/>
      <point x="590.271" y="1380.15" type="line"/>
      <point x="593.005" y="1380.61" type="line"/>
      <point x="600.471" y="1381.85" type="line"/>
      <point x="602.8" y="1381.85" type="line"/>
      <point x="606.2" y="1381.85" type="line"/>
      <point x="614.7" y="1381.85" type="line"/>
      <point x="623.794" y="1381.85" type="line"/>
      <point x="627.193" y="1380.15" type="line"/>
      <point x="635.1" y="1380.15" type="line"/>
      <point x="652.675" y="1380.15" type="line" smooth="yes"/>
      <point x="677.941" y="1378.38"/>
      <point x="699.639" y="1375.42"/>
      <point x="723.729" y="1370.6" type="curve" smooth="yes"/>
      <point x="748.121" y="1365.72"/>
      <point x="772.666" y="1359.4"/>
      <point x="794.334" y="1349.29" type="curve" smooth="yes"/>
      <point x="795.186" y="1348.9" type="line"/>
      <point x="796.058" y="1348.55" type="line" smooth="yes"/>
      <point x="818.542" y="1339.55"/>
      <point x="840.877" y="1326.86"/>
      <point x="863.267" y="1312.51" type="curve" smooth="yes"/>
      <point x="882.047" y="1299.89"/>
      <point x="896.479" y="1286.85"/>
      <point x="913.589" y="1271.45" type="curve" smooth="yes"/>
      <point x="969.5" y="1221.13" type="line"/>
      <point x="969.5" y="1296.35" type="line"/>
      <point x="969.5" y="1337.15" type="line" smooth="yes"/>
      <point x="969.5" y="1359.26"/>
      <point x="969.521" y="1380.44"/>
      <point x="971.115" y="1402.76" type="curve" smooth="yes"/>
      <point x="972.8" y="1426.35"/>
      <point x="974.586" y="1450.15"/>
      <point x="977.622" y="1473.19" type="curve" smooth="yes"/>
      <point x="985.832" y="1520.46"/>
      <point x="999.184" y="1569.53"/>
      <point x="1016.04" y="1611.1" type="curve" smooth="yes"/>
      <point x="1025.61" y="1631.74"/>
      <point x="1036.75" y="1652.48"/>
      <point x="1046.47" y="1670.31" type="curve" smooth="yes"/>
      <point x="1058.68" y="1689.39"/>
      <point x="1068.54" y="1703.38"/>
      <point x="1079.74" y="1717.78" type="curve" smooth="yes"/>
      <point x="1081.78" y="1720.4" type="line"/>
      <point x="1083.26" y="1723.36" type="line" smooth="yes"/>
      <point x="1083.38" y="1723.59"/>
      <point x="1086.31" y="1728.54"/>
      <point x="1087.17" y="1729.99" type="curve" smooth="yes"/>
      <point x="1090.09" y="1733.06"/>
      <point x="1092.7" y="1736.17"/>
      <point x="1095.75" y="1740.49" type="curve" smooth="yes"/>
      <point x="1100.81" y="1746.65"/>
      <point x="1100.48" y="1746.56"/>
      <point x="1100.88" y="1747.06" type="curve" smooth="yes"/>
      <point x="1104.63" y="1750.81" type="line"/>
      <point x="1105.5" y="1752.54" type="line" smooth="yes"/>
      <point x="1107.79" y="1754.94"/>
      <point x="1108.83" y="1756.3"/>
      <point x="1112.02" y="1760.49" type="curve" smooth="yes"/>
      <point x="1120.43" y="1770.32"/>
      <point x="1128.3" y="1778.91"/>
      <point x="1132.03" y="1781.89" type="curve" smooth="yes"/>
      <point x="1133.52" y="1783.08" type="line"/>
      <point x="1221.2" y="1697.57" type="line"/>
      <point x="1213.51" y="1690.22"/>
      <point x="1207.59" y="1682.66"/>
      <point x="1203.37" y="1677.39" type="curve" smooth="yes"/>
      <point x="1201.2" y="1675.08"/>
      <point x="1199.02" y="1672.37"/>
      <point x="1198.83" y="1672.13" type="curve" smooth="yes"/>
      <point x="1194.25" y="1668.23"/>
      <point x="1191.17" y="1664.06"/>
      <point x="1189.77" y="1662.14" type="curve" smooth="yes"/>
      <point x="1184.73" y="1659.62" type="line"/>
      <point x="1179.84" y="1649.83" type="line" smooth="yes"/>
      <point x="1179.61" y="1649.47"/>
      <point x="1178" y="1647.09"/>
      <point x="1175.9" y="1643.6" type="curve" smooth="yes"/>
      <point x="1151.84" y="1609.92" type="line"/>
      <point x="1151.24" y="1609.08" type="line"/>
      <point x="1150.69" y="1608.2" type="line" smooth="yes"/>
      <point x="1141.36" y="1593.27"/>
      <point x="1133.19" y="1576.79"/>
      <point x="1126.69" y="1562.24" type="curve" smooth="yes"/>
      <point x="1118.66" y="1546.01"/>
      <point x="1112.25" y="1529.83"/>
      <point x="1106.36" y="1512.16" type="curve" smooth="yes"/>
      <point x="1100.32" y="1492.05"/>
      <point x="1096.96" y="1474.69"/>
      <point x="1093.44" y="1455.34" type="curve" smooth="yes"/>
      <point x="1089.7" y="1434.76"/>
      <point x="1087.91" y="1414.72"/>
      <point x="1086.23" y="1394.46" type="curve" smooth="yes"/>
      <point x="1084.53" y="1375.84"/>
      <point x="1082.7" y="1354.36"/>
      <point x="1082.7" y="1333.75" type="curve" smooth="yes"/>
      <point x="1082.7" y="1322.94"/>
      <point x="1081" y="1309.34"/>
      <point x="1081" y="1292.95" type="curve" smooth="yes"/>
      <point x="1081" y="1206.83" type="line"/>
      <point x="1139.19" y="1270.31" type="line" smooth="yes"/>
      <point x="1155.38" y="1287.97"/>
      <point x="1174.66" y="1302.97"/>
      <point x="1197.45" y="1317.62" type="curve" smooth="yes"/>
      <point x="1226.05" y="1336.69"/>
      <point x="1254.46" y="1350.11"/>
      <point x="1285.86" y="1359.53" type="curve" smooth="yes"/>
      <point x="1316.28" y="1369.14"/>
      <point x="1347.95" y="1375.46"/>
      <point x="1378.02" y="1378.63" type="curve" smooth="yes"/>
      <point x="1392.09" y="1380.03"/>
      <point x="1408.29" y="1380.25"/>
      <point x="1425.53" y="1381.85" type="curve" smooth="yes"/>
      <point x="1434.1" y="1381.85" type="line"/>
      <point x="1447.7" y="1381.85" type="line" smooth="yes"/>
      <point x="1450.78" y="1381.85"/>
      <point x="1459.27" y="1380.34"/>
      <point x="1470.64" y="1380.15" type="curve" smooth="yes"/>
      <point x="1502.32" y="1378.5"/>
      <point x="1531.62" y="1373.84"/>
      <point x="1561.57" y="1365.95" type="curve" smooth="yes"/>
      <point x="1592.83" y="1357.73"/>
      <point x="1622.7" y="1348.1"/>
      <point x="1647.92" y="1334.74" type="curve" smooth="yes"/>
      <point x="1648.94" y="1334.2" type="line"/>
      <point x="1649.99" y="1333.74" type="line" smooth="yes"/>
      <point x="1678.66" y="1321"/>
      <point x="1704.26" y="1306"/>
      <point x="1730.75" y="1286.14" type="curve" smooth="yes"/>
      <point x="1755.58" y="1269.07"/>
      <point x="1777.79" y="1246.98"/>
      <point x="1800.97" y="1223.8" type="curve" smooth="yes"/>
      <point x="1822.38" y="1200.67"/>
      <point x="1840.07" y="1178.47"/>
      <point x="1855.95" y="1151.48" type="curve" smooth="yes"/>
      <point x="1872.16" y="1125.54"/>
      <point x="1887.11" y="1097.25"/>
      <point x="1899.38" y="1071.31" type="curve" smooth="yes"/>
      <point x="1905.19" y="1054.32"/>
      <point x="1911.45" y="1040.16"/>
    </contour>
    <contour>
      <point x="1843.3" y="776.15" type="curve" smooth="yes"/>
      <point x="1843.3" y="789.75" type="line"/>
      <point x="1843.3" y="796.55" type="line"/>
      <point x="1843.3" y="801.65" type="line"/>
      <point x="1843.3" y="806.75" type="line"/>
      <point x="1843.3" y="816.95" type="line"/>
      <point x="1843.3" y="818.65" type="line"/>
      <point x="1843.3" y="822.05" type="line"/>
      <point x="1843.3" y="829.958" type="line"/>
      <point x="1841.6" y="833.358" type="line"/>
      <point x="1841.6" y="842.45" type="line" smooth="yes"/>
      <point x="1841.6" y="857.537"/>
      <point x="1839.56" y="871"/>
      <point x="1837.86" y="882.889" type="curve" smooth="yes"/>
      <point x="1834.21" y="908.466"/>
      <point x="1828.84" y="931.597"/>
      <point x="1823.74" y="953.684" type="curve" smooth="yes"/>
      <point x="1823.47" y="954.854" type="line"/>
      <point x="1823.12" y="956.002" type="line" smooth="yes"/>
      <point x="1815.97" y="979.246"/>
      <point x="1806.93" y="1002.67"/>
      <point x="1796.08" y="1024.69" type="curve" smooth="yes"/>
      <point x="1785.48" y="1049.53"/>
      <point x="1773.72" y="1069.23"/>
      <point x="1760.86" y="1087.59" type="curve" smooth="yes"/>
      <point x="1733.06" y="1128.37"/>
      <point x="1696.83" y="1162.44"/>
      <point x="1658.71" y="1188.01" type="curve" smooth="yes"/>
      <point x="1638.2" y="1202.26"/>
      <point x="1620.52" y="1211.7"/>
      <point x="1598.13" y="1222.89" type="curve" smooth="yes"/>
      <point x="1575.74" y="1233.07"/>
      <point x="1555.17" y="1239.84"/>
      <point x="1532.03" y="1245.62" type="curve" smooth="yes"/>
      <point x="1508.03" y="1251.16"/>
      <point x="1486.32" y="1254.79"/>
      <point x="1462.17" y="1256.65" type="curve" smooth="yes"/>
      <point x="1460.89" y="1256.75" type="line"/>
      <point x="1459.6" y="1256.75" type="line"/>
      <point x="1442.6" y="1256.75" type="line"/>
      <point x="1435.8" y="1256.75" type="line"/>
      <point x="1425.6" y="1256.75" type="line" smooth="yes"/>
      <point x="1415.99" y="1256.75"/>
      <point x="1400.54" y="1256.56"/>
      <point x="1387.87" y="1254.85" type="curve" smooth="yes"/>
      <point x="1365.8" y="1252.96"/>
      <point x="1342.78" y="1249.45"/>
      <point x="1321.59" y="1243.67" type="curve" smooth="yes"/>
      <point x="1298.73" y="1237.44"/>
      <point x="1279.67" y="1227.69"/>
      <point x="1262.72" y="1219.21" type="curve" smooth="yes"/>
      <point x="1261.57" y="1218.64" type="line"/>
      <point x="1260.47" y="1217.98" type="line" smooth="yes"/>
      <point x="1250.5" y="1212"/>
      <point x="1241.32" y="1205.06"/>
      <point x="1233.38" y="1198.73" type="curve" smooth="yes"/>
      <point x="1225.14" y="1192.52"/>
      <point x="1216.73" y="1185.86"/>
      <point x="1208.11" y="1177.24" type="curve" smooth="yes"/>
      <point x="1192.2" y="1161.33"/>
      <point x="1174.57" y="1141.51"/>
      <point x="1160.26" y="1120.23" type="curve" smooth="yes"/>
      <point x="1145.14" y="1100.07"/>
      <point x="1129.25" y="1078.74"/>
      <point x="1113.83" y="1054.85" type="curve" smooth="yes"/>
      <point x="1097.74" y="1031.56"/>
      <point x="1083.67" y="1009.8"/>
      <point x="1066.83" y="989.889" type="curve" smooth="yes"/>
      <point x="1066.28" y="989.241" type="line"/>
      <point x="1065.76" y="988.566" type="line"/>
      <point x="1020.22" y="928.853" type="line"/>
      <point x="989.037" y="984.603" type="line"/>
      <point x="987.881" y="986.669" type="line"/>
      <point x="986.447" y="988.552" type="line" smooth="yes"/>
      <point x="960.52" y="1022.58"/>
      <point x="936.382" y="1060.31"/>
      <point x="912.215" y="1093.19" type="curve" smooth="yes"/>
      <point x="898.969" y="1112.05"/>
      <point x="888.236" y="1125.79"/>
      <point x="878.873" y="1139.83" type="curve" smooth="yes"/>
      <point x="877.656" y="1141.66" type="line"/>
      <point x="876.211" y="1143.31" type="line" smooth="yes"/>
      <point x="863.126" y="1158.26"/>
      <point x="851.461" y="1169.87"/>
      <point x="838.549" y="1182.78" type="curve" smooth="yes"/>
      <point x="811.974" y="1207.45"/>
      <point x="784.035" y="1225.51"/>
      <point x="751.032" y="1235.85" type="curve" smooth="yes"/>
      <point x="731.659" y="1244.79"/>
      <point x="716.729" y="1247.55"/>
      <point x="701.867" y="1250.85" type="curve" smooth="yes"/>
      <point x="699.918" y="1251.29" type="line"/>
      <point x="697.931" y="1251.48" type="line"/>
      <point x="646.933" y="1256.58" type="line"/>
      <point x="645.271" y="1256.75" type="line"/>
      <point x="643.6" y="1256.75" type="line"/>
      <point x="630" y="1256.75" type="line"/>
      <point x="623.2" y="1256.75" type="line"/>
      <point x="618.1" y="1256.75" type="line"/>
      <point x="609.6" y="1256.75" type="line"/>
      <point x="606.2" y="1256.75" type="line"/>
      <point x="602.8" y="1256.75" type="line"/>
      <point x="597.7" y="1256.75" type="line"/>
      <point x="593.576" y="1256.75" type="line"/>
      <point x="589.574" y="1255.75" type="line"/>
      <point x="586.55" y="1254.99" type="line"/>
      <point x="565.465" y="1254.36"/>
      <point x="549.611" y="1250.86"/>
      <point x="533.164" y="1247.57" type="curve" smooth="yes"/>
      <point x="497.087" y="1239.97"/>
      <point x="462.981" y="1226.48"/>
      <point x="430.443" y="1208.51" type="curve" smooth="yes"/>
      <point x="396.668" y="1190.46"/>
      <point x="370.057" y="1168.78"/>
      <point x="344.512" y="1143.24" type="curve" smooth="yes"/>
      <point x="317.334" y="1116.06"/>
      <point x="297.301" y="1084.64"/>
      <point x="279.826" y="1054.94" type="curve" smooth="yes"/>
      <point x="279.434" y="1054.27" type="line"/>
      <point x="279.073" y="1053.59" type="line" smooth="yes"/>
      <point x="244.363" y="987.818"/>
      <point x="224.455" y="913.305"/>
      <point x="220.836" y="835.507" type="curve" smooth="yes"/>
      <point x="220.8" y="834.729" type="line"/>
      <point x="220.8" y="833.95" type="line"/>
      <point x="220.8" y="820.35" type="line"/>
      <point x="220.8" y="813.55" type="line"/>
      <point x="220.8" y="810.15" type="line"/>
      <point x="220.8" y="808.45" type="line"/>
      <point x="220.8" y="801.65" type="line"/>
      <point x="220.8" y="796.55" type="line"/>
      <point x="220.8" y="789.75" type="line"/>
      <point x="220.8" y="776.15" type="line" smooth="yes"/>
      <point x="220.8" y="757.457"/>
      <point x="220.75" y="736.082"/>
      <point x="222.632" y="715.382" type="curve" smooth="yes"/>
      <point x="226.088" y="675.637"/>
      <point x="231.521" y="634.39"/>
      <point x="240.237" y="595.75" type="curve" smooth="yes"/>
      <point x="256.294" y="515.881"/>
      <point x="280.947" y="440.607"/>
      <point x="318.144" y="371.264" type="curve" smooth="yes"/>
      <point x="354.72" y="300.212"/>
      <point x="401.285" y="238.187"/>
      <point x="457.921" y="185.205" type="curve" smooth="yes"/>
      <point x="516.301" y="134.123"/>
      <point x="583.184" y="93.8079"/>
      <point x="656.268" y="63.5049" type="curve" smooth="yes"/>
      <point x="729.544" y="33.1221"/>
      <point x="809.666" y="15.5412"/>
      <point x="889.518" y="6.78511" type="curve" smooth="yes"/>
      <point x="931.815" y="1.33129"/>
      <point x="970.563" y="-0.25"/>
      <point x="1010.8" y="-0.25" type="curve" smooth="yes"/>
      <point x="1026.1" y="-0.25" type="line"/>
      <point x="1041.4" y="-0.25" type="line"/>
      <point x="1056.7" y="-0.25" type="line"/>
      <point x="1072" y="-0.25" type="line" smooth="yes"/>
      <point x="1092.64" y="-0.25"/>
      <point x="1114.04" y="1.57932"/>
      <point x="1132.74" y="3.27925" type="curve" smooth="yes"/>
      <point x="1214.16" y="10.2085"/>
      <point x="1294.37" y="24.5171"/>
      <point x="1368.42" y="50.8416" type="curve" smooth="yes"/>
      <point x="1446.24" y="76.3117"/>
      <point x="1514.42" y="113.106"/>
      <point x="1575.87" y="161.901" type="curve" smooth="yes"/>
      <point x="1637.63" y="212.768"/>
      <point x="1686.93" y="272.81"/>
      <point x="1728.13" y="340.883" type="curve" smooth="yes"/>
      <point x="1748.02" y="375.25"/>
      <point x="1765.75" y="412.724"/>
      <point x="1779.66" y="449.087" type="curve" smooth="yes"/>
      <point x="1796.3" y="488.153"/>
      <point x="1806.44" y="526.004"/>
      <point x="1816.62" y="563.336" type="curve" smooth="yes"/>
      <point x="1816.85" y="564.179" type="line"/>
      <point x="1817.04" y="565.034" type="line" smooth="yes"/>
      <point x="1825.69" y="604.839"/>
      <point x="1832.68" y="643.243"/>
      <point x="1837.92" y="683.417" type="curve" smooth="yes"/>
      <point x="1838.02" y="684.19" type="line"/>
      <point x="1838.08" y="684.968" type="line" smooth="yes"/>
      <point x="1839.7" y="704.357"/>
      <point x="1841.42" y="725.829"/>
      <point x="1841.59" y="744.551" type="curve" smooth="yes"/>
      <point x="1843.58" y="758.954"/>
      <point x="1843.3" y="766.322"/>
    </contour>
    <contour>
      <point x="1025" y="600" type="move" name="Anchor"/>
    </contour>
  </outline>
</glyph>
<glyph name="ko" format="1">
  <advance width="2048"/>
  <unicode hex="E61C"/>
  <outline>
    <contour>
      <point x="1019" y="1628" type="curve" smooth="yes"/>
      <point x="859.865" y="1628"/>
      <point x="731" y="1518.34"/>
      <point x="731" y="1370" type="curve" smooth="yes"/>
      <point x="731" y="1271.85"/>
      <point x="647.026" y="1206"/>
      <point x="542" y="1206" type="curve" smooth="yes"/>
      <point x="528.548" y="1209.36"/>
      <point x="511.578" y="1209"/>
      <point x="495" y="1209" type="curve" smooth="yes"/>
      <point x="351.25" y="1205.17"/>
      <point x="218" y="1098.86"/>
      <point x="218" y="954" type="curve" smooth="yes"/>
      <point x="218" y="851.091"/>
      <point x="297.681" y="756.667"/>
      <point x="393" y="719" type="curve" smooth="yes"/>
      <point x="452.632" y="695.435"/>
      <point x="489" y="635.264"/>
      <point x="489" y="572" type="curve" smooth="yes"/>
      <point x="489" y="541.426"/>
      <point x="478.091" y="499.091"/>
      <point x="456" y="477" type="curve" smooth="yes"/>
      <point x="423.288" y="436.11"/>
      <point x="392" y="380.077"/>
      <point x="392" y="316" type="curve" smooth="yes"/>
      <point x="392" y="176"/>
      <point x="519" y="61"/>
      <point x="676" y="61" type="curve" smooth="yes"/>
      <point x="768.999" y="61"/>
      <point x="844.383" y="104.383"/>
      <point x="903" y="163" type="curve" smooth="yes"/>
      <point x="935" y="191"/>
      <point x="977" y="206"/>
      <point x="1021" y="206" type="curve" smooth="yes"/>
      <point x="1076.62" y="206"/>
      <point x="1121.51" y="179.492"/>
      <point x="1156" y="145" type="curve" smooth="yes"/>
      <point x="1209" y="92"/>
      <point x="1286" y="61"/>
      <point x="1365" y="61" type="curve" smooth="yes"/>
      <point x="1522" y="61"/>
      <point x="1649" y="176"/>
      <point x="1649" y="316" type="curve" smooth="yes"/>
      <point x="1649" y="381.386"/>
      <point x="1620.74" y="432.569"/>
      <point x="1589" y="473" type="curve" smooth="yes"/>
      <point x="1566.13" y="502.132"/>
      <point x="1555.39" y="537.346"/>
      <point x="1555.39" y="572.128" type="curve" smooth="yes"/>
      <point x="1555.39" y="633.103"/>
      <point x="1588.4" y="692.754"/>
      <point x="1647" y="716" type="curve" smooth="yes"/>
      <point x="1745.46" y="755.061"/>
      <point x="1830" y="846.04"/>
      <point x="1830" y="954" type="curve" smooth="yes"/>
      <point x="1830" y="1097.98"/>
      <point x="1696.8" y="1205.19"/>
      <point x="1554" y="1209" type="curve" smooth="yes"/>
      <point x="1527.54" y="1209"/>
      <point x="1503.47" y="1203"/>
      <point x="1480" y="1203" type="curve" smooth="yes"/>
      <point x="1392" y="1203"/>
      <point x="1317" y="1266"/>
      <point x="1307" y="1349" type="curve"/>
      <point x="1307" y="1392" type="line"/>
      <point x="1296" y="1525"/>
      <point x="1169" y="1628"/>
    </contour>
    <contour>
      <point x="1019" y="1751" type="curve" smooth="yes"/>
      <point x="1247.55" y="1751"/>
      <point x="1430" y="1583.59"/>
      <point x="1430" y="1360" type="curve"/>
      <point x="1435" y="1342"/>
      <point x="1455" y="1327"/>
      <point x="1478" y="1326" type="curve"/>
      <point x="1500.78" y="1331.06"/>
      <point x="1530.92" y="1332"/>
      <point x="1557" y="1332" type="curve" smooth="yes"/>
      <point x="1766.7" y="1326.07"/>
      <point x="1953" y="1163.93"/>
      <point x="1953" y="954" type="curve" smooth="yes"/>
      <point x="1953" y="801.532"/>
      <point x="1843.12" y="652.705"/>
      <point x="1700" y="605" type="curve"/>
      <point x="1686.69" y="596.528"/>
      <point x="1679.26" y="583.396"/>
      <point x="1679.26" y="569.87" type="curve" smooth="yes"/>
      <point x="1679.26" y="559.89"/>
      <point x="1683.3" y="549.696"/>
      <point x="1692" y="541" type="curve" smooth="yes"/>
      <point x="1735.54" y="485.021"/>
      <point x="1772" y="401.376"/>
      <point x="1772" y="316" type="curve" smooth="yes"/>
      <point x="1772" y="214"/>
      <point x="1729" y="119"/>
      <point x="1651" y="47" type="curve" smooth="yes"/>
      <point x="1574" y="-23"/>
      <point x="1473" y="-61"/>
      <point x="1365" y="-61" type="curve" smooth="yes"/>
      <point x="1228.36" y="-61"/>
      <point x="1127.63" y="-0.628197"/>
      <point x="1055" y="72" type="curve" smooth="yes"/>
      <point x="1045.77" y="79.1799"/>
      <point x="1033.13" y="82.7967"/>
      <point x="1020.48" y="82.7967" type="curve" smooth="yes"/>
      <point x="1007.88" y="82.7967"/>
      <point x="995.277" y="79.2154"/>
      <point x="986" y="72" type="curve" smooth="yes"/>
      <point x="985" y="72"/>
      <point x="985" y="71"/>
      <point x="984" y="71" type="curve" smooth="yes"/>
      <point x="921.967" y="-6.5411"/>
      <point x="805.281" y="-61"/>
      <point x="676" y="-61" type="curve" smooth="yes"/>
      <point x="568" y="-61"/>
      <point x="467" y="-23"/>
      <point x="390" y="47" type="curve" smooth="yes"/>
      <point x="312" y="119"/>
      <point x="269" y="214"/>
      <point x="269" y="316" type="curve" smooth="yes"/>
      <point x="269" y="410.652"/>
      <point x="312.948" y="494.935"/>
      <point x="361" y="555" type="curve"/>
      <point x="364.383" y="561.766"/>
      <point x="365.865" y="567.835"/>
      <point x="365.865" y="573.303" type="curve" smooth="yes"/>
      <point x="365.865" y="594.316"/>
      <point x="343.979" y="606.437"/>
      <point x="324" y="615" type="curve" smooth="yes"/>
      <point x="192.78" y="673.32"/>
      <point x="95" y="806.725"/>
      <point x="95" y="954" type="curve" smooth="yes"/>
      <point x="95" y="1164.33"/>
      <point x="282.905" y="1328.04"/>
      <point x="493" y="1332" type="curve" smooth="yes"/>
      <point x="508.971" y="1332"/>
      <point x="527.168" y="1330.51"/>
      <point x="544.263" y="1330.51" type="curve" smooth="yes"/>
      <point x="577.747" y="1330.51"/>
      <point x="607" y="1336.22"/>
      <point x="607" y="1370" type="curve" smooth="yes"/>
      <point x="607" y="1588.49"/>
      <point x="794.859" y="1751"/>
    </contour>
    <contour>
      <point x="1025" y="800" type="move" name="Anchor"/>
    </contour>
  </outline>
</glyph>
<glyph name="kute" format="1">
  <advance width="2048"/>
  <unicode hex="E620"/>
  <outline>
    <contour>
      <point x="973" y="1700" type="curve" smooth="yes"/>
      <point x="1526.73" y="1700"/>
      <point x="1802" y="1466.5"/>
      <point x="1802" y="922" type="curve" smooth="yes"/>
      <point x="1802" y="665.845"/>
      <point x="1729.3" y="490.354"/>
      <point x="1610" y="339" type="curve" smooth="yes"/>
      <point x="1472" y="167"/>
      <point x="1255" y="21"/>
      <point x="945" y="-108" type="curve"/>
      <point x="898" y="6" type="line"/>
      <point x="1188" y="126"/>
      <point x="1389" y="261"/>
      <point x="1514" y="416" type="curve" smooth="yes"/>
      <point x="1627" y="557"/>
      <point x="1679" y="718"/>
      <point x="1679" y="922" type="curve" smooth="yes"/>
      <point x="1679" y="1399.29"/>
      <point x="1459.17" y="1577"/>
      <point x="973" y="1577" type="curve" smooth="yes"/>
      <point x="526.523" y="1577"/>
      <point x="369" y="1318.93"/>
      <point x="369" y="870" type="curve"/>
      <point x="246" y="870" type="line"/>
      <point x="246" y="1279.02"/>
      <point x="368.481" y="1537.06"/>
      <point x="652" y="1648" type="curve" smooth="yes"/>
      <point x="743" y="1682"/>
      <point x="851" y="1700"/>
    </contour>
    <contour>
      <point x="808" y="555" type="line"/>
      <point x="905.4" y="653.833"/>
      <point x="962.25" y="768.187"/>
      <point x="962.25" y="945.625" type="curve" smooth="yes"/>
      <point x="962.25" y="998.75"/>
      <point x="956.5" y="1055"/>
      <point x="945" y="1114" type="curve"/>
      <point x="1065" y="1138" type="line"/>
      <point x="1078.52" y="1070.16"/>
      <point x="1085.27" y="1005.4"/>
      <point x="1085.27" y="943.807" type="curve" smooth="yes"/>
      <point x="1085.27" y="754.832"/>
      <point x="1021.7" y="595.705"/>
      <point x="895" y="469" type="curve"/>
    </contour>
  </outline>
</glyph>
<glyph name="la" format="1">
  <advance width="1741"/>
  <unicode hex="E621"/>
  <outline>
    <contour>
      <point x="1260" y="794" type="curve" smooth="yes"/>
      <point x="1260" y="1247.48"/>
      <point x="877.701" y="1454"/>
      <point x="399" y="1454" type="curve"/>
      <point x="399" y="1577" type="line"/>
      <point x="852.1" y="1577"/>
      <point x="1185.58" y="1414.06"/>
      <point x="1322" y="1099" type="curve" smooth="yes"/>
      <point x="1362" y="1006"/>
      <point x="1382" y="903"/>
      <point x="1382" y="794" type="curve" smooth="yes"/>
      <point x="1382" y="542.587"/>
      <point x="1279.43" y="360.954"/>
      <point x="1136" y="237" type="curve" smooth="yes"/>
      <point x="964.726" y="89.9062"/>
      <point x="715.937" y="11"/>
      <point x="399" y="11" type="curve"/>
      <point x="399" y="134" type="line"/>
      <point x="680.583" y="134"/>
      <point x="905.276" y="200.21"/>
      <point x="1056" y="330" type="curve" smooth="yes"/>
      <point x="1189" y="445"/>
      <point x="1260" y="605"/>
    </contour>
  </outline>
</glyph>
<glyph name="lape" format="1">
  <advance width="2048"/>
  <unicode hex="E622"/>
  <outline>
    <contour>
      <point x="1228" y="-10" type="curve" smooth="yes"/>
      <point x="999.202" y="-10"/>
      <point x="826.99" y="102.698"/>
      <point x="711" y="236" type="curve" smooth="yes"/>
      <point x="588" y="377"/>
      <point x="516" y="561"/>
      <point x="503" y="758" type="curve"/>
      <point x="110" y="758" type="line"/>
      <point x="110" y="881" type="line"/>
      <point x="504" y="881" type="line"/>
      <point x="522.902" y="1189.73"/>
      <point x="701.441" y="1465.87"/>
      <point x="942" y="1582" type="curve" smooth="yes"/>
      <point x="1032" y="1626"/>
      <point x="1128" y="1649"/>
      <point x="1228" y="1649" type="curve" smooth="yes"/>
      <point x="1454.08" y="1649"/>
      <point x="1629.8" y="1535.24"/>
      <point x="1744" y="1402" type="curve" smooth="yes"/>
      <point x="1879" y="1246"/>
      <point x="1954" y="1039"/>
      <point x="1954" y="819" type="curve" smooth="yes"/>
      <point x="1954" y="599"/>
      <point x="1879" y="392"/>
      <point x="1744" y="236" type="curve" smooth="yes"/>
      <point x="1629.75" y="102.712"/>
      <point x="1454.95" y="-10"/>
    </contour>
    <contour>
      <point x="1228" y="1526" type="curve" smooth="yes"/>
      <point x="895" y="1526"/>
      <point x="625" y="1209"/>
      <point x="625" y="819" type="curve" smooth="yes"/>
      <point x="625" y="430"/>
      <point x="895" y="113"/>
      <point x="1228" y="113" type="curve" smooth="yes"/>
      <point x="1560" y="113"/>
      <point x="1831" y="430"/>
      <point x="1831" y="819" type="curve" smooth="yes"/>
      <point x="1831" y="1209"/>
      <point x="1560" y="1526"/>
    </contour>
    <contour>
      <point x="1225" y="825" type="move" name="Anchor"/>
    </contour>
  </outline>
</glyph>
<glyph name="len" format="1">
  <advance width="2048"/>
  <unicode hex="E625"/>
  <outline>
    <contour>
      <point x="1025" y="1000" type="move" name="Anchor"/>
    </contour>
    <contour>
      <point x="236" y="1710" type="line"/>
      <point x="1812" y="1710" type="line"/>
      <point x="1812" y="563" type="line"/>
      <point x="1812" y="287" type="line"/>
      <point x="1812" y="-51" type="line"/>
      <point x="1690" y="-51" type="line"/>
      <point x="1690" y="287" type="line"/>
      <point x="1085" y="287" type="line"/>
      <point x="1085" y="-41" type="line"/>
      <point x="963" y="-41" type="line"/>
      <point x="963" y="287" type="line"/>
      <point x="358" y="287" type="line"/>
      <point x="358" y="-51" type="line"/>
      <point x="236" y="-51" type="line"/>
      <point x="236" y="287" type="line"/>
      <point x="236" y="512" type="line"/>
    </contour>
    <contour>
      <point x="1690" y="410" type="line"/>
      <point x="1690" y="563" type="line"/>
      <point x="1690" y="1587" type="line"/>
      <point x="358" y="1587" type="line"/>
      <point x="358" y="512" type="line"/>
      <point x="358" y="410" type="line"/>
      <point x="963" y="410" type="line"/>
      <point x="963" y="410" type="line"/>
      <point x="1085" y="410" type="line"/>
      <point x="1085" y="410" type="line"/>
    </contour>
  </outline>
</glyph>
<glyph name="ma" format="1">
  <advance width="2048"/>
  <unicode hex="E630"/>
  <outline>
    <contour>
      <point x="1024" y="-113" type="curve" smooth="yes"/>
      <point x="750.79" y="-113"/>
      <point x="530.5" y="5.49961"/>
      <point x="383" y="153" type="curve" smooth="yes"/>
      <point x="235.452" y="300.548"/>
      <point x="118" y="519.443"/>
      <point x="118" y="794" type="curve" smooth="yes"/>
      <point x="118" y="1067.82"/>
      <point x="235.882" y="1286.88"/>
      <point x="383" y="1434" type="curve" smooth="yes"/>
      <point x="529.967" y="1582.74"/>
      <point x="749.669" y="1700"/>
      <point x="1024" y="1700" type="curve" smooth="yes"/>
      <point x="1298.05" y="1700"/>
      <point x="1518.21" y="1582.55"/>
      <point x="1665" y="1434" type="curve" smooth="yes"/>
      <point x="1812.3" y="1286.7"/>
      <point x="1930" y="1068.1"/>
      <point x="1930" y="794" type="curve" smooth="yes"/>
      <point x="1930" y="519.699"/>
      <point x="1812.38" y="300.378"/>
      <point x="1665" y="153" type="curve" smooth="yes"/>
      <point x="1517.32" y="5.32154"/>
      <point x="1297.49" y="-113"/>
    </contour>
    <contour>
      <point x="470" y="240" type="curve" smooth="yes"/>
      <point x="604" y="106"/>
      <point x="777" y="26"/>
      <point x="964" y="12" type="curve"/>
      <point x="964" y="759" type="line"/>
      <point x="241" y="759" type="line"/>
      <point x="250" y="562"/>
      <point x="330" y="380"/>
    </contour>
    <contour>
      <point x="1578" y="240" type="curve" smooth="yes"/>
      <point x="1718" y="380"/>
      <point x="1798" y="562"/>
      <point x="1806" y="759" type="curve"/>
      <point x="1087" y="759" type="line"/>
      <point x="1087" y="12" type="line"/>
      <point x="1272" y="27"/>
      <point x="1445" y="107"/>
    </contour>
    <contour>
      <point x="470" y="1348" type="curve" smooth="yes"/>
      <point x="343" y="1221"/>
      <point x="265" y="1058"/>
      <point x="246" y="882" type="curve"/>
      <point x="964" y="882" type="line"/>
      <point x="964" y="1574" type="line"/>
      <point x="777" y="1560"/>
      <point x="604" y="1481"/>
    </contour>
    <contour>
      <point x="1578" y="1348" type="curve" smooth="yes"/>
      <point x="1445" y="1480"/>
      <point x="1272" y="1560"/>
      <point x="1087" y="1574" type="curve"/>
      <point x="1087" y="882" type="line"/>
      <point x="1802" y="882" type="line"/>
      <point x="1782" y="1058"/>
      <point x="1705" y="1221"/>
    </contour>
  </outline>
</glyph>
<glyph name="mama" format="1">
  <advance width="2048"/>
  <unicode hex="E631"/>
  <outline>
    <contour>
      <point x="1024" y="-113" type="curve" smooth="yes"/>
      <point x="840.522" y="-113"/>
      <point x="667.947" y="-33.5153"/>
      <point x="592" y="88" type="curve" smooth="yes"/>
      <point x="564" y="133"/>
      <point x="550" y="181"/>
      <point x="550" y="230" type="curve" smooth="yes"/>
      <point x="550" y="302"/>
      <point x="579" y="370"/>
      <point x="634" y="426" type="curve"/>
      <point x="475.677" y="493.853"/>
      <point x="337.895" y="613.034"/>
      <point x="262" y="756" type="curve" smooth="yes"/>
      <point x="217" y="841"/>
      <point x="195" y="931"/>
      <point x="195" y="1024" type="curve" smooth="yes"/>
      <point x="195" y="1239.41"/>
      <point x="310.301" y="1401.52"/>
      <point x="443" y="1507" type="curve" smooth="yes"/>
      <point x="598" y="1631"/>
      <point x="805" y="1700"/>
      <point x="1024" y="1700" type="curve" smooth="yes"/>
      <point x="1358.05" y="1700"/>
      <point x="1658.53" y="1532.12"/>
      <point x="1786" y="1292" type="curve" smooth="yes"/>
      <point x="1831" y="1207"/>
      <point x="1853" y="1117"/>
      <point x="1853" y="1024" type="curve" smooth="yes"/>
      <point x="1853" y="808.593"/>
      <point x="1737.7" y="646.479"/>
      <point x="1605" y="541" type="curve" smooth="yes"/>
      <point x="1547" y="495"/>
      <point x="1483" y="456"/>
      <point x="1414" y="426" type="curve"/>
      <point x="1468" y="370"/>
      <point x="1498" y="302"/>
      <point x="1498" y="230" type="curve" smooth="yes"/>
      <point x="1498" y="116.785"/>
      <point x="1426.85" y="32.2307"/>
      <point x="1350" y="-19" type="curve" smooth="yes"/>
      <point x="1262" y="-79"/>
      <point x="1146" y="-113"/>
    </contour>
    <contour>
      <point x="1024" y="1577" type="curve" smooth="yes"/>
      <point x="634" y="1577"/>
      <point x="317" y="1329"/>
      <point x="317" y="1024" type="curve" smooth="yes"/>
      <point x="317" y="719"/>
      <point x="634" y="471"/>
      <point x="1024" y="471" type="curve" smooth="yes"/>
      <point x="1414" y="471"/>
      <point x="1731" y="719"/>
      <point x="1731" y="1024" type="curve" smooth="yes"/>
      <point x="1731" y="1329"/>
      <point x="1414" y="1577"/>
    </contour>
    <contour>
      <point x="1024" y="10" type="curve" smooth="yes"/>
      <point x="1176.55" y="10"/>
      <point x="1375" y="87.7204"/>
      <point x="1375" y="230" type="curve" smooth="yes"/>
      <point x="1375" y="285"/>
      <point x="1340" y="339"/>
      <point x="1278" y="380" type="curve"/>
      <point x="1197" y="359"/>
      <point x="1111" y="348"/>
      <point x="1024" y="348" type="curve" smooth="yes"/>
      <point x="936" y="348"/>
      <point x="850" y="359"/>
      <point x="769" y="380" type="curve"/>
      <point x="708" y="339"/>
      <point x="673" y="285"/>
      <point x="673" y="230" type="curve" smooth="yes"/>
      <point x="673" y="87.8804"/>
      <point x="871.606" y="10"/>
    </contour>
    <contour>
      <point x="1025" y="1025" type="move" name="Anchor"/>
    </contour>
  </outline>
</glyph>
<glyph name="mi" format="1">
  <advance width="2048"/>
  <unicode hex="E634"/>
  <outline>
    <contour>
      <point x="1059" y="195" type="curve" smooth="yes"/>
      <point x="762.404" y="195"/>
      <point x="543.39" y="349.788"/>
      <point x="420" y="537" type="curve"/>
      <point x="420" y="-51" type="line"/>
      <point x="297" y="-51" type="line"/>
      <point x="297" y="973" type="line"/>
      <point x="304.059" y="1189.49"/>
      <point x="400.033" y="1360.76"/>
      <point x="521" y="1480" type="curve" smooth="yes"/>
      <point x="645.372" y="1602.59"/>
      <point x="829.108" y="1700"/>
      <point x="1059" y="1700" type="curve" smooth="yes"/>
      <point x="1289.22" y="1700"/>
      <point x="1473.54" y="1602.68"/>
      <point x="1598" y="1480" type="curve" smooth="yes"/>
      <point x="1722.16" y="1357.61"/>
      <point x="1821" y="1175.6"/>
      <point x="1821" y="948" type="curve" smooth="yes"/>
      <point x="1821" y="719.531"/>
      <point x="1722.39" y="537.616"/>
      <point x="1598" y="415" type="curve" smooth="yes"/>
      <point x="1473.39" y="292.167"/>
      <point x="1289.45" y="195"/>
    </contour>
    <contour>
      <point x="1059" y="1577" type="curve" smooth="yes"/>
      <point x="888" y="1577"/>
      <point x="728" y="1511"/>
      <point x="607" y="1392" type="curve" smooth="yes"/>
      <point x="489" y="1276"/>
      <point x="423" y="1123"/>
      <point x="420" y="960" type="curve"/>
      <point x="420" y="948" type="line" smooth="yes"/>
      <point x="420" y="780"/>
      <point x="486" y="622"/>
      <point x="607" y="503" type="curve" smooth="yes"/>
      <point x="728" y="384"/>
      <point x="888" y="318"/>
      <point x="1059" y="318" type="curve" smooth="yes"/>
      <point x="1230" y="318"/>
      <point x="1391" y="384"/>
      <point x="1512" y="503" type="curve" smooth="yes"/>
      <point x="1632" y="622"/>
      <point x="1699" y="780"/>
      <point x="1699" y="948" type="curve" smooth="yes"/>
      <point x="1699" y="1116"/>
      <point x="1632" y="1273"/>
      <point x="1512" y="1392" type="curve" smooth="yes"/>
      <point x="1391" y="1511"/>
      <point x="1230" y="1577"/>
    </contour>
    <contour>
      <point x="1060" y="950" type="move" name="Anchor"/>
    </contour>
  </outline>
</glyph>
<glyph name="mun" format="1">
  <advance width="2048"/>
  <unicode hex="E63A"/>
  <outline>
    <contour>
      <point x="740" y="-61" type="curve" smooth="yes"/>
      <point x="581" y="-61"/>
      <point x="428" y="-34"/>
      <point x="285" y="20" type="curve" smooth="yes"/>
      <point x="261.409" y="29.4365"/>
      <point x="245.832" y="52.2302"/>
      <point x="245.832" y="77.4571" type="curve" smooth="yes"/>
      <point x="245.832" y="107.501"/>
      <point x="266.085" y="131.789"/>
      <point x="293" y="138" type="curve" smooth="yes"/>
      <point x="605.178" y="210.041"/>
      <point x="921" y="443.222"/>
      <point x="921" y="794" type="curve" smooth="yes"/>
      <point x="921" y="1143.42"/>
      <point x="604.339" y="1377.15"/>
      <point x="293" y="1449" type="curve" smooth="yes"/>
      <point x="266.075" y="1456.25"/>
      <point x="245.832" y="1479.43"/>
      <point x="245.832" y="1509.54" type="curve" smooth="yes"/>
      <point x="245.832" y="1534.77"/>
      <point x="261.409" y="1557.56"/>
      <point x="285" y="1567" type="curve" smooth="yes"/>
      <point x="428" y="1621"/>
      <point x="581" y="1649"/>
      <point x="740" y="1649" type="curve" smooth="yes"/>
      <point x="1045.67" y="1649"/>
      <point x="1307" y="1545.1"/>
      <point x="1486" y="1403" type="curve" smooth="yes"/>
      <point x="1655.09" y="1269.78"/>
      <point x="1802" y="1066.91"/>
      <point x="1802" y="794" type="curve" smooth="yes"/>
      <point x="1802" y="520.01"/>
      <point x="1654.43" y="318.406"/>
      <point x="1486" y="184" type="curve" smooth="yes"/>
      <point x="1306.65" y="41.6304"/>
      <point x="1046.76" y="-61"/>
    </contour>
    <contour>
      <point x="517" y="82" type="curve"/>
      <point x="589" y="68"/>
      <point x="664" y="61"/>
      <point x="740" y="61" type="curve" smooth="yes"/>
      <point x="1258" y="61"/>
      <point x="1680" y="390"/>
      <point x="1680" y="794" type="curve" smooth="yes"/>
      <point x="1680" y="1197"/>
      <point x="1258" y="1526"/>
      <point x="740" y="1526" type="curve" smooth="yes"/>
      <point x="664" y="1526"/>
      <point x="589" y="1519"/>
      <point x="517" y="1505" type="curve"/>
      <point x="725.872" y="1417.41"/>
      <point x="900.63" y="1261.29"/>
      <point x="989" y="1060" type="curve" smooth="yes"/>
      <point x="1026" y="975"/>
      <point x="1044" y="885"/>
      <point x="1044" y="794" type="curve" smooth="yes"/>
      <point x="1044" y="581.655"/>
      <point x="950.012" y="419.195"/>
      <point x="836" y="300" type="curve" smooth="yes"/>
      <point x="748.606" y="209.917"/>
      <point x="640.338" y="137.701"/>
    </contour>
    <contour>
      <point x="1350" y="790" type="move" name="Anchor"/>
    </contour>
  </outline>
</glyph>
<glyph name="olin" format="1">
  <advance width="2048"/>
  <unicode hex="E645"/>
  <outline>
    <contour>
      <point x="687" y="1523" type="curve" smooth="yes"/>
      <point x="673.852" y="1524.01"/>
      <point x="661.034" y="1524.51"/>
      <point x="648.553" y="1524.51" type="curve" smooth="yes"/>
      <point x="459.705" y="1524.51"/>
      <point x="348.085" y="1410.2"/>
      <point x="341" y="1226" type="curve"/>
      <point x="341" y="1194" type="line"/>
      <point x="360.386" y="1097.07"/>
      <point x="402.172" y="1035.83"/>
      <point x="461" y="977" type="curve"/>
      <point x="507" y="998"/>
      <point x="558" y="1009"/>
      <point x="609" y="1012" type="curve" smooth="yes"/>
      <point x="612" y="1012"/>
      <point x="615" y="1012"/>
      <point x="619" y="1013" type="curve"/>
      <point x="646" y="1013" type="line"/>
      <point x="787.796" y="1001.18"/>
      <point x="882.376" y="966.168"/>
      <point x="955" y="885" type="curve" smooth="yes"/>
      <point x="981.943" y="854.887"/>
      <point x="1001.54" y="823.688"/>
      <point x="1024" y="790" type="curve"/>
      <point x="1077.7" y="873.535"/>
      <point x="1135.96" y="947.626"/>
      <point x="1237" y="984" type="curve" smooth="yes"/>
      <point x="1287.5" y="1003.42"/>
      <point x="1352.85" y="1012.76"/>
      <point x="1418.44" y="1012.76" type="curve" smooth="yes"/>
      <point x="1482.2" y="1012.76"/>
      <point x="1546.19" y="1003.94"/>
      <point x="1597" y="987" type="curve"/>
      <point x="1648.03" y="1038.03"/>
      <point x="1699.61" y="1104.27"/>
      <point x="1707" y="1193" type="curve"/>
      <point x="1707" y="1232" type="line"/>
      <point x="1700.06" y="1426.3"/>
      <point x="1629.64" y="1526"/>
      <point x="1427" y="1526" type="curve" smooth="yes"/>
      <point x="1406.67" y="1526"/>
      <point x="1386.22" y="1527.9"/>
      <point x="1366" y="1526" type="curve" smooth="yes"/>
      <point x="1200.81" y="1510.49"/>
      <point x="1142.34" y="1398.16"/>
      <point x="1070" y="1288" type="curve" smooth="yes"/>
      <point x="1026" y="1221" type="line"/>
      <point x="978" y="1288" type="line"/>
      <point x="899.025" y="1391.91"/>
      <point x="855.616" y="1510.03"/>
    </contour>
    <contour>
      <point x="1710" y="606" type="curve" smooth="yes"/>
      <point x="1710" y="758.94"/>
      <point x="1652.59" y="860.962"/>
      <point x="1519" y="881" type="curve" smooth="yes"/>
      <point x="1485.66" y="888.019"/>
      <point x="1450.74" y="890"/>
      <point x="1411" y="890" type="curve" smooth="yes"/>
      <point x="1206.83" y="890"/>
      <point x="1153.25" y="770.928"/>
      <point x="1070" y="652" type="curve"/>
      <point x="1022" y="585" type="line"/>
      <point x="978" y="652" type="line"/>
      <point x="890.108" y="768.144"/>
      <point x="845.317" y="890"/>
      <point x="643" y="890" type="curve" smooth="yes"/>
      <point x="621" y="890" type="line"/>
      <point x="619" y="889"/>
      <point x="617" y="889"/>
      <point x="615" y="889" type="curve" smooth="yes"/>
      <point x="451.425" y="879.913"/>
      <point x="356.72" y="764.116"/>
      <point x="344" y="603" type="curve"/>
      <point x="344" y="588" type="line"/>
      <point x="339.83" y="579.659"/>
      <point x="344" y="564.779"/>
      <point x="344" y="555" type="curve" smooth="yes"/>
      <point x="361.992" y="447.048"/>
      <point x="426.835" y="378.249"/>
      <point x="496" y="316" type="curve" smooth="yes"/>
      <point x="633.78" y="195.998"/>
      <point x="804.843" y="106.277"/>
      <point x="986" y="30" type="curve" smooth="yes"/>
      <point x="996" y="26"/>
      <point x="1006" y="22"/>
      <point x="1016" y="18" type="curve" smooth="yes"/>
      <point x="1025" y="14" type="line"/>
      <point x="1054.58" y="28.7915"/>
      <point x="1088.27" y="39.4835"/>
      <point x="1118" y="52" type="curve" smooth="yes"/>
      <point x="1234.37" y="100.999"/>
      <point x="1343.31" y="160.849"/>
      <point x="1444" y="226" type="curve" smooth="yes"/>
      <point x="1523.89" y="282.395"/>
      <point x="1607.59" y="343.14"/>
      <point x="1660" y="427" type="curve" smooth="yes"/>
      <point x="1691.43" y="472.714"/>
      <point x="1710" y="527.304"/>
    </contour>
    <contour>
      <point x="1826" y="1235" type="curve" smooth="yes"/>
      <point x="1826" y="1197" type="line" smooth="yes"/>
      <point x="1826" y="1130.45"/>
      <point x="1800.65" y="1077.26"/>
      <point x="1775" y="1032" type="curve" smooth="yes"/>
      <point x="1758" y="1002"/>
      <point x="1739" y="975"/>
      <point x="1717" y="950" type="curve" smooth="yes"/>
      <point x="1712" y="943"/>
      <point x="1706" y="936"/>
      <point x="1699" y="930" type="curve"/>
      <point x="1788.91" y="857.214"/>
      <point x="1823" y="733.511"/>
      <point x="1823" y="574" type="curve" smooth="yes"/>
      <point x="1823" y="456.604"/>
      <point x="1767.06" y="372.539"/>
      <point x="1711" y="309" type="curve" smooth="yes"/>
      <point x="1625.29" y="206.15"/>
      <point x="1514.78" y="131.152"/>
      <point x="1398" y="61" type="curve" smooth="yes"/>
      <point x="1288.13" y="-5.00323"/>
      <point x="1170.77" y="-61.8374"/>
      <point x="1045" y="-109" type="curve" smooth="yes"/>
      <point x="1024" y="-117" type="line"/>
      <point x="795.861" y="-30.3423"/>
      <point x="581.991" y="72.3226"/>
      <point x="413" y="222" type="curve" smooth="yes"/>
      <point x="322.633" y="302.039"/>
      <point x="234.4" y="398.996"/>
      <point x="219" y="553" type="curve"/>
      <point x="219" y="592" type="line" smooth="yes"/>
      <point x="219" y="731.104"/>
      <point x="280.922" y="847.845"/>
      <point x="363" y="915" type="curve"/>
      <point x="298.259" y="979.741"/>
      <point x="235.73" y="1063.43"/>
      <point x="223" y="1178" type="curve"/>
      <point x="223" y="1184" type="line"/>
      <point x="216.586" y="1190.41"/>
      <point x="222" y="1221.34"/>
      <point x="222" y="1230" type="curve" smooth="yes"/>
      <point x="228.266" y="1436.76"/>
      <point x="337.956" y="1573.32"/>
      <point x="499" y="1627" type="curve" smooth="yes"/>
      <point x="538.971" y="1640.32"/>
      <point x="579.087" y="1648.8"/>
      <point x="625.818" y="1648.8" type="curve" smooth="yes"/>
      <point x="633.998" y="1648.8"/>
      <point x="642.38" y="1648.54"/>
      <point x="651" y="1648" type="curve" smooth="yes"/>
      <point x="846.337" y="1648"/>
      <point x="949.129" y="1547.67"/>
      <point x="1024" y="1426" type="curve"/>
      <point x="1099.81" y="1549.19"/>
      <point x="1194.19" y="1632.52"/>
      <point x="1380" y="1648" type="curve"/>
      <point x="1454" y="1648" type="line"/>
      <point x="1529.68" y="1643.27"/>
      <point x="1599.56" y="1626.22"/>
      <point x="1654" y="1599" type="curve" smooth="yes"/>
      <point x="1662" y="1594"/>
      <point x="1670" y="1589"/>
      <point x="1678" y="1584" type="curve" smooth="yes"/>
      <point x="1778.59" y="1521.13"/>
      <point x="1826" y="1393.54"/>
    </contour>
  </outline>
</glyph>
<glyph name="ona" format="1">
  <advance width="2048"/>
  <unicode hex="E646"/>
  <outline>
    <contour>
      <point x="1678" y="1368" type="curve" smooth="yes"/>
      <point x="1804.74" y="1234.12"/>
      <point x="1905" y="1037.07"/>
      <point x="1905" y="794" type="curve" smooth="yes"/>
      <point x="1905" y="550.065"/>
      <point x="1804.96" y="353.118"/>
      <point x="1678" y="219" type="curve" smooth="yes"/>
      <point x="1550.78" y="88.2416"/>
      <point x="1365.76" y="-20"/>
      <point x="1126" y="-20" type="curve" smooth="yes"/>
      <point x="205" y="-20" type="line"/>
      <point x="205" y="103" type="line"/>
      <point x="715" y="103" type="line"/>
      <point x="580.199" y="190.224"/>
      <point x="471.228" y="323.227"/>
      <point x="409" y="478" type="curve" smooth="yes"/>
      <point x="369" y="578"/>
      <point x="348" y="684"/>
      <point x="348" y="794" type="curve" smooth="yes"/>
      <point x="348" y="1036.83"/>
      <point x="448.409" y="1234.28"/>
      <point x="575" y="1368" type="curve" smooth="yes"/>
      <point x="701.879" y="1500.17"/>
      <point x="887.604" y="1607"/>
      <point x="1126" y="1607" type="curve" smooth="yes"/>
      <point x="1365.21" y="1607"/>
      <point x="1551.33" y="1499.95"/>
    </contour>
    <contour>
      <point x="1589" y="304" type="curve" smooth="yes"/>
      <point x="1713" y="435"/>
      <point x="1782" y="609"/>
      <point x="1782" y="794" type="curve" smooth="yes"/>
      <point x="1782" y="979"/>
      <point x="1713" y="1152"/>
      <point x="1589" y="1283" type="curve" smooth="yes"/>
      <point x="1465" y="1413"/>
      <point x="1301" y="1484"/>
      <point x="1126" y="1484" type="curve" smooth="yes"/>
      <point x="952" y="1484"/>
      <point x="788" y="1413"/>
      <point x="664" y="1283" type="curve" smooth="yes"/>
      <point x="540" y="1152"/>
      <point x="471" y="979"/>
      <point x="471" y="794" type="curve" smooth="yes"/>
      <point x="471" y="609"/>
      <point x="540" y="435"/>
      <point x="664" y="304" type="curve" smooth="yes"/>
      <point x="788" y="174"/>
      <point x="952" y="103"/>
      <point x="1126" y="103" type="curve" smooth="yes"/>
      <point x="1301" y="103"/>
      <point x="1465" y="174"/>
    </contour>
    <contour>
      <point x="1125" y="800" type="move" name="Anchor"/>
    </contour>
  </outline>
</glyph>
<glyph name="pali" format="1">
  <advance width="2048"/>
  <unicode hex="E649"/>
  <outline>
    <contour>
      <point x="1320" y="778" type="curve"/>
      <point x="1556.29" y="686.305"/>
      <point x="1700" y="478.468"/>
      <point x="1700" y="154" type="curve" smooth="yes"/>
      <point x="1700" y="-51" type="line"/>
      <point x="1577" y="-51" type="line"/>
      <point x="1577" y="154" type="line" smooth="yes"/>
      <point x="1577" y="360"/>
      <point x="1504" y="707"/>
      <point x="1019" y="707" type="curve" smooth="yes"/>
      <point x="534" y="707"/>
      <point x="461" y="360"/>
      <point x="461" y="154" type="curve" smooth="yes"/>
      <point x="461" y="-51" type="line"/>
      <point x="413" y="-51" type="line"/>
      <point x="58" y="316" type="line"/>
      <point x="147" y="401" type="line"/>
      <point x="339" y="202" type="line"/>
      <point x="355.005" y="502.893"/>
      <point x="493.779" y="691.2"/>
      <point x="724" y="780" type="curve"/>
      <point x="581.397" y="855.263"/>
      <point x="451" y="996.476"/>
      <point x="451" y="1203" type="curve" smooth="yes"/>
      <point x="451" y="1361.02"/>
      <point x="529.676" y="1477.87"/>
      <point x="622" y="1558" type="curve" smooth="yes"/>
      <point x="730" y="1649"/>
      <point x="873" y="1700"/>
      <point x="1024" y="1700" type="curve" smooth="yes"/>
      <point x="1175" y="1700"/>
      <point x="1318" y="1649"/>
      <point x="1426" y="1558" type="curve" smooth="yes"/>
      <point x="1518.44" y="1477.77"/>
      <point x="1597" y="1361.19"/>
      <point x="1597" y="1203" type="curve" smooth="yes"/>
      <point x="1597" y="996.683"/>
      <point x="1464.12" y="850.059"/>
    </contour>
    <contour>
      <point x="573" y="1203" type="curve" smooth="yes"/>
      <point x="573" y="997"/>
      <point x="776" y="829"/>
      <point x="1024" y="829" type="curve" smooth="yes"/>
      <point x="1272" y="829"/>
      <point x="1475" y="997"/>
      <point x="1475" y="1203" type="curve" smooth="yes"/>
      <point x="1475" y="1409"/>
      <point x="1272" y="1577"/>
      <point x="1024" y="1577" type="curve" smooth="yes"/>
      <point x="776" y="1577"/>
      <point x="573" y="1409"/>
    </contour>
    <contour>
      <point x="1025" y="1190" type="move" name="Anchor"/>
    </contour>
  </outline>
</glyph>
<glyph name="pana" format="1">
  <advance width="2048"/>
  <unicode hex="E64C"/>
  <outline>
    <contour>
      <point x="1085" y="1229" type="line"/>
      <point x="963" y="1229" type="line"/>
      <point x="963" y="1690" type="line"/>
      <point x="1085" y="1690" type="line"/>
    </contour>
    <contour>
      <point x="1534" y="1038" type="line"/>
      <point x="1436" y="1112" type="line"/>
      <point x="1692" y="1455" type="line"/>
      <point x="1790" y="1381" type="line"/>
    </contour>
    <contour>
      <point x="514" y="1038" type="line"/>
      <point x="258" y="1381" type="line"/>
      <point x="356" y="1455" type="line"/>
      <point x="612" y="1112" type="line"/>
    </contour>
    <contour>
      <point x="1024" y="911" type="curve" smooth="yes"/>
      <point x="699.177" y="911"/>
      <point x="471" y="729.613"/>
      <point x="471" y="410" type="curve" smooth="yes"/>
      <point x="471" y="-51" type="line"/>
      <point x="425" y="-51" type="line"/>
      <point x="59" y="315" type="line"/>
      <point x="146" y="402" type="line"/>
      <point x="348" y="199" type="line"/>
      <point x="348" y="410" type="line" smooth="yes"/>
      <point x="348" y="795.483"/>
      <point x="629.693" y="1034"/>
      <point x="1024" y="1034" type="curve" smooth="yes"/>
      <point x="1418.3" y="1034"/>
      <point x="1700" y="795.576"/>
      <point x="1700" y="410" type="curve" smooth="yes"/>
      <point x="1700" y="-51" type="line"/>
      <point x="1577" y="-51" type="line"/>
      <point x="1577" y="410" type="line" smooth="yes"/>
      <point x="1577" y="729.537"/>
      <point x="1348.81" y="911"/>
    </contour>
    <contour>
      <point x="1025" y="350" type="move" name="Anchor"/>
    </contour>
  </outline>
</glyph>
<glyph name="pilin" format="1">
  <advance width="2048"/>
  <unicode hex="E64E"/>
  <outline>
    <contour>
      <point x="1950" y="1006" type="curve" smooth="yes"/>
      <point x="1950" y="990"/>
      <point x="1950" y="974"/>
      <point x="1950" y="958" type="curve" smooth="yes"/>
      <point x="1950" y="811.887"/>
      <point x="1902.59" y="700.962"/>
      <point x="1846" y="609" type="curve" smooth="yes"/>
      <point x="1786.54" y="505.931"/>
      <point x="1706.56" y="414.786"/>
      <point x="1621" y="337" type="curve" smooth="yes"/>
      <point x="1466.64" y="189.989"/>
      <point x="1285.67" y="70.3585"/>
      <point x="1090" y="-35" type="curve"/>
      <point x="1070" y="-45" type="line" smooth="yes"/>
      <point x="1063.37" y="-48.7066"/>
      <point x="1056.69" y="-52.3607"/>
      <point x="1050" y="-56" type="curve" smooth="yes"/>
      <point x="1025" y="-68" type="line"/>
      <point x="998" y="-56" type="line"/>
      <point x="944.841" y="-26.4984"/>
      <point x="890.249" y="-1.14342"/>
      <point x="838" y="29" type="curve" smooth="yes"/>
      <point x="680.333" y="119.962"/>
      <point x="530.993" y="225.893"/>
      <point x="404" y="350" type="curve" smooth="yes"/>
      <point x="256.201" y="491.081"/>
      <point x="111.291" y="663.216"/>
      <point x="91" y="927" type="curve"/>
      <point x="91" y="940" type="line"/>
      <point x="90" y="943" type="line"/>
      <point x="90" y="949.667"/>
      <point x="90" y="956.333"/>
      <point x="90" y="963" type="curve" smooth="yes"/>
      <point x="90" y="971"/>
      <point x="90" y="979"/>
      <point x="91" y="987" type="curve" smooth="yes"/>
      <point x="91" y="1266.13"/>
      <point x="214.759" y="1487.43"/>
      <point x="418" y="1570" type="curve" smooth="yes"/>
      <point x="450" y="1582"/>
      <point x="484" y="1591"/>
      <point x="518" y="1595" type="curve" smooth="yes"/>
      <point x="523" y="1595"/>
      <point x="527" y="1596"/>
      <point x="531" y="1596" type="curve" smooth="yes"/>
      <point x="536" y="1596"/>
      <point x="540" y="1597"/>
      <point x="545" y="1597" type="curve" smooth="yes"/>
      <point x="553.333" y="1597"/>
      <point x="561.667" y="1597"/>
      <point x="570" y="1597" type="curve" smooth="yes"/>
      <point x="834.318" y="1597"/>
      <point x="941.93" y="1430.38"/>
      <point x="1024" y="1248" type="curve"/>
      <point x="1098.21" y="1418.69"/>
      <point x="1194.13" y="1567.02"/>
      <point x="1415" y="1593" type="curve" smooth="yes"/>
      <point x="1427.73" y="1594.41"/>
      <point x="1439.75" y="1595.9"/>
      <point x="1453" y="1597" type="curve"/>
      <point x="1517" y="1597" type="line"/>
      <point x="1824.35" y="1578.92"/>
      <point x="1938.13" y="1368.99"/>
      <point x="1948" y="1053" type="curve" smooth="yes"/>
      <point x="1949" y="1037"/>
      <point x="1949" y="1021"/>
    </contour>
    <contour>
      <point x="217" y="983" type="curve" smooth="yes"/>
      <point x="217" y="938" type="line" smooth="yes"/>
      <point x="217" y="937"/>
      <point x="218" y="935"/>
      <point x="218" y="933" type="curve" smooth="yes"/>
      <point x="218" y="924" type="line"/>
      <point x="224.767" y="836.03"/>
      <point x="253.927" y="762.904"/>
      <point x="288" y="700" type="curve" smooth="yes"/>
      <point x="395.99" y="500.634"/>
      <point x="573.672" y="353.819"/>
      <point x="757" y="229" type="curve" smooth="yes"/>
      <point x="842.126" y="171.042"/>
      <point x="930.678" y="115.161"/>
      <point x="1025" y="68" type="curve"/>
      <point x="1114.33" y="117.626"/>
      <point x="1200.96" y="163.041"/>
      <point x="1284" y="219" type="curve" smooth="yes"/>
      <point x="1445.24" y="324.157"/>
      <point x="1590.86" y="448.877"/>
      <point x="1706" y="600" type="curve"/>
      <point x="1770.93" y="695.232"/>
      <point x="1838" y="800.364"/>
      <point x="1838" y="958" type="curve" smooth="yes"/>
      <point x="1838" y="973"/>
      <point x="1838" y="988"/>
      <point x="1838" y="1003" type="curve" smooth="yes"/>
      <point x="1821.79" y="1246.17"/>
      <point x="1786.65" y="1444.04"/>
      <point x="1553" y="1470" type="curve" smooth="yes"/>
      <point x="1539" y="1472"/>
      <point x="1526" y="1473"/>
      <point x="1512" y="1474" type="curve" smooth="yes"/>
      <point x="1505" y="1474"/>
      <point x="1497" y="1474"/>
      <point x="1491" y="1475" type="curve" smooth="yes"/>
      <point x="1484.33" y="1475"/>
      <point x="1477.67" y="1475"/>
      <point x="1471" y="1475" type="curve"/>
      <point x="1469" y="1474" type="line"/>
      <point x="1462.33" y="1474"/>
      <point x="1455.67" y="1474"/>
      <point x="1449" y="1474" type="curve" smooth="yes"/>
      <point x="1290.35" y="1451.34"/>
      <point x="1220.81" y="1383.51"/>
      <point x="1157" y="1265" type="curve" smooth="yes"/>
      <point x="1125.78" y="1212.96"/>
      <point x="1099.92" y="1156.1"/>
      <point x="1069" y="1102" type="curve" smooth="yes"/>
      <point x="1020" y="1017" type="line"/>
      <point x="979" y="1102" type="line"/>
      <point x="880.625" y="1270.19"/>
      <point x="830.856" y="1475"/>
      <point x="569" y="1475" type="curve" smooth="yes"/>
      <point x="565.667" y="1475"/>
      <point x="562.333" y="1475"/>
      <point x="559" y="1475" type="curve"/>
      <point x="556" y="1474" type="line"/>
      <point x="541" y="1474" type="line"/>
      <point x="539" y="1473"/>
      <point x="536" y="1473"/>
      <point x="533" y="1473" type="curve" smooth="yes"/>
      <point x="366.545" y="1452.19"/>
      <point x="281.357" y="1311.01"/>
      <point x="241" y="1164" type="curve" smooth="yes"/>
      <point x="228" y="1112"/>
      <point x="221" y="1058"/>
      <point x="218" y="1004" type="curve" smooth="yes"/>
      <point x="218" y="997"/>
      <point x="217" y="990"/>
    </contour>
    <contour>
      <point x="1025" y="775" type="move" name="Anchor"/>
    </contour>
  </outline>
</glyph>
<glyph name="pona" format="1">
  <advance width="2048"/>
  <unicode hex="E654"/>
  <outline>
    <contour>
      <point x="1024" y="195" type="curve" smooth="yes"/>
      <point x="731.495" y="195"/>
      <point x="508.96" y="343.106"/>
      <point x="362" y="516" type="curve" smooth="yes"/>
      <point x="207.175" y="698.147"/>
      <point x="93" y="960.865"/>
      <point x="93" y="1280" type="curve"/>
      <point x="215" y="1280" type="line"/>
      <point x="215" y="749"/>
      <point x="578" y="317"/>
      <point x="1024" y="317" type="curve" smooth="yes"/>
      <point x="1470" y="317"/>
      <point x="1833" y="749"/>
      <point x="1833" y="1280" type="curve"/>
      <point x="1955" y="1280" type="line"/>
      <point x="1955" y="961.162"/>
      <point x="1840.66" y="697.951"/>
      <point x="1686" y="516" type="curve" smooth="yes"/>
      <point x="1538.85" y="342.877"/>
      <point x="1316.82" y="195"/>
    </contour>
    <contour>
      <point x="1025" y="1365" type="move" name="Anchor"/>
    </contour>
  </outline>
</glyph>
<glyph name="sewi" format="1">
  <advance width="2048"/>
  <unicode hex="E65A"/>
  <outline>
    <contour>
      <point x="171" y="101" type="line"/>
      <point x="187.245" y="87.0753"/>
      <point x="214.185" y="67"/>
      <point x="242" y="67" type="curve" smooth="yes"/>
      <point x="336.988" y="67"/>
      <point x="369.992" y="195.371"/>
      <point x="391" y="271" type="curve" smooth="yes"/>
      <point x="404.449" y="324.795"/>
      <point x="415.792" y="379.021"/>
      <point x="422" y="438" type="curve" smooth="yes"/>
      <point x="428" y="495" type="line" smooth="yes"/>
      <point x="435.791" y="569.018"/>
      <point x="441" y="647.694"/>
      <point x="441" y="727" type="curve"/>
      <point x="553" y="727" type="line"/>
      <point x="556" y="612" type="line" smooth="yes"/>
      <point x="560.129" y="455.103"/>
      <point x="567.055" y="294.219"/>
      <point x="605" y="169" type="curve" smooth="yes"/>
      <point x="621.365" y="116.631"/>
      <point x="641.333" y="61"/>
      <point x="709" y="61" type="curve"/>
      <point x="801.522" y="68.7102"/>
      <point x="828.125" y="172.424"/>
      <point x="847" y="255" type="curve" smooth="yes"/>
      <point x="890.436" y="445.034"/>
      <point x="886.356" y="672.255"/>
      <point x="895" y="897" type="curve"/>
      <point x="895" y="935" type="line"/>
      <point x="1008" y="935" type="line"/>
      <point x="1008" y="729.691"/>
      <point x="1014.98" y="529.135"/>
      <point x="1038" y="345" type="curve" smooth="yes"/>
      <point x="1052.15" y="247.998"/>
      <point x="1068.43" y="126.055"/>
      <point x="1131" y="76" type="curve" smooth="yes"/>
      <point x="1146.68" y="62.9322"/>
      <point x="1163.91" y="61"/>
      <point x="1192" y="61" type="curve" smooth="yes"/>
      <point x="1273.41" y="70.0453"/>
      <point x="1305" y="152.216"/>
      <point x="1322" y="227" type="curve" smooth="yes"/>
      <point x="1356.36" y="352.984"/>
      <point x="1362.9" y="506.929"/>
      <point x="1366" y="659" type="curve" smooth="yes"/>
      <point x="1369" y="758"/>
      <point x="1370" y="857"/>
      <point x="1371" y="957" type="curve" smooth="yes"/>
      <point x="1371" y="1056.33"/>
      <point x="1371" y="1155.67"/>
      <point x="1371" y="1255" type="curve"/>
      <point x="1495" y="1255" type="line"/>
      <point x="1495" y="806" type="line"/>
      <point x="1491" y="655" type="line"/>
      <point x="1481.73" y="423.367"/>
      <point x="1478.22" y="181.167"/>
      <point x="1374" y="38" type="curve" smooth="yes"/>
      <point x="1336.22" y="-13.8936"/>
      <point x="1285.82" y="-49.8969"/>
      <point x="1205" y="-60" type="curve" smooth="yes"/>
      <point x="1201" y="-60"/>
      <point x="1197" y="-61"/>
      <point x="1193" y="-61" type="curve" smooth="yes"/>
      <point x="1156" y="-61" type="line"/>
      <point x="1032.27" y="-47.2517"/>
      <point x="978.249" y="58.714"/>
      <point x="950" y="167" type="curve"/>
      <point x="920.093" y="67.3105"/>
      <point x="871.943" y="-14.0988"/>
      <point x="776" y="-51" type="curve" smooth="yes"/>
      <point x="751.086" y="-58.6659"/>
      <point x="729.058" y="-61"/>
      <point x="698" y="-61" type="curve" smooth="yes"/>
      <point x="571.032" y="-61"/>
      <point x="519.431" y="38.7066"/>
      <point x="488" y="133" type="curve"/>
      <point x="482" y="155" type="line"/>
      <point x="449.116" y="69.5019"/>
      <point x="400.731" y="-6.68679"/>
      <point x="316" y="-43" type="curve" smooth="yes"/>
      <point x="291.308" y="-51.8184"/>
      <point x="267.189" y="-54"/>
      <point x="234" y="-54" type="curve" smooth="yes"/>
      <point x="172.925" y="-54"/>
      <point x="125.804" y="-12.8043"/>
      <point x="94" y="19" type="curve"/>
    </contour>
    <contour>
      <point x="1853" y="1638" type="line"/>
      <point x="1853" y="-51" type="line"/>
      <point x="1731" y="-51" type="line"/>
      <point x="1731" y="1638" type="line"/>
    </contour>
  </outline>
</glyph>
<glyph name="sike" format="1">
  <advance width="2048"/>
  <unicode hex="E65C"/>
  <outline>
    <contour>
      <point x="1665" y="1434" type="curve" smooth="yes"/>
      <point x="1812.3" y="1286.7"/>
      <point x="1930" y="1068.1"/>
      <point x="1930" y="794" type="curve" smooth="yes"/>
      <point x="1930" y="519.699"/>
      <point x="1812.38" y="300.378"/>
      <point x="1665" y="153" type="curve" smooth="yes"/>
      <point x="1517.32" y="5.32154"/>
      <point x="1297.49" y="-113"/>
      <point x="1024" y="-113" type="curve" smooth="yes"/>
      <point x="750.79" y="-113"/>
      <point x="530.5" y="5.49961"/>
      <point x="383" y="153" type="curve" smooth="yes"/>
      <point x="235.452" y="300.548"/>
      <point x="118" y="519.443"/>
      <point x="118" y="794" type="curve" smooth="yes"/>
      <point x="118" y="1067.82"/>
      <point x="235.882" y="1286.88"/>
      <point x="383" y="1434" type="curve" smooth="yes"/>
      <point x="529.967" y="1582.74"/>
      <point x="749.669" y="1700"/>
      <point x="1024" y="1700" type="curve" smooth="yes"/>
      <point x="1298.05" y="1700"/>
      <point x="1518.21" y="1582.55"/>
    </contour>
    <contour>
      <point x="1578" y="240" type="curve" smooth="yes"/>
      <point x="1726" y="388"/>
      <point x="1807" y="584"/>
      <point x="1807" y="794" type="curve" smooth="yes"/>
      <point x="1807" y="1003"/>
      <point x="1726" y="1200"/>
      <point x="1578" y="1348" type="curve" smooth="yes"/>
      <point x="1430" y="1495"/>
      <point x="1233" y="1577"/>
      <point x="1024" y="1577" type="curve" smooth="yes"/>
      <point x="815" y="1577"/>
      <point x="618" y="1495"/>
      <point x="470" y="1348" type="curve" smooth="yes"/>
      <point x="322" y="1200"/>
      <point x="241" y="1003"/>
      <point x="241" y="794" type="curve" smooth="yes"/>
      <point x="241" y="584"/>
      <point x="322" y="388"/>
      <point x="470" y="240" type="curve" smooth="yes"/>
      <point x="618" y="92"/>
      <point x="815" y="10"/>
      <point x="1024" y="10" type="curve" smooth="yes"/>
      <point x="1233" y="10"/>
      <point x="1430" y="92"/>
    </contour>
    <contour>
      <point x="1024" y="1239" type="curve" smooth="yes"/>
      <point x="1143" y="1239"/>
      <point x="1255" y="1193"/>
      <point x="1339" y="1109" type="curve" smooth="yes"/>
      <point x="1423" y="1024"/>
      <point x="1469" y="913"/>
      <point x="1469" y="794" type="curve" smooth="yes"/>
      <point x="1469" y="675"/>
      <point x="1423" y="563"/>
      <point x="1339" y="479" type="curve" smooth="yes"/>
      <point x="1255" y="394"/>
      <point x="1143" y="348"/>
      <point x="1024" y="348" type="curve" smooth="yes"/>
      <point x="905" y="348"/>
      <point x="793" y="394"/>
      <point x="709" y="479" type="curve" smooth="yes"/>
      <point x="625" y="563"/>
      <point x="579" y="675"/>
      <point x="579" y="794" type="curve" smooth="yes"/>
      <point x="579" y="913"/>
      <point x="625" y="1024"/>
      <point x="709" y="1109" type="curve" smooth="yes"/>
      <point x="793" y="1193"/>
      <point x="905" y="1239"/>
    </contour>
    <contour>
      <point x="1024" y="471" type="curve" smooth="yes"/>
      <point x="1202" y="471"/>
      <point x="1347" y="616"/>
      <point x="1347" y="794" type="curve" smooth="yes"/>
      <point x="1347" y="971"/>
      <point x="1202" y="1116"/>
      <point x="1024" y="1116" type="curve" smooth="yes"/>
      <point x="846" y="1116"/>
      <point x="701" y="971"/>
      <point x="701" y="794" type="curve" smooth="yes"/>
      <point x="701" y="616"/>
      <point x="846" y="471"/>
    </contour>
    <contour>
      <point x="1025" y="790" type="move" name="Anchor"/>
    </contour>
  </outline>
</glyph>
<glyph name="sina" format="1">
  <advance width="2048"/>
  <unicode hex="E65E"/>
  <outline>
    <contour>
      <point x="420" y="1049" type="line"/>
      <point x="543.717" y="1236.71"/>
      <point x="761.381" y="1392"/>
      <point x="1059" y="1392" type="curve" smooth="yes"/>
      <point x="1289.22" y="1392"/>
      <point x="1473.54" y="1294.68"/>
      <point x="1598" y="1172" type="curve" smooth="yes"/>
      <point x="1722.16" y="1049.61"/>
      <point x="1821" y="867.602"/>
      <point x="1821" y="640" type="curve" smooth="yes"/>
      <point x="1821" y="410.578"/>
      <point x="1721.72" y="230.718"/>
      <point x="1598" y="107" type="curve" smooth="yes"/>
      <point x="1473.39" y="-15.8328"/>
      <point x="1289.45" y="-113"/>
      <point x="1059" y="-113" type="curve" smooth="yes"/>
      <point x="829.328" y="-113"/>
      <point x="645.224" y="-15.4497"/>
      <point x="521" y="107" type="curve" smooth="yes"/>
      <point x="400.426" y="227.574"/>
      <point x="304.035" y="395.902"/>
      <point x="297" y="614" type="curve"/>
      <point x="297" y="1638" type="line"/>
      <point x="420" y="1638" type="line"/>
    </contour>
    <contour>
      <point x="1059" y="1269" type="curve" smooth="yes"/>
      <point x="888" y="1269"/>
      <point x="728" y="1203"/>
      <point x="607" y="1084" type="curve" smooth="yes"/>
      <point x="489" y="968"/>
      <point x="423" y="815"/>
      <point x="420" y="652" type="curve"/>
      <point x="420" y="640" type="line" smooth="yes"/>
      <point x="420" y="472"/>
      <point x="486" y="314"/>
      <point x="607" y="195" type="curve" smooth="yes"/>
      <point x="728" y="76"/>
      <point x="888" y="10"/>
      <point x="1059" y="10" type="curve" smooth="yes"/>
      <point x="1230" y="10"/>
      <point x="1391" y="76"/>
      <point x="1512" y="195" type="curve" smooth="yes"/>
      <point x="1632" y="314"/>
      <point x="1699" y="472"/>
      <point x="1699" y="640" type="curve" smooth="yes"/>
      <point x="1699" y="808"/>
      <point x="1632" y="965"/>
      <point x="1512" y="1084" type="curve" smooth="yes"/>
      <point x="1391" y="1203"/>
      <point x="1230" y="1269"/>
    </contour>
    <contour>
      <point x="1060" y="650" type="move" name="Anchor"/>
    </contour>
  </outline>
</glyph>
<glyph name="tan" format="1">
  <advance width="2048"/>
  <unicode hex="E667"/>
  <outline>
    <contour>
      <point x="1782" y="627" type="line" smooth="yes"/>
      <point x="1782" y="635"/>
      <point x="1783" y="643"/>
      <point x="1783" y="651" type="curve" smooth="yes"/>
      <point x="1783" y="713" type="line" smooth="yes"/>
      <point x="1783" y="750.461"/>
      <point x="1770" y="790.676"/>
      <point x="1770" y="829" type="curve"/>
      <point x="1763" y="856" type="line"/>
      <point x="1757" y="882" type="line"/>
      <point x="1718.4" y="1055.69"/>
      <point x="1632.69" y="1200.21"/>
      <point x="1501" y="1288" type="curve" smooth="yes"/>
      <point x="1500" y="1289"/>
      <point x="1499" y="1290"/>
      <point x="1498" y="1290" type="curve" smooth="yes"/>
      <point x="1480" y="1302" type="line"/>
      <point x="1467.69" y="1314.31"/>
      <point x="1445.93" y="1322.41"/>
      <point x="1430" y="1329" type="curve" smooth="yes"/>
      <point x="1401" y="1341" type="line"/>
      <point x="1347.33" y="1361.87"/>
      <point x="1296.31" y="1371.68"/>
      <point x="1230" y="1375" type="curve"/>
      <point x="1201" y="1375" type="line" smooth="yes"/>
      <point x="1101.91" y="1375"/>
      <point x="1019.7" y="1344.8"/>
      <point x="950" y="1312" type="curve" smooth="yes"/>
      <point x="705.484" y="1198.6"/>
      <point x="536.735" y="984.965"/>
      <point x="430" y="741" type="curve"/>
      <point x="827" y="803" type="line"/>
      <point x="845" y="682" type="line"/>
      <point x="648.994" y="655.006"/>
      <point x="453.047" y="627.953"/>
      <point x="257" y="601" type="curve"/>
      <point x="213.829" y="781.496"/>
      <point x="171.026" y="962.359"/>
      <point x="128" y="1143" type="curve"/>
      <point x="248" y="1170" type="line"/>
      <point x="330" y="792" type="line"/>
      <point x="331" y="795"/>
      <point x="332" y="799"/>
      <point x="334" y="802" type="curve" smooth="yes"/>
      <point x="344" y="825" type="line" smooth="yes"/>
      <point x="348.176" y="833.157"/>
      <point x="352.163" y="841.504"/>
      <point x="356" y="850" type="curve" smooth="yes"/>
      <point x="386" y="908" type="line"/>
      <point x="537.644" y="1186.01"/>
      <point x="776.599" y="1439.73"/>
      <point x="1162" y="1490" type="curve" smooth="yes"/>
      <point x="1173.63" y="1490"/>
      <point x="1186.33" y="1492"/>
      <point x="1198" y="1492" type="curve" smooth="yes"/>
      <point x="1233" y="1492" type="line"/>
      <point x="1323.79" y="1488.22"/>
      <point x="1404.24" y="1472.87"/>
      <point x="1472" y="1439" type="curve"/>
      <point x="1472" y="1433.5"/>
      <point x="1536.65" y="1407.35"/>
      <point x="1541" y="1403" type="curve" smooth="yes"/>
      <point x="1706.15" y="1303.67"/>
      <point x="1830.8" y="1125.98"/>
      <point x="1874" y="910" type="curve"/>
      <point x="1881" y="880" type="line"/>
      <point x="1888.4" y="842.993"/>
      <point x="1898" y="803.22"/>
      <point x="1898" y="763" type="curve"/>
      <point x="1901" y="734" type="line" smooth="yes"/>
      <point x="1901" y="725.13"/>
      <point x="1902" y="715.918"/>
      <point x="1902" y="706" type="curve" smooth="yes"/>
      <point x="1902" y="651" type="line" smooth="yes"/>
      <point x="1902" y="643"/>
      <point x="1903" y="634"/>
      <point x="1903" y="625" type="curve" smooth="yes"/>
      <point x="1903" y="599" type="line"/>
      <point x="1900" y="549" type="line" smooth="yes"/>
      <point x="1899" y="540"/>
      <point x="1899.03" y="531.933"/>
      <point x="1898" y="524" type="curve" smooth="yes"/>
      <point x="1895" y="501" type="line" smooth="yes"/>
      <point x="1895" y="494.419"/>
      <point x="1894.5" y="482.999"/>
      <point x="1892" y="478" type="curve"/>
      <point x="1889" y="456" type="line" smooth="yes"/>
      <point x="1889" y="449.28"/>
      <point x="1886" y="438.818"/>
      <point x="1886" y="434" type="curve" smooth="yes"/>
      <point x="1869.43" y="351.173"/>
      <point x="1852.82" y="288.869"/>
      <point x="1834" y="223" type="curve"/>
      <point x="1827" y="202" type="line" smooth="yes"/>
      <point x="1822.38" y="189.679"/>
      <point x="1810" y="155"/>
      <point x="1810" y="155" type="curve"/>
      <point x="1695" y="199" type="line"/>
      <point x="1708.3" y="238.365"/>
      <point x="1730.22" y="291.682"/>
      <point x="1740" y="335" type="curve" smooth="yes"/>
      <point x="1747" y="366" type="line"/>
      <point x="1758.13" y="393.827"/>
      <point x="1754.1" y="434.197"/>
      <point x="1767" y="460" type="curve"/>
      <point x="1767" y="478.185"/>
      <point x="1771.41" y="496.87"/>
      <point x="1774" y="515" type="curve" smooth="yes"/>
      <point x="1777" y="536" type="line"/>
      <point x="1777" y="544"/>
      <point x="1778" y="551"/>
      <point x="1779" y="558" type="curve" smooth="yes"/>
      <point x="1782" y="604" type="line"/>
    </contour>
    <contour>
      <point x="1210" y="655" type="move" name="Anchor"/>
    </contour>
  </outline>
</glyph>
<glyph name="tenpo" format="1">
  <advance width="2048"/>
  <unicode hex="E66B"/>
  <outline>
    <contour>
      <point x="1024" y="-113" type="curve" smooth="yes"/>
      <point x="750.79" y="-113"/>
      <point x="530.5" y="5.49961"/>
      <point x="383" y="153" type="curve" smooth="yes"/>
      <point x="235.452" y="300.548"/>
      <point x="118" y="519.443"/>
      <point x="118" y="794" type="curve" smooth="yes"/>
      <point x="118" y="1067.82"/>
      <point x="235.882" y="1286.88"/>
      <point x="383" y="1434" type="curve" smooth="yes"/>
      <point x="529.967" y="1582.74"/>
      <point x="749.669" y="1700"/>
      <point x="1024" y="1700" type="curve" smooth="yes"/>
      <point x="1298.05" y="1700"/>
      <point x="1518.21" y="1582.55"/>
      <point x="1665" y="1434" type="curve" smooth="yes"/>
      <point x="1812.3" y="1286.7"/>
      <point x="1930" y="1068.1"/>
      <point x="1930" y="794" type="curve" smooth="yes"/>
      <point x="1930" y="519.699"/>
      <point x="1812.38" y="300.378"/>
      <point x="1665" y="153" type="curve" smooth="yes"/>
      <point x="1517.32" y="5.32154"/>
      <point x="1297.49" y="-113"/>
    </contour>
    <contour>
      <point x="1024" y="1577" type="curve" smooth="yes"/>
      <point x="815" y="1577"/>
      <point x="618" y="1495"/>
      <point x="470" y="1348" type="curve" smooth="yes"/>
      <point x="322" y="1200"/>
      <point x="241" y="1003"/>
      <point x="241" y="794" type="curve" smooth="yes"/>
      <point x="241" y="584"/>
      <point x="322" y="388"/>
      <point x="470" y="240" type="curve" smooth="yes"/>
      <point x="618" y="92"/>
      <point x="815" y="10"/>
      <point x="1024" y="10" type="curve" smooth="yes"/>
      <point x="1233" y="10"/>
      <point x="1430" y="92"/>
      <point x="1578" y="240" type="curve" smooth="yes"/>
      <point x="1726" y="388"/>
      <point x="1807" y="584"/>
      <point x="1807" y="794" type="curve" smooth="yes"/>
      <point x="1807" y="1003"/>
      <point x="1726" y="1200"/>
      <point x="1578" y="1348" type="curve" smooth="yes"/>
      <point x="1430" y="1495"/>
      <point x="1233" y="1577"/>
    </contour>
    <contour>
      <point x="1536" y="655" type="line"/>
      <point x="963" y="655" type="line"/>
      <point x="963" y="1331" type="line"/>
      <point x="1085" y="1331" type="line"/>
      <point x="1085" y="778" type="line"/>
      <point x="1536" y="778" type="line"/>
    </contour>
  </outline>
</glyph>
<glyph name="toki" format="1">
  <advance width="2048"/>
  <unicode hex="E66C"/>
  <outline>
    <contour>
      <point x="1024" y="-113" type="curve" smooth="yes"/>
      <point x="790.089" y="-113"/>
      <point x="599.953" y="-10.9527"/>
      <point x="474" y="115" type="curve" smooth="yes"/>
      <point x="346.519" y="242.481"/>
      <point x="246" y="429.8"/>
      <point x="246" y="666" type="curve" smooth="yes"/>
      <point x="246" y="902.035"/>
      <point x="346.792" y="1088.79"/>
      <point x="474" y="1216" type="curve" smooth="yes"/>
      <point x="600.247" y="1342.25"/>
      <point x="788.356" y="1444"/>
      <point x="1024" y="1444" type="curve" smooth="yes"/>
      <point x="1259.41" y="1444"/>
      <point x="1447.9" y="1342.1"/>
      <point x="1574" y="1216" type="curve" smooth="yes"/>
      <point x="1701.36" y="1088.64"/>
      <point x="1802" y="902.271"/>
      <point x="1802" y="666" type="curve" smooth="yes"/>
      <point x="1802" y="430.042"/>
      <point x="1701.32" y="242.323"/>
      <point x="1574" y="115" type="curve" smooth="yes"/>
      <point x="1447.9" y="-11.1044"/>
      <point x="1258.14" y="-113"/>
    </contour>
    <contour>
      <point x="1024" y="1321" type="curve" smooth="yes"/>
      <point x="849" y="1321"/>
      <point x="684" y="1253"/>
      <point x="561" y="1129" type="curve" smooth="yes"/>
      <point x="437" y="1005"/>
      <point x="369" y="841"/>
      <point x="369" y="666" type="curve" smooth="yes"/>
      <point x="369" y="490"/>
      <point x="437" y="326"/>
      <point x="561" y="202" type="curve" smooth="yes"/>
      <point x="684" y="78"/>
      <point x="849" y="10"/>
      <point x="1024" y="10" type="curve" smooth="yes"/>
      <point x="1199" y="10"/>
      <point x="1364" y="78"/>
      <point x="1487" y="202" type="curve" smooth="yes"/>
      <point x="1611" y="326"/>
      <point x="1679" y="490"/>
      <point x="1679" y="666" type="curve" smooth="yes"/>
      <point x="1679" y="841"/>
      <point x="1611" y="1005"/>
      <point x="1487" y="1129" type="curve" smooth="yes"/>
      <point x="1364" y="1253"/>
      <point x="1199" y="1321"/>
    </contour>
    <contour>
      <point x="1085" y="1536" type="line"/>
      <point x="963" y="1536" type="line"/>
      <point x="963" y="1843" type="line"/>
      <point x="1085" y="1843" type="line"/>
    </contour>
    <contour>
      <point x="1631" y="1339" type="line"/>
      <point x="1544" y="1426" type="line"/>
      <point x="1800" y="1682" type="line"/>
      <point x="1887" y="1595" type="line"/>
    </contour>
    <contour>
      <point x="417" y="1339" type="line"/>
      <point x="161" y="1595" type="line"/>
      <point x="248" y="1682" type="line"/>
      <point x="504" y="1426" type="line"/>
    </contour>
    <contour>
      <point x="1025" y="675" type="move" name="Anchor"/>
    </contour>
  </outline>
</glyph>
<glyph name="unpa" format="1">
  <advance width="2048"/>
  <unicode hex="E66F"/>
  <outline>
    <contour>
      <point x="1495" y="591" type="curve" smooth="yes"/>
      <point x="1495" y="248.986"/>
      <point x="1328.88" y="-113"/>
      <point x="1029" y="-113" type="curve" smooth="yes"/>
      <point x="858.304" y="-113"/>
      <point x="743.1" y="-5.65673"/>
      <point x="672" y="114" type="curve" smooth="yes"/>
      <point x="596" y="241"/>
      <point x="554" y="409"/>
      <point x="553" y="586" type="curve" smooth="yes"/>
      <point x="553" y="588"/>
      <point x="553" y="598"/>
      <point x="554" y="616" type="curve"/>
      <point x="408" y="685"/>
      <point x="285" y="780"/>
      <point x="207" y="885" type="curve" smooth="yes"/>
      <point x="133.134" y="982.785"/>
      <point x="93.4151" y="1106.3"/>
      <point x="93.4151" y="1225.62" type="curve" smooth="yes"/>
      <point x="93.4151" y="1449.85"/>
      <point x="220.143" y="1588.58"/>
      <point x="390" y="1646" type="curve" smooth="yes"/>
      <point x="436" y="1661"/>
      <point x="483" y="1668"/>
      <point x="532" y="1668" type="curve" smooth="yes"/>
      <point x="726.841" y="1668"/>
      <point x="902.312" y="1549.55"/>
      <point x="1026" y="1440" type="curve"/>
      <point x="1150.16" y="1548.2"/>
      <point x="1325.24" y="1668"/>
      <point x="1519" y="1668" type="curve" smooth="yes"/>
      <point x="1658.74" y="1668"/>
      <point x="1765.85" y="1609.12"/>
      <point x="1837" y="1535" type="curve" smooth="yes"/>
      <point x="1907.11" y="1463.29"/>
      <point x="1954.58" y="1360.23"/>
      <point x="1954.58" y="1225.62" type="curve" smooth="yes"/>
      <point x="1954.58" y="1106.3"/>
      <point x="1914.87" y="982.785"/>
      <point x="1841" y="885" type="curve" smooth="yes"/>
      <point x="1757" y="773"/>
      <point x="1638" y="679"/>
      <point x="1495" y="611" type="curve"/>
      <point x="1495" y="604"/>
      <point x="1495" y="597"/>
    </contour>
    <contour>
      <point x="676" y="566" type="curve"/>
      <point x="680" y="420"/>
      <point x="717" y="279"/>
      <point x="777" y="177" type="curve" smooth="yes"/>
      <point x="860" y="39"/>
      <point x="959" y="10"/>
      <point x="1029" y="10" type="curve" smooth="yes"/>
      <point x="1095" y="10"/>
      <point x="1191" y="40"/>
      <point x="1272" y="179" type="curve" smooth="yes"/>
      <point x="1332" y="281"/>
      <point x="1367" y="419"/>
      <point x="1372" y="561" type="curve"/>
      <point x="1257" y="523"/>
      <point x="1136" y="502"/>
      <point x="1024" y="502" type="curve" smooth="yes"/>
      <point x="916" y="502"/>
      <point x="795" y="524"/>
    </contour>
    <contour>
      <point x="689" y="692" type="curve"/>
      <point x="802" y="649"/>
      <point x="922" y="625"/>
      <point x="1024" y="625" type="curve" smooth="yes"/>
      <point x="1135" y="625"/>
      <point x="1256" y="648"/>
      <point x="1369" y="691" type="curve"/>
      <point x="1365" y="728"/>
      <point x="1356" y="771"/>
      <point x="1337" y="824" type="curve" smooth="yes"/>
      <point x="1283.83" y="964.025"/>
      <point x="1135.18" y="1157.7"/>
      <point x="1026" y="1271" type="curve"/>
      <point x="972" y="1216"/>
      <point x="918" y="1154"/>
      <point x="869" y="1089" type="curve" smooth="yes"/>
      <point x="754" y="939"/>
      <point x="708" y="789"/>
    </contour>
    <contour>
      <point x="532" y="1545" type="curve" smooth="yes"/>
      <point x="374.373" y="1545"/>
      <point x="269.133" y="1451.35"/>
      <point x="232" y="1335" type="curve" smooth="yes"/>
      <point x="221.714" y="1301.29"/>
      <point x="216.735" y="1264.88"/>
      <point x="216.735" y="1227.55" type="curve" smooth="yes"/>
      <point x="216.735" y="1134.22"/>
      <point x="247.857" y="1035.14"/>
      <point x="305" y="958" type="curve" smooth="yes"/>
      <point x="366" y="877"/>
      <point x="460" y="802"/>
      <point x="574" y="743" type="curve"/>
      <point x="599" y="853"/>
      <point x="653" y="1009"/>
      <point x="771" y="1164" type="curve" smooth="yes"/>
      <point x="823" y="1232"/>
      <point x="879" y="1297"/>
      <point x="936" y="1355" type="curve"/>
      <point x="756" y="1511"/>
      <point x="618" y="1545"/>
    </contour>
    <contour>
      <point x="1115" y="1355" type="curve"/>
      <point x="1172" y="1297"/>
      <point x="1227" y="1233"/>
      <point x="1279" y="1163" type="curve" smooth="yes"/>
      <point x="1418" y="979"/>
      <point x="1468" y="850"/>
      <point x="1485" y="744" type="curve"/>
      <point x="1591" y="800"/>
      <point x="1679" y="874"/>
      <point x="1743" y="958" type="curve" smooth="yes"/>
      <point x="1800.14" y="1035.14"/>
      <point x="1831.27" y="1134.22"/>
      <point x="1831.27" y="1227.55" type="curve" smooth="yes"/>
      <point x="1831.27" y="1389.06"/>
      <point x="1745.94" y="1486.69"/>
      <point x="1619" y="1529" type="curve" smooth="yes"/>
      <point x="1587" y="1539"/>
      <point x="1554" y="1545"/>
      <point x="1519" y="1545" type="curve" smooth="yes"/>
      <point x="1434" y="1545"/>
      <point x="1296" y="1511"/>
    </contour>
  </outline>
</glyph>
<glyph name="period.space" format="1">
  <advance width="1600"/>
  <unicode hex="E681"/>
  <outline>
    <contour>
      <point x="204" y="131" type="curve" smooth="yes"/>
      <point x="204" y="212.927"/>
      <point x="272.07" y="281"/>
      <point x="354" y="281" type="curve" smooth="yes"/>
      <point x="435.927" y="281"/>
      <point x="504" y="212.93"/>
      <point x="504" y="131" type="curve" smooth="yes"/>
      <point x="504" y="49.1697"/>
      <point x="436.462" y="-20"/>
      <point x="354" y="-20" type="curve" smooth="yes"/>
      <point x="271.543" y="-20"/>
      <point x="204" y="49.1644"/>
    </contour>
  </outline>
</glyph>
<glyph name="kin" format="1">
  <advance width="1741"/>
  <unicode hex="E690"/>
  <outline>
    <contour>
      <point x="932" y="1638" type="line"/>
      <point x="932" y="717" type="line"/>
      <point x="809" y="717" type="line"/>
      <point x="809" y="1638" type="line"/>
    </contour>
    <contour>
      <point x="814" y="512" type="curve"/>
      <point x="927" y="512" type="line"/>
      <point x="926.999" y="459.973"/>
      <point x="918" y="401.522"/>
      <point x="918" y="344" type="curve"/>
      <point x="920" y="346"/>
      <point x="922" y="347"/>
      <point x="925" y="349" type="curve" smooth="yes"/>
      <point x="967.78" y="379.802"/>
      <point x="1003.49" y="403.74"/>
      <point x="1041" y="435" type="curve" smooth="yes"/>
      <point x="1049.01" y="440.341"/>
      <point x="1053.77" y="445.512"/>
      <point x="1059" y="449" type="curve"/>
      <point x="1121" y="355" type="line"/>
      <point x="1096.64" y="345.258"/>
      <point x="1073.84" y="328.551"/>
      <point x="1049" y="315" type="curve" smooth="yes"/>
      <point x="1023" y="298.906"/>
      <point x="988.188" y="275.822"/>
      <point x="957" y="258" type="curve"/>
      <point x="957" y="256" type="line"/>
      <point x="962.835" y="250.165"/>
      <point x="970.625" y="246.25"/>
      <point x="977" y="242" type="curve" smooth="yes"/>
      <point x="1026.47" y="209.656"/>
      <point x="1068.06" y="178.177"/>
      <point x="1121" y="157" type="curve"/>
      <point x="1059" y="63" type="line"/>
      <point x="1015.02" y="98.1867"/>
      <point x="973.585" y="128.019"/>
      <point x="925" y="163" type="curve" smooth="yes"/>
      <point x="922" y="165"/>
      <point x="920" y="166"/>
      <point x="918" y="168" type="curve"/>
      <point x="918" y="114.543"/>
      <point x="918.362" y="68.4663"/>
      <point x="925" y="22" type="curve" smooth="yes"/>
      <point x="925" y="12.2324"/>
      <point x="927" y="5.33741"/>
      <point x="927" y="0" type="curve"/>
      <point x="814" y="0" type="line"/>
      <point x="814" y="5.22853"/>
      <point x="816" y="12.3146"/>
      <point x="816" y="22" type="curve" smooth="yes"/>
      <point x="822.57" y="67.9928"/>
      <point x="823" y="114.855"/>
      <point x="823" y="168" type="curve"/>
      <point x="800.879" y="145.879"/>
      <point x="771.314" y="130.571"/>
      <point x="748" y="113" type="curve" smooth="yes"/>
      <point x="724.193" y="95.0576"/>
      <point x="704.891" y="78.2621"/>
      <point x="682" y="63" type="curve"/>
      <point x="620" y="157" type="line"/>
      <point x="676.834" y="179.734"/>
      <point x="736.869" y="220.907"/>
      <point x="786" y="256" type="curve"/>
      <point x="740.671" y="288.378"/>
      <point x="689.864" y="319.068"/>
      <point x="640" y="344" type="curve" smooth="yes"/>
      <point x="630.701" y="349.314"/>
      <point x="626.686" y="352.326"/>
      <point x="620" y="355" type="curve"/>
      <point x="682" y="449" type="line"/>
      <point x="724.343" y="415.126"/>
      <point x="769.748" y="381.02"/>
      <point x="816" y="349" type="curve" smooth="yes"/>
      <point x="818" y="347"/>
      <point x="821" y="345"/>
      <point x="823" y="344" type="curve"/>
      <point x="823" y="394.216"/>
      <point x="822.394" y="445.24"/>
      <point x="816" y="490" type="curve" smooth="yes"/>
      <point x="816" y="499.768"/>
      <point x="814" y="506.663"/>
    </contour>
  </outline>
</glyph>
<glyph name="kipisi" format="1">
  <advance width="2048"/>
  <unicode hex="E691"/>
  <outline>
    <contour>
      <point x="524" y="233" type="line"/>
      <point x="437" y="320" type="line"/>
      <point x="1523" y="1407" type="line"/>
      <point x="1610" y="1320" type="line"/>
    </contour>
    <contour>
      <point x="639.5" y="1332.5" type="curve" smooth="yes"/>
      <point x="708.57" y="1332.5"/>
      <point x="767.5" y="1273.21"/>
      <point x="767.5" y="1204" type="curve" smooth="yes"/>
      <point x="767.5" y="1134.71"/>
      <point x="709.01" y="1076.25"/>
      <point x="639.5" y="1076.25" type="curve" smooth="yes"/>
      <point x="570.027" y="1076.25"/>
      <point x="511.5" y="1134.68"/>
      <point x="511.5" y="1204" type="curve" smooth="yes"/>
      <point x="511.5" y="1273.17"/>
      <point x="570.395" y="1332.5"/>
    </contour>
    <contour>
      <point x="1407.5" y="564.5" type="curve" smooth="yes"/>
      <point x="1476.57" y="564.5"/>
      <point x="1535.5" y="505.206"/>
      <point x="1535.5" y="436" type="curve" smooth="yes"/>
      <point x="1535.5" y="366.714"/>
      <point x="1477.01" y="308.25"/>
      <point x="1407.5" y="308.25" type="curve" smooth="yes"/>
      <point x="1338.03" y="308.25"/>
      <point x="1279.5" y="366.676"/>
      <point x="1279.5" y="436" type="curve" smooth="yes"/>
      <point x="1279.5" y="505.172"/>
      <point x="1338.4" y="564.5"/>
    </contour>
  </outline>
</glyph>
<glyph name="kipisi.mark.small" format="1">
  <advance width="2048"/>
  <unicode hex="E719"/>
  <outline>
    <contour>
      <point x="1385" y="1589" type="line"/>
      <point x="742" y="946" type="line"/>
      <point x="661" y="1026" type="line"/>
      <point x="1305" y="1670" type="line"/>
    </contour>
    <contour>
      <point x="902" y="1524" type="curve" smooth="yes"/>
      <point x="902" y="1472.67"/>
      <point x="858.817" y="1430"/>
      <point x="807" y="1430" type="curve" smooth="yes"/>
      <point x="755.199" y="1430"/>
      <point x="712" y="1472.65"/>
      <point x="712" y="1524" type="curve" smooth="yes"/>
      <point x="712" y="1575.77"/>
      <point x="755.721" y="1619"/>
      <point x="807" y="1619" type="curve" smooth="yes"/>
      <point x="858.266" y="1619"/>
      <point x="902" y="1575.76"/>
    </contour>
    <contour>
      <point x="1145.25" y="1091.12" type="curve" smooth="yes"/>
      <point x="1145.25" y="1141.73"/>
      <point x="1188.07" y="1186"/>
      <point x="1240" y="1186" type="curve" smooth="yes"/>
      <point x="1290.8" y="1186"/>
      <point x="1334" y="1143.9"/>
      <point x="1334" y="1092" type="curve" smooth="yes"/>
      <point x="1334" y="1039.11"/>
      <point x="1291.35" y="997"/>
      <point x="1240" y="997" type="curve" smooth="yes"/>
      <point x="1188.48" y="997"/>
      <point x="1145.25" y="1040.57"/>
    </contour>
    <contour>
      <point x="1025" y="1350" type="move" name="_Anchor"/>
    </contour>
  </outline>
</glyph>
<glyph name="suno.sup" format="1">
  <advance width="2048"/>
  <unicode hex="E724"/>
  <outline>
    <contour>
      <point x="1085" y="1713" type="line"/>
      <point x="1256.49" y="1691.56"/>
      <point x="1410.23" y="1579.71"/>
      <point x="1442" y="1423" type="curve"/>
      <point x="1638" y="1423" type="line"/>
      <point x="1638" y="1300" type="line"/>
      <point x="1442" y="1300" type="line"/>
      <point x="1410.38" y="1144"/>
      <point x="1257.02" y="1028.55"/>
      <point x="1085" y="1009" type="curve"/>
      <point x="1085" y="922" type="line"/>
      <point x="963" y="922" type="line"/>
      <point x="963" y="1009" type="line"/>
      <point x="791.091" y="1028.54"/>
      <point x="636.533" y="1144.44"/>
      <point x="605" y="1300" type="curve"/>
      <point x="410" y="1300" type="line"/>
      <point x="410" y="1423" type="line"/>
      <point x="605" y="1423" type="line"/>
      <point x="636.666" y="1579.22"/>
      <point x="791.905" y="1691.61"/>
      <point x="963" y="1713" type="curve"/>
      <point x="963" y="1843" type="line"/>
      <point x="1085" y="1843" type="line"/>
    </contour>
    <contour>
      <point x="1326" y="1361" type="curve" smooth="yes"/>
      <point x="1326" y="1502.63"/>
      <point x="1169.67" y="1594"/>
      <point x="1024" y="1594" type="curve" smooth="yes"/>
      <point x="878.276" y="1594"/>
      <point x="722" y="1502.73"/>
      <point x="722" y="1361" type="curve" smooth="yes"/>
      <point x="722" y="1219.37"/>
      <point x="878.335" y="1128"/>
      <point x="1024" y="1128" type="curve" smooth="yes"/>
      <point x="1169.72" y="1128"/>
      <point x="1326" y="1219.27"/>
    </contour>
    <contour>
      <point x="1025" y="1350" type="move" name="_Anchor"/>
    </contour>
  </outline>
</glyph>
<glyph name="oko.sup" format="1">
  <advance width="2048"/>
  <unicode hex="E728"/>
  <outline>
    <contour>
      <point x="623" y="1309" type="curve" smooth="yes"/>
      <point x="615" y="1309"/>
      <point x="606" y="1310"/>
      <point x="598" y="1311" type="curve"/>
      <point x="573" y="1311" type="line"/>
      <point x="573" y="1393" type="line"/>
      <point x="598" y="1394" type="line" smooth="yes"/>
      <point x="606" y="1394"/>
      <point x="615" y="1395"/>
      <point x="623" y="1395" type="curve" smooth="yes"/>
      <point x="689.352" y="1402.81"/>
      <point x="752.015" y="1411.73"/>
      <point x="805" y="1431" type="curve"/>
      <point x="848.085" y="1441.77"/>
      <point x="895.416" y="1463.19"/>
      <point x="928" y="1486" type="curve" smooth="yes"/>
      <point x="952.634" y="1499.11"/>
      <point x="979.101" y="1515.1"/>
      <point x="998" y="1534" type="curve"/>
      <point x="1021.1" y="1550.17"/>
      <point x="1040.63" y="1571.63"/>
      <point x="1060" y="1591" type="curve" smooth="yes"/>
      <point x="1061" y="1593"/>
      <point x="1063" y="1594"/>
      <point x="1064" y="1596" type="curve" smooth="yes"/>
      <point x="1111.45" y="1643.45"/>
      <point x="1144.69" y="1707.93"/>
      <point x="1171" y="1776" type="curve"/>
      <point x="1179" y="1799" type="line"/>
      <point x="1276" y="1767" type="line"/>
      <point x="1266" y="1740" type="line" smooth="yes"/>
      <point x="1258.82" y="1722.85"/>
      <point x="1251.5" y="1705.84"/>
      <point x="1244" y="1689" type="curve"/>
      <point x="1334" y="1595"/>
      <point x="1382" y="1476"/>
      <point x="1382" y="1350" type="curve" smooth="yes"/>
      <point x="1382" y="1226"/>
      <point x="1334" y="1107"/>
      <point x="1245" y="1013" type="curve"/>
      <point x="1252.28" y="996.618"/>
      <point x="1259.21" y="979.882"/>
      <point x="1266" y="963" type="curve" smooth="yes"/>
      <point x="1275" y="939" type="line"/>
      <point x="1179" y="905" type="line"/>
      <point x="1173.48" y="920.485"/>
      <point x="1167.88" y="935.88"/>
      <point x="1162" y="951" type="curve" smooth="yes"/>
      <point x="1153" y="973" type="line"/>
      <point x="1133.12" y="1013.26"/>
      <point x="1111.21" y="1053.26"/>
      <point x="1083" y="1085" type="curve" smooth="yes"/>
      <point x="1077.28" y="1096.43"/>
      <point x="1065.32" y="1102.37"/>
      <point x="1060" y="1113" type="curve" smooth="yes"/>
      <point x="1035.57" y="1139.65"/>
      <point x="1009" y="1164"/>
      <point x="979" y="1185" type="curve"/>
      <point x="949.235" y="1214.76"/>
      <point x="902.192" y="1234.19"/>
      <point x="863" y="1252" type="curve"/>
      <point x="825.636" y="1261.34"/>
      <point x="788.222" y="1282.96"/>
      <point x="746" y="1290" type="curve" smooth="yes"/>
      <point x="738" y="1292"/>
      <point x="730" y="1294"/>
      <point x="722" y="1296" type="curve" smooth="yes"/>
      <point x="690.174" y="1301.3"/>
      <point x="657.579" y="1306.97"/>
    </contour>
    <contour>
      <point x="1273" y="1425" type="curve"/>
      <point x="1237" y="1415"/>
      <point x="1211" y="1386"/>
      <point x="1211" y="1352" type="curve" smooth="yes"/>
      <point x="1211" y="1318"/>
      <point x="1237" y="1289"/>
      <point x="1273" y="1279" type="curve"/>
      <point x="1278" y="1303"/>
      <point x="1280" y="1326"/>
      <point x="1280" y="1350" type="curve" smooth="yes"/>
      <point x="1280" y="1376"/>
      <point x="1278" y="1400"/>
    </contour>
    <contour>
      <point x="1010" y="1427" type="curve"/>
      <point x="958.873" y="1401.44"/>
      <point x="909.415" y="1370.12"/>
      <point x="849" y="1352" type="curve"/>
      <point x="910.041" y="1333.69"/>
      <point x="958.395" y="1302.8"/>
      <point x="1010" y="1277" type="curve"/>
      <point x="1078.86" y="1231.1"/>
      <point x="1136.02" y="1178.3"/>
      <point x="1185" y="1113" type="curve" smooth="yes"/>
      <point x="1187" y="1111"/>
      <point x="1188" y="1108"/>
      <point x="1190" y="1106" type="curve"/>
      <point x="1212" y="1132"/>
      <point x="1231" y="1161"/>
      <point x="1245" y="1192" type="curve"/>
      <point x="1172" y="1214"/>
      <point x="1119" y="1277"/>
      <point x="1119" y="1352" type="curve" smooth="yes"/>
      <point x="1119" y="1426"/>
      <point x="1171" y="1490"/>
      <point x="1243" y="1512" type="curve"/>
      <point x="1229" y="1542"/>
      <point x="1211" y="1571"/>
      <point x="1189" y="1597" type="curve"/>
      <point x="1176.92" y="1572.83"/>
      <point x="1153.65" y="1549.65"/>
      <point x="1135" y="1531" type="curve" smooth="yes"/>
      <point x="1096.29" y="1492.29"/>
      <point x="1056.33" y="1457.89"/>
    </contour>
    <contour>
      <point x="1025" y="1350" type="move" name="_Anchor"/>
    </contour>
  </outline>
</glyph>
<glyph name="lili.mark.small" format="1">
  <advance width="2048"/>
  <unicode hex="E800"/>
  <outline>
    <contour>
      <point x="1255" y="515" type="line"/>
      <point x="997" y="833" type="line"/>
      <point x="1093" y="911" type="line"/>
      <point x="1255" y="711" type="line"/>
      <point x="1416" y="910" type="line"/>
      <point x="1512" y="833" type="line"/>
    </contour>
    <contour>
      <point x="1255" y="750" type="move" name="_Anchor"/>
    </contour>
  </outline>
</glyph>
<glyph name="lete.mark.small" format="1">
  <advance width="2048"/>
  <unicode hex="E801"/>
  <outline>
    <contour>
      <point x="930" y="682" type="curve" smooth="yes"/>
      <point x="906" y="682" type="line"/>
      <point x="906" y="805" type="line"/>
      <point x="976.295" y="805"/>
      <point x="1055.75" y="800.95"/>
      <point x="1130" y="796" type="curve"/>
      <point x="1158" y="796" type="line"/>
      <point x="1150.09" y="803.909"/>
      <point x="1143.64" y="815.536"/>
      <point x="1138" y="824" type="curve" smooth="yes"/>
      <point x="1090.64" y="890.3"/>
      <point x="1042.51" y="955.114"/>
      <point x="993" y="1017" type="curve"/>
      <point x="1087" y="1082" type="line"/>
      <point x="1097" y="1066" type="line"/>
      <point x="1110.05" y="1052.95"/>
      <point x="1115.65" y="1029.35"/>
      <point x="1129" y="1016" type="curve"/>
      <point x="1168.6" y="953.765"/>
      <point x="1213.74" y="889.895"/>
      <point x="1255" y="828" type="curve"/>
      <point x="1260" y="836"/>
      <point x="1266" y="845"/>
      <point x="1272" y="854" type="curve" smooth="yes"/>
      <point x="1290" y="881" type="line"/>
      <point x="1336.89" y="946.652"/>
      <point x="1380.82" y="1015.52"/>
      <point x="1423" y="1083" type="curve"/>
      <point x="1516" y="1017" type="line"/>
      <point x="1460.23" y="947.284"/>
      <point x="1406.51" y="869.586"/>
      <point x="1352" y="796" type="curve"/>
      <point x="1378" y="796" type="line"/>
      <point x="1445.43" y="800.214"/>
      <point x="1513.27" y="803"/>
      <point x="1578" y="803" type="curve" smooth="yes"/>
      <point x="1602" y="803" type="line"/>
      <point x="1602" y="680" type="line"/>
      <point x="1530.79" y="680"/>
      <point x="1454.1" y="689"/>
      <point x="1378" y="689" type="curve" smooth="yes"/>
      <point x="1350.88" y="689" type="line"/>
      <point x="1516" y="468" type="line"/>
      <point x="1423" y="403" type="line"/>
      <point x="1413" y="419" type="line"/>
      <point x="1399.22" y="432.775"/>
      <point x="1392.9" y="451.998"/>
      <point x="1381" y="469" type="curve" smooth="yes"/>
      <point x="1351.61" y="513.083"/>
      <point x="1321.24" y="559.643"/>
      <point x="1291" y="605" type="curve" smooth="yes"/>
      <point x="1273" y="632" type="line" smooth="yes"/>
      <point x="1266" y="641"/>
      <point x="1261" y="649"/>
      <point x="1255" y="658" type="curve"/>
      <point x="1203.64" y="580.96"/>
      <point x="1140.11" y="505.226"/>
      <point x="1099" y="423" type="curve" smooth="yes"/>
      <point x="1098" y="421"/>
      <point x="1096" y="420"/>
      <point x="1096" y="418" type="curve"/>
      <point x="1085" y="402" type="line"/>
      <point x="992" y="467" type="line"/>
      <point x="1004" y="482" type="line"/>
      <point x="1019.07" y="512.145"/>
      <point x="1046.87" y="537.416"/>
      <point x="1068" y="567" type="curve" smooth="yes"/>
      <point x="1101" y="611" type="line"/>
      <point x="1118.45" y="637.168"/>
      <point x="1139.3" y="662.452"/>
      <point x="1157" y="689" type="curve"/>
      <point x="1130" y="689" type="line" smooth="yes"/>
      <point x="1062.32" y="689"/>
      <point x="993.604" y="682"/>
    </contour>
    <contour>
      <point x="1255" y="750" type="move" name="_Anchor"/>
    </contour>
  </outline>
</glyph>
<glyph name="kasi.base" format="1">
  <advance width="2048"/>
  <unicode hex="E805"/>
  <outline>
    <contour>
      <point x="2010" y="742" type="line" smooth="yes"/>
      <point x="2010" y="739"/>
      <point x="2011" y="735"/>
      <point x="2010" y="732" type="curve" smooth="yes"/>
      <point x="2010" y="725"/>
      <point x="2010" y="719"/>
      <point x="2010" y="712" type="curve" smooth="yes"/>
      <point x="2009" y="699"/>
      <point x="2008" y="686"/>
      <point x="2007" y="673" type="curve" smooth="yes"/>
      <point x="2005" y="647"/>
      <point x="2001" y="621"/>
      <point x="1995" y="596" type="curve" smooth="yes"/>
      <point x="1990" y="570"/>
      <point x="1983" y="545"/>
      <point x="1974" y="520" type="curve" smooth="yes"/>
      <point x="1966" y="495"/>
      <point x="1955" y="470"/>
      <point x="1943" y="447" type="curve" smooth="yes"/>
      <point x="1931" y="423"/>
      <point x="1916" y="400"/>
      <point x="1900" y="378" type="curve" smooth="yes"/>
      <point x="1884" y="356"/>
      <point x="1866" y="336"/>
      <point x="1845" y="317" type="curve" smooth="yes"/>
      <point x="1825" y="298"/>
      <point x="1803" y="281"/>
      <point x="1780" y="267" type="curve" smooth="yes"/>
      <point x="1757" y="252"/>
      <point x="1733" y="240"/>
      <point x="1708" y="230" type="curve" smooth="yes"/>
      <point x="1696" y="224"/>
      <point x="1683" y="220"/>
      <point x="1670" y="216" type="curve" smooth="yes"/>
      <point x="1657" y="212"/>
      <point x="1645" y="208"/>
      <point x="1632" y="205" type="curve" smooth="yes"/>
      <point x="1606" y="199"/>
      <point x="1580" y="194"/>
      <point x="1554" y="191" type="curve" smooth="yes"/>
      <point x="1529" y="188"/>
      <point x="1503" y="187"/>
      <point x="1477" y="187" type="curve" smooth="yes"/>
      <point x="1452" y="187"/>
      <point x="1426" y="187"/>
      <point x="1401" y="189" type="curve" smooth="yes"/>
      <point x="1351" y="193"/>
      <point x="1302" y="201"/>
      <point x="1253" y="211" type="curve" smooth="yes"/>
      <point x="1206" y="221"/>
      <point x="1160" y="233"/>
      <point x="1114" y="246" type="curve"/>
      <point x="1111" y="235"/>
      <point x="1108" y="224"/>
      <point x="1106" y="213" type="curve" smooth="yes"/>
      <point x="1094" y="161"/>
      <point x="1086" y="108"/>
      <point x="1081" y="54" type="curve"/>
      <point x="1085" y="-51" type="line"/>
      <point x="963" y="-51" type="line"/>
      <point x="967" y="54" type="line"/>
      <point x="962" y="107"/>
      <point x="954" y="160"/>
      <point x="942" y="212" type="curve" smooth="yes"/>
      <point x="940" y="224"/>
      <point x="937" y="235"/>
      <point x="934" y="246" type="curve"/>
      <point x="889" y="233"/>
      <point x="842" y="221"/>
      <point x="795" y="211" type="curve" smooth="yes"/>
      <point x="746" y="201"/>
      <point x="697" y="193"/>
      <point x="647" y="189" type="curve" smooth="yes"/>
      <point x="622" y="188"/>
      <point x="597" y="187"/>
      <point x="571" y="187" type="curve" smooth="yes"/>
      <point x="558" y="187"/>
      <point x="546" y="187"/>
      <point x="533" y="188" type="curve" smooth="yes"/>
      <point x="520" y="189"/>
      <point x="507" y="190"/>
      <point x="494" y="191" type="curve" smooth="yes"/>
      <point x="468" y="194"/>
      <point x="443" y="199"/>
      <point x="417" y="205" type="curve" smooth="yes"/>
      <point x="391" y="211"/>
      <point x="366" y="219"/>
      <point x="341" y="230" type="curve" smooth="yes"/>
      <point x="316" y="240"/>
      <point x="292" y="252"/>
      <point x="268" y="267" type="curve" smooth="yes"/>
      <point x="246" y="282"/>
      <point x="224" y="298"/>
      <point x="204" y="317" type="curve" smooth="yes"/>
      <point x="184" y="336"/>
      <point x="165" y="356"/>
      <point x="149" y="378" type="curve" smooth="yes"/>
      <point x="133" y="400"/>
      <point x="119" y="423"/>
      <point x="107" y="447" type="curve" smooth="yes"/>
      <point x="94" y="471"/>
      <point x="84" y="495"/>
      <point x="76" y="520" type="curve" smooth="yes"/>
      <point x="67" y="545"/>
      <point x="60" y="571"/>
      <point x="55" y="596" type="curve" smooth="yes"/>
      <point x="50" y="622"/>
      <point x="46" y="648"/>
      <point x="43" y="673" type="curve" smooth="yes"/>
      <point x="42" y="686"/>
      <point x="41" y="699"/>
      <point x="41" y="712" type="curve" smooth="yes"/>
      <point x="41" y="719"/>
      <point x="41" y="726"/>
      <point x="41" y="732" type="curve" smooth="yes"/>
      <point x="41" y="736"/>
      <point x="41" y="739"/>
      <point x="41" y="742" type="curve" smooth="yes"/>
      <point x="41" y="748" type="line"/>
      <point x="41" y="751" type="line"/>
      <point x="41" y="754" type="line"/>
      <point x="44" y="799" type="line"/>
      <point x="87" y="809" type="line" smooth="yes"/>
      <point x="155" y="826"/>
      <point x="223" y="838"/>
      <point x="293" y="843" type="curve" smooth="yes"/>
      <point x="315.189" y="844.902"/>
      <point x="337.78" y="845.598"/>
      <point x="360.263" y="845.598" type="curve" smooth="yes"/>
      <point x="373.244" y="845.598"/>
      <point x="386.189" y="845.366"/>
      <point x="399" y="845" type="curve" smooth="yes"/>
      <point x="417" y="845"/>
      <point x="435" y="844"/>
      <point x="453" y="841" type="curve" smooth="yes"/>
      <point x="460" y="841" type="line"/>
      <point x="466" y="840" type="line"/>
      <point x="480" y="838" type="line" smooth="yes"/>
      <point x="488" y="837"/>
      <point x="497" y="836"/>
      <point x="506" y="834" type="curve" smooth="yes"/>
      <point x="515" y="833"/>
      <point x="524" y="831"/>
      <point x="533" y="829" type="curve" smooth="yes"/>
      <point x="542" y="827"/>
      <point x="551" y="825"/>
      <point x="559" y="823" type="curve" smooth="yes"/>
      <point x="577" y="818"/>
      <point x="595" y="813"/>
      <point x="612" y="807" type="curve" smooth="yes"/>
      <point x="629" y="801"/>
      <point x="646" y="794"/>
      <point x="663" y="786" type="curve" smooth="yes"/>
      <point x="679" y="779"/>
      <point x="696" y="770"/>
      <point x="712" y="761" type="curve" smooth="yes"/>
      <point x="744" y="743"/>
      <point x="774" y="721"/>
      <point x="801" y="697" type="curve" smooth="yes"/>
      <point x="829" y="674"/>
      <point x="855" y="647"/>
      <point x="878" y="619" type="curve" smooth="yes"/>
      <point x="900" y="591"/>
      <point x="921" y="561"/>
      <point x="939" y="530" type="curve" smooth="yes"/>
      <point x="957" y="499"/>
      <point x="972" y="467"/>
      <point x="986" y="435" type="curve" smooth="yes"/>
      <point x="1001" y="400"/>
      <point x="1014" y="364"/>
      <point x="1024" y="328" type="curve"/>
      <point x="1035" y="365"/>
      <point x="1048" y="400"/>
      <point x="1063" y="436" type="curve" smooth="yes"/>
      <point x="1076" y="468"/>
      <point x="1092" y="500"/>
      <point x="1110" y="531" type="curve" smooth="yes"/>
      <point x="1128" y="562"/>
      <point x="1149" y="592"/>
      <point x="1172" y="620" type="curve" smooth="yes"/>
      <point x="1195" y="648"/>
      <point x="1220" y="674"/>
      <point x="1248" y="698" type="curve" smooth="yes"/>
      <point x="1276" y="722"/>
      <point x="1306" y="743"/>
      <point x="1339" y="762" type="curve" smooth="yes"/>
      <point x="1355" y="771"/>
      <point x="1371" y="779"/>
      <point x="1388" y="787" type="curve" smooth="yes"/>
      <point x="1404" y="794"/>
      <point x="1422" y="801"/>
      <point x="1439" y="807" type="curve" smooth="yes"/>
      <point x="1443" y="809"/>
      <point x="1447" y="810"/>
      <point x="1452" y="812" type="curve" smooth="yes"/>
      <point x="1465" y="816" type="line" smooth="yes"/>
      <point x="1474" y="818"/>
      <point x="1482" y="821"/>
      <point x="1491" y="823" type="curve" smooth="yes"/>
      <point x="1500" y="825"/>
      <point x="1509" y="827"/>
      <point x="1518" y="829" type="curve" smooth="yes"/>
      <point x="1526" y="831"/>
      <point x="1535" y="833"/>
      <point x="1544" y="834" type="curve" smooth="yes"/>
      <point x="1553" y="836"/>
      <point x="1562" y="837"/>
      <point x="1571" y="838" type="curve" smooth="yes"/>
      <point x="1580" y="840"/>
      <point x="1589" y="841"/>
      <point x="1598" y="842" type="curve" smooth="yes"/>
      <point x="1616" y="844"/>
      <point x="1633" y="845"/>
      <point x="1651" y="845" type="curve" smooth="yes"/>
      <point x="1664.18" y="845.366"/>
      <point x="1677.22" y="845.598"/>
      <point x="1690.18" y="845.598" type="curve" smooth="yes"/>
      <point x="1712.62" y="845.598"/>
      <point x="1734.81" y="844.902"/>
      <point x="1757" y="843" type="curve" smooth="yes"/>
      <point x="1828" y="838"/>
      <point x="1896" y="826"/>
      <point x="1963" y="809" type="curve" smooth="yes"/>
      <point x="2007" y="799" type="line"/>
      <point x="2010" y="754" type="line"/>
      <point x="2010" y="750" type="line"/>
      <point x="2010" y="747" type="line"/>
    </contour>
    <contour>
      <point x="773" y="322" type="curve" smooth="yes"/>
      <point x="815" y="331"/>
      <point x="858" y="342"/>
      <point x="901" y="354" type="curve"/>
      <point x="896" y="366"/>
      <point x="890" y="379"/>
      <point x="885" y="391" type="curve" smooth="yes"/>
      <point x="860" y="448"/>
      <point x="829" y="501"/>
      <point x="791" y="547" type="curve" smooth="yes"/>
      <point x="771" y="571"/>
      <point x="750" y="592"/>
      <point x="728" y="611" type="curve" smooth="yes"/>
      <point x="705" y="630"/>
      <point x="681" y="647"/>
      <point x="655" y="661" type="curve" smooth="yes"/>
      <point x="642" y="668"/>
      <point x="629" y="675"/>
      <point x="615" y="681" type="curve" smooth="yes"/>
      <point x="602" y="687"/>
      <point x="588" y="692"/>
      <point x="574" y="697" type="curve" smooth="yes"/>
      <point x="560" y="702"/>
      <point x="545" y="706"/>
      <point x="531" y="709" type="curve" smooth="yes"/>
      <point x="523" y="711"/>
      <point x="516" y="712"/>
      <point x="509" y="714" type="curve" smooth="yes"/>
      <point x="501" y="716"/>
      <point x="494" y="717"/>
      <point x="487" y="718" type="curve" smooth="yes"/>
      <point x="479" y="719"/>
      <point x="472" y="720"/>
      <point x="464" y="721" type="curve" smooth="yes"/>
      <point x="453" y="723" type="line"/>
      <point x="447" y="723" type="line"/>
      <point x="442" y="724" type="line" smooth="yes"/>
      <point x="426" y="725"/>
      <point x="411" y="726"/>
      <point x="396" y="726" type="curve" smooth="yes"/>
      <point x="388.25" y="726.25"/>
      <point x="380.5" y="726.375"/>
      <point x="372.75" y="726.375" type="curve" smooth="yes"/>
      <point x="303" y="723" type="line" smooth="yes"/>
      <point x="257" y="719"/>
      <point x="210" y="711"/>
      <point x="164" y="701" type="curve"/>
      <point x="164" y="696"/>
      <point x="165" y="690"/>
      <point x="165" y="684" type="curve" smooth="yes"/>
      <point x="167" y="663"/>
      <point x="170" y="641"/>
      <point x="174" y="621" type="curve" smooth="yes"/>
      <point x="178" y="600"/>
      <point x="184" y="579"/>
      <point x="190" y="559" type="curve" smooth="yes"/>
      <point x="197" y="539"/>
      <point x="205" y="520"/>
      <point x="214" y="501" type="curve" smooth="yes"/>
      <point x="223" y="483"/>
      <point x="234" y="465"/>
      <point x="246" y="449" type="curve" smooth="yes"/>
      <point x="258" y="433"/>
      <point x="271" y="418"/>
      <point x="285" y="404" type="curve" smooth="yes"/>
      <point x="300" y="390"/>
      <point x="316" y="377"/>
      <point x="332" y="367" type="curve" smooth="yes"/>
      <point x="349" y="356"/>
      <point x="367" y="346"/>
      <point x="386" y="338" type="curve" smooth="yes"/>
      <point x="405" y="330"/>
      <point x="425" y="324"/>
      <point x="445" y="318" type="curve" smooth="yes"/>
      <point x="465" y="313"/>
      <point x="486" y="310"/>
      <point x="508" y="307" type="curve" smooth="yes"/>
      <point x="518" y="306"/>
      <point x="529" y="305"/>
      <point x="540" y="304" type="curve" smooth="yes"/>
      <point x="551" y="303"/>
      <point x="562" y="303"/>
      <point x="573" y="303" type="curve" smooth="yes"/>
      <point x="579.444" y="302.707"/>
      <point x="585.887" y="302.586"/>
      <point x="592.331" y="302.586" type="curve" smooth="yes"/>
      <point x="639" y="304" type="line" smooth="yes"/>
      <point x="683" y="307"/>
      <point x="728" y="314"/>
    </contour>
    <contour>
      <point x="1876" y="621" type="curve" smooth="yes"/>
      <point x="1881" y="642"/>
      <point x="1884" y="663"/>
      <point x="1886" y="684" type="curve" smooth="yes"/>
      <point x="1886" y="690"/>
      <point x="1886" y="696"/>
      <point x="1887" y="701" type="curve"/>
      <point x="1841" y="711"/>
      <point x="1794" y="719"/>
      <point x="1748" y="723" type="curve" smooth="yes"/>
      <point x="1724.75" y="725.25"/>
      <point x="1701.5" y="726.375"/>
      <point x="1678.25" y="726.375" type="curve" smooth="yes"/>
      <point x="1655" y="726" type="line" smooth="yes"/>
      <point x="1639" y="726"/>
      <point x="1624" y="725"/>
      <point x="1609" y="724" type="curve" smooth="yes"/>
      <point x="1601" y="723"/>
      <point x="1594" y="722"/>
      <point x="1586" y="721" type="curve" smooth="yes"/>
      <point x="1579" y="720"/>
      <point x="1571" y="719"/>
      <point x="1564" y="718" type="curve" smooth="yes"/>
      <point x="1556" y="717"/>
      <point x="1549" y="716"/>
      <point x="1542" y="714" type="curve" smooth="yes"/>
      <point x="1534" y="713"/>
      <point x="1527" y="711"/>
      <point x="1519" y="709" type="curve" smooth="yes"/>
      <point x="1505" y="706"/>
      <point x="1491" y="702"/>
      <point x="1476" y="697" type="curve" smooth="yes"/>
      <point x="1462" y="692"/>
      <point x="1448" y="687"/>
      <point x="1435" y="681" type="curve" smooth="yes"/>
      <point x="1421" y="675"/>
      <point x="1408" y="668"/>
      <point x="1395" y="661" type="curve" smooth="yes"/>
      <point x="1369" y="647"/>
      <point x="1345" y="630"/>
      <point x="1322" y="611" type="curve" smooth="yes"/>
      <point x="1299" y="592"/>
      <point x="1278" y="571"/>
      <point x="1259" y="548" type="curve" smooth="yes"/>
      <point x="1220" y="502"/>
      <point x="1188" y="449"/>
      <point x="1163" y="392" type="curve" smooth="yes"/>
      <point x="1158" y="379"/>
      <point x="1153" y="367"/>
      <point x="1148" y="354" type="curve"/>
      <point x="1190" y="342"/>
      <point x="1233" y="331"/>
      <point x="1276" y="322" type="curve" smooth="yes"/>
      <point x="1320" y="314"/>
      <point x="1365" y="307"/>
      <point x="1410" y="304" type="curve" smooth="yes"/>
      <point x="1425.56" y="303.293"/>
      <point x="1441.11" y="302.586"/>
      <point x="1456.67" y="302.586" type="curve" smooth="yes"/>
      <point x="1476" y="303" type="line" smooth="yes"/>
      <point x="1498" y="303"/>
      <point x="1520" y="305"/>
      <point x="1541" y="307" type="curve" smooth="yes"/>
      <point x="1562" y="310"/>
      <point x="1583" y="314"/>
      <point x="1604" y="319" type="curve" smooth="yes"/>
      <point x="1614" y="321"/>
      <point x="1624" y="324"/>
      <point x="1634" y="327" type="curve" smooth="yes"/>
      <point x="1644" y="331"/>
      <point x="1653" y="334"/>
      <point x="1663" y="338" type="curve" smooth="yes"/>
      <point x="1682" y="346"/>
      <point x="1700" y="356"/>
      <point x="1717" y="367" type="curve" smooth="yes"/>
      <point x="1734" y="378"/>
      <point x="1749" y="390"/>
      <point x="1764" y="404" type="curve" smooth="yes"/>
      <point x="1779" y="418"/>
      <point x="1792" y="433"/>
      <point x="1804" y="449" type="curve" smooth="yes"/>
      <point x="1816" y="465"/>
      <point x="1826" y="483"/>
      <point x="1836" y="502" type="curve" smooth="yes"/>
      <point x="1854" y="538"/>
      <point x="1868" y="579"/>
    </contour>
    <contour>
      <point x="1025" y="1370" type="move" name="Anchor"/>
    </contour>
  </outline>
</glyph>
<glyph name="palisa.mark.small" format="1">
  <advance width="2048"/>
  <unicode hex="E812"/>
  <outline>
    <contour>
      <point x="1024" y="860" type="curve" smooth="yes"/>
      <point x="953" y="860"/>
      <point x="886" y="783"/>
      <point x="886" y="701" type="curve" smooth="yes"/>
      <point x="886" y="327" type="line" smooth="yes"/>
      <point x="886" y="288"/>
      <point x="902" y="245"/>
      <point x="930" y="213" type="curve" smooth="yes"/>
      <point x="966" y="170"/>
      <point x="1005" y="164"/>
      <point x="1024" y="164" type="curve" smooth="yes"/>
      <point x="1043" y="164"/>
      <point x="1082" y="170"/>
      <point x="1118" y="213" type="curve" smooth="yes"/>
      <point x="1146" y="245"/>
      <point x="1162" y="288"/>
      <point x="1162" y="327" type="curve" smooth="yes"/>
      <point x="1162" y="701" type="line" smooth="yes"/>
      <point x="1162" y="783"/>
      <point x="1095" y="860"/>
    </contour>
    <contour>
      <point x="1056" y="981" type="curve"/>
      <point x="1114" y="973"/>
      <point x="1168" y="942"/>
      <point x="1211" y="893" type="curve" smooth="yes"/>
      <point x="1258" y="839"/>
      <point x="1285" y="769"/>
      <point x="1285" y="701" type="curve" smooth="yes"/>
      <point x="1285" y="327" type="line" smooth="yes"/>
      <point x="1285" y="258"/>
      <point x="1258" y="188"/>
      <point x="1212" y="134" type="curve" smooth="yes"/>
      <point x="1162" y="75"/>
      <point x="1093" y="41"/>
      <point x="1024" y="41" type="curve" smooth="yes"/>
      <point x="955" y="41"/>
      <point x="886" y="75"/>
      <point x="836" y="134" type="curve" smooth="yes"/>
      <point x="790" y="188"/>
      <point x="763" y="258"/>
      <point x="763" y="327" type="curve" smooth="yes"/>
      <point x="763" y="701" type="line" smooth="yes"/>
      <point x="763" y="769"/>
      <point x="790" y="839"/>
      <point x="837" y="893" type="curve" smooth="yes"/>
      <point x="879" y="942"/>
      <point x="933" y="972"/>
      <point x="990" y="981" type="curve"/>
      <point x="997.828" y="983.469"/>
      <point x="1015.77" y="984.364"/>
      <point x="1036.49" y="982.974" type="curve" smooth="yes"/>
      <point x="1043.43" y="982.508"/>
      <point x="1050.02" y="981.826"/>
    </contour>
    <contour>
      <point x="1025" y="520" type="move" name="_Anchor"/>
    </contour>
  </outline>
</glyph>
<glyph name="kasi.mark.small" format="1">
  <advance width="2048"/>
  <unicode hex="E818"/>
  <outline>
    <contour>
      <point x="1617" y="1008" type="line"/>
      <point x="1617" y="803.909"/>
      <point x="1476.55" y="712"/>
      <point x="1273" y="712" type="curve" smooth="yes"/>
      <point x="1252" y="712" type="line" smooth="yes"/>
      <point x="1198.35" y="712"/>
      <point x="1130.11" y="722.459"/>
      <point x="1086" y="739" type="curve"/>
      <point x="1081" y="720"/>
      <point x="1074.75" y="701.247"/>
      <point x="1075" y="683" type="curve" smooth="yes"/>
      <point x="1080" y="322" type="line"/>
      <point x="967" y="322" type="line"/>
      <point x="971" y="682" type="line"/>
      <point x="969" y="701"/>
      <point x="965" y="720"/>
      <point x="960" y="739" type="curve"/>
      <point x="933.944" y="732.486"/>
      <point x="905.184" y="726.697"/>
      <point x="877" y="722" type="curve" smooth="yes"/>
      <point x="870" y="721"/>
      <point x="863" y="720"/>
      <point x="856" y="719" type="curve" smooth="yes"/>
      <point x="833.141" y="715.483"/>
      <point x="808.896" y="713"/>
      <point x="784" y="713" type="curve" smooth="yes"/>
      <point x="731" y="713" type="line" smooth="yes"/>
      <point x="550.558" y="713"/>
      <point x="431" y="819.746"/>
      <point x="431" y="1011" type="curve"/>
      <point x="434" y="1053" type="line"/>
      <point x="476" y="1062" type="line"/>
      <point x="528.463" y="1071.93"/>
      <point x="578.906" y="1076.84"/>
      <point x="626.647" y="1076.84" type="curve" smooth="yes"/>
      <point x="814.511" y="1076.84"/>
      <point x="960.519" y="1000.79"/>
      <point x="1023" y="855" type="curve"/>
      <point x="1094.32" y="997.632"/>
      <point x="1232.3" y="1076.96"/>
      <point x="1421.55" y="1076.96" type="curve" smooth="yes"/>
      <point x="1468.61" y="1076.96"/>
      <point x="1518.84" y="1072.06"/>
      <point x="1572" y="1062" type="curve"/>
      <point x="1614" y="1053" type="line"/>
      <point x="1614" y="1008" type="line"/>
    </contour>
    <contour>
      <point x="808" y="820" type="curve" smooth="yes"/>
      <point x="842.036" y="820"/>
      <point x="893.093" y="822.546"/>
      <point x="920" y="836" type="curve"/>
      <point x="918" y="838"/>
      <point x="917" y="840"/>
      <point x="915" y="843" type="curve" smooth="yes"/>
      <point x="859.219" y="930.158"/>
      <point x="764.96" y="966.831"/>
      <point x="639.748" y="966.831" type="curve" smooth="yes"/>
      <point x="610.49" y="966.831"/>
      <point x="579.542" y="964.828"/>
      <point x="547" y="961" type="curve"/>
      <point x="567.695" y="857.526"/>
      <point x="673.462" y="820"/>
    </contour>
    <contour>
      <point x="1343" y="824" type="curve" smooth="yes"/>
      <point x="1417.92" y="824"/>
      <point x="1500" y="890.141"/>
      <point x="1500" y="961" type="curve"/>
      <point x="1484" y="963"/>
      <point x="1468" y="965"/>
      <point x="1452" y="967" type="curve" smooth="yes"/>
      <point x="1436.27" y="967.983"/>
      <point x="1421.08" y="968.479"/>
      <point x="1406.4" y="968.479" type="curve" smooth="yes"/>
      <point x="1275.36" y="968.479"/>
      <point x="1185.98" y="928.903"/>
      <point x="1131" y="843" type="curve"/>
      <point x="1130.81" y="842.433"/>
      <point x="1130.72" y="841.881"/>
      <point x="1130.72" y="841.346" type="curve" smooth="yes"/>
      <point x="1130.72" y="825.927"/>
      <point x="1207.42" y="823.324"/>
      <point x="1270.1" y="823.324" type="curve" smooth="yes"/>
      <point x="1302.04" y="823.324"/>
      <point x="1330.34" y="824"/>
    </contour>
    <contour>
      <point x="1025" y="800" type="move" name="_Anchor"/>
    </contour>
  </outline>
</glyph>
<glyph name="jaki.mark.small" format="1">
  <advance width="2048"/>
  <unicode hex="E820"/>
  <outline>
    <contour>
      <point x="698" y="215" type="curve"/>
      <point x="637" y="297" type="line"/>
      <point x="674" y="325"/>
      <point x="713" y="358"/>
      <point x="750" y="395" type="curve"/>
      <point x="674" y="431"/>
      <point x="620" y="479"/>
      <point x="590" y="539" type="curve" smooth="yes"/>
      <point x="542" y="633"/>
      <point x="553" y="752"/>
      <point x="621" y="893" type="curve" smooth="yes"/>
      <point x="642" y="936"/>
      <point x="663" y="977"/>
      <point x="683" y="1014" type="curve"/>
      <point x="667" y="1007"/>
      <point x="650" y="999"/>
      <point x="632" y="990" type="curve" smooth="yes"/>
      <point x="623" y="986"/>
      <point x="615" y="982"/>
      <point x="606" y="978" type="curve"/>
      <point x="562" y="1070" type="line"/>
      <point x="571" y="1074"/>
      <point x="579" y="1078"/>
      <point x="587" y="1082" type="curve" smooth="yes"/>
      <point x="663" y="1118"/>
      <point x="718" y="1145"/>
      <point x="772" y="1163" type="curve"/>
      <point x="807" y="1214"/>
      <point x="840" y="1255"/>
      <point x="873" y="1287" type="curve" smooth="yes"/>
      <point x="939" y="1352"/>
      <point x="1005" y="1382"/>
      <point x="1080" y="1382" type="curve" smooth="yes"/>
      <point x="1173" y="1382"/>
      <point x="1238" y="1338"/>
      <point x="1265" y="1258" type="curve" smooth="yes"/>
      <point x="1274" y="1231"/>
      <point x="1278" y="1200"/>
      <point x="1278" y="1164" type="curve"/>
      <point x="1299" y="1159"/>
      <point x="1318" y="1152"/>
      <point x="1336" y="1144" type="curve" smooth="yes"/>
      <point x="1389" y="1123"/>
      <point x="1431" y="1097"/>
      <point x="1460" y="1066" type="curve" smooth="yes"/>
      <point x="1496" y="1028"/>
      <point x="1515" y="985"/>
      <point x="1516" y="937" type="curve" smooth="yes"/>
      <point x="1520" y="916"/>
      <point x="1525" y="855"/>
      <point x="1478" y="795" type="curve" smooth="yes"/>
      <point x="1474" y="789"/>
      <point x="1469" y="784"/>
      <point x="1465" y="779" type="curve" smooth="yes"/>
      <point x="1465" y="778"/>
      <point x="1465" y="778"/>
      <point x="1465" y="778" type="curve"/>
      <point x="1499" y="723"/>
      <point x="1517" y="662"/>
      <point x="1517" y="594" type="curve" smooth="yes"/>
      <point x="1517" y="510"/>
      <point x="1487" y="443"/>
      <point x="1428" y="394" type="curve" smooth="yes"/>
      <point x="1376" y="350"/>
      <point x="1301" y="324"/>
      <point x="1207" y="316" type="curve" smooth="yes"/>
      <point x="1115" y="309"/>
      <point x="1030" y="321"/>
      <point x="988" y="328" type="curve"/>
      <point x="982" y="330" type="line"/>
      <point x="947" y="336"/>
      <point x="903" y="344"/>
      <point x="857" y="357" type="curve"/>
      <point x="804" y="302"/>
      <point x="751" y="255"/>
    </contour>
    <contour>
      <point x="934" y="443" type="curve"/>
      <point x="958" y="438"/>
      <point x="981" y="434"/>
      <point x="1001" y="430" type="curve" smooth="yes"/>
      <point x="1007" y="429" type="line" smooth="yes"/>
      <point x="1121" y="408"/>
      <point x="1283" y="407"/>
      <point x="1363" y="473" type="curve" smooth="yes"/>
      <point x="1397" y="502"/>
      <point x="1414" y="541"/>
      <point x="1414" y="594" type="curve" smooth="yes"/>
      <point x="1414" y="641"/>
      <point x="1403" y="683"/>
      <point x="1381" y="720" type="curve"/>
      <point x="1311" y="686"/>
      <point x="1215" y="668"/>
      <point x="1094" y="666" type="curve"/>
      <point x="1048" y="591"/>
      <point x="996" y="518"/>
      <point x="940" y="450" type="curve" smooth="yes"/>
      <point x="938" y="448"/>
      <point x="936" y="446"/>
    </contour>
    <contour>
      <point x="838" y="1076" type="curve"/>
      <point x="798" y="1014"/>
      <point x="757" y="938"/>
      <point x="713" y="848" type="curve" smooth="yes"/>
      <point x="660" y="737"/>
      <point x="649" y="649"/>
      <point x="681" y="586" type="curve" smooth="yes"/>
      <point x="708" y="532"/>
      <point x="764" y="498"/>
      <point x="826" y="475" type="curve"/>
      <point x="880" y="535"/>
      <point x="931" y="603"/>
      <point x="978" y="674" type="curve"/>
      <point x="948" y="680"/>
      <point x="922" y="690"/>
      <point x="901" y="703" type="curve" smooth="yes"/>
      <point x="859" y="730"/>
      <point x="836" y="769"/>
      <point x="836" y="814" type="curve" smooth="yes"/>
      <point x="836" y="858"/>
      <point x="859" y="902"/>
      <point x="898" y="934" type="curve" smooth="yes"/>
      <point x="936" y="966"/>
      <point x="987" y="983"/>
      <point x="1039" y="983" type="curve" smooth="yes"/>
      <point x="1070" y="983"/>
      <point x="1102" y="980"/>
      <point x="1134" y="975" type="curve"/>
      <point x="1143" y="1000"/>
      <point x="1150" y="1024"/>
      <point x="1157" y="1047" type="curve" smooth="yes"/>
      <point x="1160" y="1059"/>
      <point x="1163" y="1071"/>
      <point x="1166" y="1085" type="curve"/>
      <point x="1121" y="1092"/>
      <point x="1073" y="1096"/>
      <point x="1025" y="1096" type="curve" smooth="yes"/>
      <point x="944" y="1096"/>
      <point x="890" y="1090"/>
    </contour>
    <contour>
      <point x="1039" y="881" type="curve" smooth="yes"/>
      <point x="979" y="881"/>
      <point x="938" y="841"/>
      <point x="938" y="814" type="curve" smooth="yes"/>
      <point x="938" y="811"/>
      <point x="938" y="801"/>
      <point x="956" y="790" type="curve" smooth="yes"/>
      <point x="967" y="783"/>
      <point x="991" y="773"/>
      <point x="1036" y="769" type="curve"/>
      <point x="1039" y="775"/>
      <point x="1043" y="780"/>
      <point x="1046" y="786" type="curve" smooth="yes"/>
      <point x="1063" y="817"/>
      <point x="1078" y="847"/>
      <point x="1092" y="877" type="curve"/>
      <point x="1073" y="880"/>
      <point x="1055" y="881"/>
    </contour>
    <contour>
      <point x="1195" y="854" type="curve"/>
      <point x="1182" y="827"/>
      <point x="1169" y="799"/>
      <point x="1154" y="771" type="curve"/>
      <point x="1204" y="775"/>
      <point x="1259" y="783"/>
      <point x="1305" y="799" type="curve"/>
      <point x="1299" y="804"/>
      <point x="1294" y="808"/>
      <point x="1287" y="812" type="curve" smooth="yes"/>
      <point x="1258" y="830"/>
      <point x="1226" y="844"/>
    </contour>
    <contour>
      <point x="1233" y="950" type="curve"/>
      <point x="1272" y="936"/>
      <point x="1309" y="919"/>
      <point x="1341" y="898" type="curve" smooth="yes"/>
      <point x="1362" y="886"/>
      <point x="1380" y="872"/>
      <point x="1397" y="857" type="curve"/>
      <point x="1420" y="887"/>
      <point x="1416" y="915"/>
      <point x="1416" y="920" type="curve" smooth="yes"/>
      <point x="1414" y="926" type="line"/>
      <point x="1414" y="932" type="line" smooth="yes"/>
      <point x="1414" y="955"/>
      <point x="1405" y="975"/>
      <point x="1387" y="995" type="curve" smooth="yes"/>
      <point x="1367" y="1015"/>
      <point x="1337" y="1034"/>
      <point x="1298" y="1049" type="curve" smooth="yes"/>
      <point x="1288" y="1054"/>
      <point x="1277" y="1058"/>
      <point x="1265" y="1061" type="curve"/>
      <point x="1263" y="1048"/>
      <point x="1259" y="1034"/>
      <point x="1255" y="1020" type="curve" smooth="yes"/>
      <point x="1249" y="997"/>
      <point x="1242" y="974"/>
    </contour>
    <contour>
      <point x="1025" y="1198" type="curve" smooth="yes"/>
      <point x="1076" y="1198"/>
      <point x="1127" y="1194"/>
      <point x="1175" y="1187" type="curve"/>
      <point x="1174" y="1201"/>
      <point x="1172" y="1214"/>
      <point x="1168" y="1226" type="curve" smooth="yes"/>
      <point x="1159" y="1251"/>
      <point x="1142" y="1280"/>
      <point x="1080" y="1280" type="curve" smooth="yes"/>
      <point x="1020" y="1280"/>
      <point x="978" y="1247"/>
      <point x="944" y="1214" type="curve" smooth="yes"/>
      <point x="938" y="1208"/>
      <point x="932" y="1201"/>
      <point x="926" y="1195" type="curve"/>
      <point x="955" y="1197"/>
      <point x="988" y="1198"/>
    </contour>
    <contour>
      <point x="1025" y="800" type="move" name="_Anchor"/>
    </contour>
  </outline>
</glyph>
<glyph name="nasa.mark.small" format="1">
  <advance width="2048"/>
  <unicode hex="E824"/>
  <outline>
    <contour>
      <point x="1339" y="918" type="curve" smooth="yes"/>
      <point x="1379" y="884"/>
      <point x="1411" y="845"/>
      <point x="1433" y="801" type="curve" smooth="yes"/>
      <point x="1456" y="754"/>
      <point x="1468" y="705"/>
      <point x="1468" y="654" type="curve" smooth="yes"/>
      <point x="1468" y="604"/>
      <point x="1456" y="554"/>
      <point x="1433" y="508" type="curve" smooth="yes"/>
      <point x="1411" y="464"/>
      <point x="1379" y="425"/>
      <point x="1339" y="391" type="curve" smooth="yes"/>
      <point x="1259" y="324"/>
      <point x="1152" y="287"/>
      <point x="1039" y="287" type="curve" smooth="yes"/>
      <point x="973" y="287"/>
      <point x="908" y="299"/>
      <point x="847" y="323" type="curve" smooth="yes"/>
      <point x="788" y="347"/>
      <point x="735" y="380"/>
      <point x="689" y="423" type="curve" smooth="yes"/>
      <point x="643" y="466"/>
      <point x="607" y="516"/>
      <point x="582" y="572" type="curve" smooth="yes"/>
      <point x="556" y="630"/>
      <point x="543" y="692"/>
      <point x="543" y="756" type="curve" smooth="yes"/>
      <point x="543" y="819"/>
      <point x="556" y="881"/>
      <point x="582" y="939" type="curve" smooth="yes"/>
      <point x="607" y="995"/>
      <point x="643" y="1046"/>
      <point x="689" y="1089" type="curve" smooth="yes"/>
      <point x="735" y="1131"/>
      <point x="788" y="1165"/>
      <point x="847" y="1188" type="curve" smooth="yes"/>
      <point x="908" y="1213"/>
      <point x="973" y="1225"/>
      <point x="1039" y="1225" type="curve" smooth="yes"/>
      <point x="1193" y="1225"/>
      <point x="1313" y="1200"/>
      <point x="1414" y="1146" type="curve" smooth="yes"/>
      <point x="1439" y="1133"/>
      <point x="1448" y="1102"/>
      <point x="1435" y="1077" type="curve" smooth="yes"/>
      <point x="1426" y="1061"/>
      <point x="1409" y="1050"/>
      <point x="1390" y="1050" type="curve" smooth="yes"/>
      <point x="1382" y="1050"/>
      <point x="1374" y="1052"/>
      <point x="1366" y="1056" type="curve" smooth="yes"/>
      <point x="1280" y="1102"/>
      <point x="1176" y="1123"/>
      <point x="1039" y="1123" type="curve" smooth="yes"/>
      <point x="985" y="1123"/>
      <point x="933" y="1113"/>
      <point x="885" y="1094" type="curve" smooth="yes"/>
      <point x="837" y="1075"/>
      <point x="795" y="1048"/>
      <point x="759" y="1014" type="curve" smooth="yes"/>
      <point x="685" y="945"/>
      <point x="645" y="853"/>
      <point x="645" y="756" type="curve" smooth="yes"/>
      <point x="645" y="658"/>
      <point x="685" y="566"/>
      <point x="759" y="497" type="curve" smooth="yes"/>
      <point x="795" y="463"/>
      <point x="837" y="436"/>
      <point x="885" y="418" type="curve" smooth="yes"/>
      <point x="933" y="398"/>
      <point x="985" y="389"/>
      <point x="1039" y="389" type="curve" smooth="yes"/>
      <point x="1220" y="389"/>
      <point x="1366" y="508"/>
      <point x="1366" y="654" type="curve" smooth="yes"/>
      <point x="1366" y="801"/>
      <point x="1220" y="920"/>
      <point x="1039" y="920" type="curve" smooth="yes"/>
      <point x="928" y="920"/>
      <point x="837" y="846"/>
      <point x="837" y="756" type="curve" smooth="yes"/>
      <point x="837" y="665"/>
      <point x="928" y="591"/>
      <point x="1039" y="591" type="curve" smooth="yes"/>
      <point x="1086" y="591"/>
      <point x="1123" y="625"/>
      <point x="1123" y="667" type="curve" smooth="yes"/>
      <point x="1123" y="709"/>
      <point x="1086" y="743"/>
      <point x="1039" y="743" type="curve" smooth="yes"/>
      <point x="1011" y="743"/>
      <point x="988" y="766"/>
      <point x="988" y="794" type="curve" smooth="yes"/>
      <point x="988" y="822"/>
      <point x="1011" y="845"/>
      <point x="1039" y="845" type="curve" smooth="yes"/>
      <point x="1142" y="845"/>
      <point x="1225" y="765"/>
      <point x="1225" y="667" type="curve" smooth="yes"/>
      <point x="1225" y="569"/>
      <point x="1142" y="489"/>
      <point x="1039" y="489" type="curve" smooth="yes"/>
      <point x="959" y="489"/>
      <point x="884" y="516"/>
      <point x="827" y="565" type="curve" smooth="yes"/>
      <point x="799" y="589"/>
      <point x="776" y="617"/>
      <point x="761" y="649" type="curve" smooth="yes"/>
      <point x="744" y="683"/>
      <point x="735" y="719"/>
      <point x="735" y="756" type="curve" smooth="yes"/>
      <point x="735" y="793"/>
      <point x="744" y="829"/>
      <point x="761" y="862" type="curve" smooth="yes"/>
      <point x="776" y="894"/>
      <point x="799" y="923"/>
      <point x="827" y="947" type="curve" smooth="yes"/>
      <point x="884" y="995"/>
      <point x="959" y="1022"/>
      <point x="1039" y="1022" type="curve" smooth="yes"/>
      <point x="1152" y="1022"/>
      <point x="1259" y="985"/>
    </contour>
    <contour>
      <point x="1025" y="800" type="move" name="_Anchor"/>
    </contour>
  </outline>
</glyph>
<glyph name="walo.mark.small" format="1">
  <advance width="2048"/>
  <unicode hex="E825"/>
  <outline>
    <contour>
      <point x="1025" y="800" type="move" name="_Anchor"/>
    </contour>
    <contour>
      <point x="1461" y="989" type="line"/>
      <point x="1280" y="847" type="line"/>
      <point x="1525" y="438" type="line"/>
      <point x="523" y="438" type="line"/>
      <point x="769" y="847" type="line"/>
      <point x="587" y="989" type="line"/>
      <point x="659" y="1062" type="line"/>
      <point x="822" y="936" type="line"/>
      <point x="1024" y="1273" type="line"/>
      <point x="1227" y="935" type="line"/>
      <point x="1388" y="1062" type="line"/>
    </contour>
    <contour>
      <point x="705" y="538" type="line"/>
      <point x="1343" y="538" type="line"/>
      <point x="1024" y="1069" type="line"/>
    </contour>
  </outline>
</glyph>
